<?xml version="1.0" encoding="utf-8"?>
<COLLADA xmlns="http://www.collada.org/2005/11/COLLADASchema" version="1.4.1" xmlns:xsi="http://www.w3.org/2001/XMLSchema-instance">
  <asset>
    <contributor>
      <author>Blender User</author>
      <authoring_tool>Blender 4.2.18 LTS commit date:2026-02-16, commit time:13:37, hash:d71e3422e438</authoring_tool>
    </contributor>
    <created>2026-04-03T18:41:27</created>
    <modified>2026-04-03T18:41:27</modified>
    <unit name="meter" meter="1"/>
    <up_axis>Z_UP</up_axis>
  </asset>
  <library_effects>
    <effect id="Material_006-effect">
      <profile_COMMON>
        <technique sid="common">
          <lambert>
            <emission>
              <color sid="emission">0 0 0 1</color>
            </emission>
            <diffuse>
              <color sid="diffuse">0.287439 0.2422813 0.2622508 1</color>
            </diffuse>
            <index_of_refraction>
              <float sid="ior">1.5</float>
            </index_of_refraction>
          </lambert>
        </technique>
      </profile_COMMON>
    </effect>
  </library_effects>
  <library_images/>
  <library_materials>
    <material id="Material_006-material" name="Material.006">
      <instance_effect url="#Material_006-effect"/>
    </material>
  </library_materials>
  <library_geometries>
    <geometry id="Circle_010-mesh" name="Circle.010">
      <mesh>
        <source id="Circle_010-mesh-positions">
          <float_array id="Circle_010-mesh-positions-array" count="192">0 1 -0.0999999 -0.1950903 0.9807853 -0.0999999 -0.3826835 0.9238795 -0.0999999 -0.5555703 0.8314696 -0.0999999 -0.7071068 0.7071068 -0.0999999 -0.8314696 0.5555703 -0.0999999 -0.9238795 0.3826835 -0.0999999 -0.9807853 0.1950903 -0.0999999 -1 0 -0.0999999 -0.9807853 -0.1950903 -0.0999999 -0.9238795 -0.3826835 -0.0999999 -0.8314696 -0.5555703 -0.0999999 -0.7071068 -0.7071068 -0.0999999 -0.5555703 -0.8314696 -0.0999999 -0.3826835 -0.9238795 -0.0999999 -0.1950903 -0.9807853 -0.0999999 0 -1 -0.0999999 0.1950903 -0.9807853 -0.0999999 0.3826835 -0.9238795 -0.0999999 0.5555703 -0.8314696 -0.0999999 0.7071068 -0.7071068 -0.0999999 0.8314696 -0.5555703 -0.0999999 0.9238795 -0.3826835 -0.0999999 0.9807853 -0.1950903 -0.0999999 1 0 -0.0999999 0.9807853 0.1950903 -0.0999999 0.9238795 0.3826835 -0.0999999 0.8314696 0.5555703 -0.0999999 0.7071068 0.7071068 -0.0999999 0.5555703 0.8314696 -0.0999999 0.3826835 0.9238795 -0.0999999 0.1950903 0.9807853 -0.0999999 -0.1950903 0.9807853 0.0999999 0 1 0.0999999 -0.3826835 0.9238795 0.0999999 -0.5555703 0.8314696 0.0999999 -0.7071068 0.7071068 0.0999999 -0.8314696 0.5555703 0.0999999 -0.9238795 0.3826835 0.0999999 -0.9807853 0.1950903 0.0999999 -1 0 0.0999999 -0.9807853 -0.1950903 0.0999999 -0.9238795 -0.3826835 0.0999999 -0.8314696 -0.5555703 0.0999999 -0.7071068 -0.7071068 0.0999999 -0.5555703 -0.8314696 0.0999999 -0.3826835 -0.9238795 0.0999999 -0.1950903 -0.9807853 0.0999999 0 -1 0.0999999 0.1950903 -0.9807853 0.0999999 0.3826835 -0.9238795 0.0999999 0.5555703 -0.8314696 0.0999999 0.7071068 -0.7071068 0.0999999 0.8314696 -0.5555703 0.0999999 0.9238795 -0.3826835 0.0999999 0.9807853 -0.1950903 0.0999999 1 0 0.0999999 0.9807853 0.1950903 0.0999999 0.9238795 0.3826835 0.0999999 0.8314696 0.5555703 0.0999999 0.7071068 0.7071068 0.0999999 0.5555703 0.8314696 0.0999999 0.3826835 0.9238795 0.0999999 0.1950903 0.9807853 0.0999999</float_array>
          <technique_common>
            <accessor source="#Circle_010-mesh-positions-array" count="64" stride="3">
              <param name="X" type="float"/>
              <param name="Y" type="float"/>
              <param name="Z" type="float"/>
            </accessor>
          </technique_common>
        </source>
        <source id="Circle_010-mesh-normals">
          <float_array id="Circle_010-mesh-normals-array" count="192">0.2785581 -0.6724934 -0.6856807 -0.6725029 -0.2785622 -0.6856698 -0.2785595 0.6724967 -0.6856769 -2.02601e-6 -0.7279046 0.6856784 0.727915 -2.02604e-6 0.6856675 2.02601e-6 0.7279046 0.6856784 -0.4043973 0.6052193 -0.6856912 -0.5147154 0.5147182 0.6856627 -0.4043939 0.6052216 0.6856912 0.2785563 0.6724997 -0.6856753 0.142008 0.7139116 0.685685 0.2785553 0.6724866 0.6856886 0.142008 -0.7139117 -0.685685 0.2785515 -0.6724881 0.6856886 0.142004 -0.7139124 0.685685 -0.5147129 0.5147099 -0.6856709 -0.6052193 0.4043974 0.6856912 0.142004 0.7139124 -0.685685 0.4043939 -0.6052216 0.6856912 -0.6052218 0.4043937 -0.6856911 -0.6724864 0.2785554 0.6856886 0.4043973 -0.6052194 -0.6856912 0.5147154 -0.5147182 0.6856627 -0.6725031 0.2785574 -0.6856715 -0.7139117 0.142008 0.685685 0.5147129 -0.5147099 -0.6856709 0.6052193 -0.4043974 0.6856912 -0.7139066 0.1420027 -0.6856913 -0.727915 2.02604e-6 0.6856675 0.6052218 -0.4043937 -0.6856911 0.6724864 -0.2785554 0.6856886 -0.7278953 -2.02598e-6 -0.6856884 -0.7139124 -0.1420038 0.685685 0.6724998 -0.2785561 -0.6856753 0.7139117 -0.142008 0.685685 -0.7139117 -0.142008 -0.685685 -0.6724882 -0.2785513 0.6856887 0.7139124 -0.1420038 -0.6856852 -0.6052218 -0.4043938 0.6856912 0.7278953 2.02598e-6 -0.6856884 0.7139124 0.1420038 0.685685 -0.6052193 -0.4043974 -0.6856912 -0.5147184 -0.5147153 0.6856627 0.7139058 0.1420068 -0.6856913 0.6724882 0.2785513 0.6856887 -0.51471 -0.5147128 -0.6856709 -0.4043973 -0.6052193 0.6856912 0.6725063 0.2785635 -0.685666 0.6052218 0.4043938 0.6856912 -0.4043939 -0.6052216 -0.6856912 -0.2785553 -0.6724866 0.6856886 -2.02598e-6 0.7278951 -0.6856886 -0.142004 0.7139124 0.685685 0.6052193 0.4043974 -0.6856912 0.5147184 0.5147153 0.6856627 -0.2785577 -0.672503 -0.6856715 -0.142008 -0.7139116 0.685685 -0.1420068 0.7139058 -0.6856914 -0.2785515 0.6724881 0.6856886 0.51471 0.5147128 -0.6856709 0.4043973 0.6052193 0.6856912 -0.1420028 -0.7139066 -0.6856914 0.4043939 0.6052216 -0.6856912 2.02598e-6 -0.7278951 -0.6856886</float_array>
          <technique_common>
            <accessor source="#Circle_010-mesh-normals-array" count="64" stride="3">
              <param name="X" type="float"/>
              <param name="Y" type="float"/>
              <param name="Z" type="float"/>
            </accessor>
          </technique_common>
        </source>
        <source id="Circle_010-mesh-map-0">
          <float_array id="Circle_010-mesh-map-0-array" count="744">0 0 0 0 0 0 0 0 0 0 0 0 0 0 0 0 0 0 0 0 0 0 0 0 0 0 0 0 0 0 0 0 0 0 0 0 0 0 0 0 0 0 0 0 0 0 0 0 0 0 0 0 0 0 0 0 0 0 0 0 0 0 0 0 0 0 0 0 0 0 0 0 0 0 0 0 0 0 0 0 0 0 0 0 0 0 0 0 0 0 0 0 0 0 0 0 0 0 0 0 0 0 0 0 0 0 0 0 0 0 0 0 0 0 0 0 0 0 0 0 0 0 0 0 0 0 0 0 0 0 0 0 0 0 0 0 0 0 0 0 0 0 0 0 0 0 0 0 0 0 0 0 0 0 0 0 0 0 0 0 0 0 0 0 0 0 0 0 0 0 0 0 0 0 0 0 0 0 0 0 0 0 0 0 0 0 0 0 0 0 0 0 0 0 0 0 0 0 0 0 0 0 0 0 0 0 0 0 0 0 0 0 0 0 0 0 0 0 0 0 0 0 0 0 0 0 0 0 0 0 0 0 0 0 0 0 0 0 0 0 0 0 0 0 0 0 0 0 0 0 0 0 0 0 0 0 0 0 0 0 0 0 0 0 0 0 0 0 0 0 0 0 0 0 0 0 0 0 0 0 0 0 0 0 0 0 0 0 0 0 0 0 0 0 0 0 0 0 0 0 0 0 0 0 0 0 0 0 0 0 0 0 0 0 0 0 0 0 0 0 0 0 0 0 0 0 0 0 0 0 0 0 0 0 0 0 0 0 0 0 0 0 0 0 0 0 0 0 0 0 0 0 0 0 0 0 0 0 0 0 0 0 0 0 0 0 0 0 0 0 0 0 0 0 0 0 0 0 0 0 0 0 0 0 0 0 0 0 0 0 0 0 0 0 0 0 0 0 0 0 0 0 0 0 0 0 0 0 0 0 0 0 0 0 0 0 0 0 0 0 0 0 0 0 0 0 0 0 0 0 0 0 0 0 0 0 0 0 0 0 0 0 0 0 0 0 0 0 0 0 0 0 0 0 0 0 0 0 0 0 0 0 0 0 0 0 0 0 0 0 0 0 0 0 0 0 0 0 0 0 0 0 0 0 0 0 0 0 0 0 0 0 0 0 0 0 0 0 0 0 0 0 0 0 0 0 0 0 0 0 0 0 0 0 0 0 0 0 0 0 0 0 0 0 0 0 0 0 0 0 0 0 0 0 0 0 0 0 0 0 0 0 0 0 0 0 0 0 0 0 0 0 0 0 0 0 0 0 0 0 0 0 0 0 0 0 0 0 0 0 0 0 0 0 0 0 0 0 0 0 0 0 0 0 0 0 0 0 0 0 0 0 0 0 0 0 0 0 0 0 0 0 0 0 0 0 0 0 0 0 0 0 0 0 0 0 0 0 0 0 0 0 0 0 0 0 0 0 0 0 0 0 0 0 0 0 0 0 0 0 0 0 0 0 0 0 0 0 0 0 0 0 0 0 0 0 0 0 0 0 0 0 0 0 0 0 0 0 0 0 0 0 0 0 0 0 0 0 0 0 0 0 0 0 0 0 0 0 0 0 0 0 0 0 0 0 0 0 0 0 0 0 0 0 0 0 0 0 0 0 0 0 0 0 0 0 0 0 0 0 0 0 0 0 0 0 0 0 0 0 0 0 0 0 0 0 0 0 0 0 0 0 0 0</float_array>
          <technique_common>
            <accessor source="#Circle_010-mesh-map-0-array" count="372" stride="2">
              <param name="S" type="float"/>
              <param name="T" type="float"/>
            </accessor>
          </technique_common>
        </source>
        <vertices id="Circle_010-mesh-vertices">
          <input semantic="POSITION" source="#Circle_010-mesh-positions"/>
        </vertices>
        <triangles material="Material_006-material" count="124">
          <input semantic="VERTEX" source="#Circle_010-mesh-vertices" offset="0"/>
          <input semantic="NORMAL" source="#Circle_010-mesh-normals" offset="1"/>
          <input semantic="TEXCOORD" source="#Circle_010-mesh-map-0" offset="2" set="0"/>
          <p>18 0 0 10 1 1 2 2 2 48 3 3 56 4 4 33 5 5 3 6 6 36 7 7 35 8 8 30 9 9 63 10 10 62 11 11 17 12 12 50 13 13 49 14 14 4 15 15 37 16 16 36 7 17 31 17 18 33 5 19 63 10 20 18 0 21 51 18 22 50 13 23 5 19 24 38 20 25 37 16 26 19 21 27 52 22 28 51 18 29 6 23 30 39 24 31 38 20 32 20 25 33 53 26 34 52 22 35 7 27 36 40 28 37 39 24 38 21 29 39 54 30 40 53 26 41 8 31 42 41 32 43 40 28 44 22 33 45 55 34 46 54 30 47 9 35 48 42 36 49 41 32 50 23 37 51 56 4 52 55 34 53 10 1 54 43 38 55 42 36 56 24 39 57 57 40 58 56 4 59 11 41 60 44 42 61 43 38 62 25 43 63 58 44 64 57 40 65 12 45 66 45 46 67 44 42 68 26 47 69 59 48 70 58 44 71 13 49 72 46 50 73 45 46 74 0 51 75 32 52 76 33 5 77 27 53 78 60 54 79 59 48 80 14 55 81 47 56 82 46 50 83 1 57 84 34 58 85 32 52 86 28 59 87 61 60 88 60 54 89 15 61 90 48 3 91 47 56 92 2 2 93 35 8 94 34 58 95 29 62 96 62 11 97 61 60 98 16 63 99 49 14 100 48 3 101 2 2 102 1 57 103 0 51 104 0 51 105 31 17 106 2 2 107 31 17 108 30 9 109 2 2 110 30 9 111 29 62 112 28 59 113 28 59 114 27 53 115 26 47 116 26 47 117 25 43 118 24 39 119 24 39 120 23 37 121 26 47 122 23 37 123 22 33 124 26 47 125 22 33 126 21 29 127 20 25 128 20 25 129 19 21 130 18 0 131 18 0 132 17 12 133 14 55 134 17 12 135 16 63 136 14 55 137 16 63 138 15 61 139 14 55 140 14 55 141 13 49 142 12 45 143 12 45 144 11 41 145 10 1 146 10 1 147 9 35 148 6 23 149 9 35 150 8 31 151 6 23 152 8 31 153 7 27 154 6 23 155 6 23 156 5 19 157 4 15 158 4 15 159 3 6 160 2 2 161 30 9 162 28 59 163 2 2 164 28 59 165 26 47 166 2 2 167 22 33 168 20 25 169 26 47 170 20 25 171 18 0 172 26 47 173 14 55 174 12 45 175 18 0 176 12 45 177 10 1 178 18 0 179 6 23 180 4 15 181 10 1 182 4 15 183 2 2 184 10 1 185 2 2 186 26 47 187 18 0 188 33 5 189 32 52 190 36 7 191 32 52 192 34 58 193 36 7 194 34 58 195 35 8 196 36 7 197 36 7 198 37 16 199 38 20 200 38 20 201 39 24 202 36 7 203 39 24 204 40 28 205 36 7 206 40 28 207 41 32 208 44 42 209 41 32 210 42 36 211 44 42 212 42 36 213 43 38 214 44 42 215 44 42 216 45 46 217 46 50 218 46 50 219 47 56 220 44 42 221 47 56 222 48 3 223 44 42 224 48 3 225 49 14 226 52 22 227 49 14 228 50 13 229 52 22 230 50 13 231 51 18 232 52 22 233 52 22 234 53 26 235 54 30 236 54 30 237 55 34 238 52 22 239 55 34 240 56 4 241 52 22 242 56 4 243 57 40 244 60 54 245 57 40 246 58 44 247 60 54 248 58 44 249 59 48 250 60 54 251 60 54 252 61 60 253 62 11 254 62 11 255 63 10 256 60 54 257 63 10 258 33 5 259 60 54 260 33 5 261 36 7 262 40 28 263 40 28 264 44 42 265 48 3 266 48 3 267 52 22 268 56 4 269 56 4 270 60 54 271 33 5 272 33 5 273 40 28 274 48 3 275 3 6 276 4 15 277 36 7 278 30 9 279 31 17 280 63 10 281 17 12 282 18 0 283 50 13 284 4 15 285 5 19 286 37 16 287 31 17 288 0 51 289 33 5 290 18 0 291 19 21 292 51 18 293 5 19 294 6 23 295 38 20 296 19 21 297 20 25 298 52 22 299 6 23 300 7 27 301 39 24 302 20 25 303 21 29 304 53 26 305 7 27 306 8 31 307 40 28 308 21 29 309 22 33 310 54 30 311 8 31 312 9 35 313 41 32 314 22 33 315 23 37 316 55 34 317 9 35 318 10 1 319 42 36 320 23 37 321 24 39 322 56 4 323 10 1 324 11 41 325 43 38 326 24 39 327 25 43 328 57 40 329 11 41 330 12 45 331 44 42 332 25 43 333 26 47 334 58 44 335 12 45 336 13 49 337 45 46 338 26 47 339 27 53 340 59 48 341 13 49 342 14 55 343 46 50 344 0 51 345 1 57 346 32 52 347 27 53 348 28 59 349 60 54 350 14 55 351 15 61 352 47 56 353 1 57 354 2 2 355 34 58 356 28 59 357 29 62 358 61 60 359 15 61 360 16 63 361 48 3 362 2 2 363 3 6 364 35 8 365 29 62 366 30 9 367 62 11 368 16 63 369 17 12 370 49 14 371</p>
        </triangles>
      </mesh>
    </geometry>
  </library_geometries>
  <library_visual_scenes>
    <visual_scene id="Scene" name="Scene">
      <node id="tmp_export_Circle_010" name="tmp_export_Circle.010" type="NODE">
        <matrix sid="transform">1 0 0 0 0 1 0 0 0 0 1 0 0 0 0 1</matrix>
        <instance_geometry url="#Circle_010-mesh" name="tmp_export_Circle.010">
          <bind_material>
            <technique_common>
              <instance_material symbol="Material_006-material" target="#Material_006-material">
                <bind_vertex_input semantic="UVMap" input_semantic="TEXCOORD" input_set="0"/>
              </instance_material>
            </technique_common>
          </bind_material>
        </instance_geometry>
      </node>
    </visual_scene>
  </library_visual_scenes>
  <scene>
    <instance_visual_scene url="#Scene"/>
  </scene>
</COLLADA>