<?xml version="1.0" encoding="utf-8"?>
<COLLADA xmlns="http://www.collada.org/2005/11/COLLADASchema" version="1.4.1" xmlns:xsi="http://www.w3.org/2001/XMLSchema-instance">
  <asset>
    <contributor>
      <author>Blender User</author>
      <authoring_tool>Blender 4.2.18 LTS commit date:2026-02-16, commit time:13:37, hash:d71e3422e438</authoring_tool>
    </contributor>
    <created>2026-04-03T18:41:27</created>
    <modified>2026-04-03T18:41:27</modified>
    <unit name="meter" meter="1"/>
    <up_axis>Z_UP</up_axis>
  </asset>
  <library_effects>
    <effect id="Material_009-effect">
      <profile_COMMON>
        <technique sid="common">
          <lambert>
            <emission>
              <color sid="emission">0 0 0 1</color>
            </emission>
            <diffuse>
              <color sid="diffuse">0.5775767 0.577581 0.5775807 1</color>
            </diffuse>
            <index_of_refraction>
              <float sid="ior">1.5</float>
            </index_of_refraction>
          </lambert>
        </technique>
      </profile_COMMON>
    </effect>
  </library_effects>
  <library_images/>
  <library_materials>
    <material id="Material_009-material" name="Material.009">
      <instance_effect url="#Material_009-effect"/>
    </material>
  </library_materials>
  <library_geometries>
    <geometry id="Circle_001-mesh" name="Circle.001">
      <mesh>
        <source id="Circle_001-mesh-positions">
          <float_array id="Circle_001-mesh-positions-array" count="384">0 1 -4.364317 -0.1950903 0.9807853 -4.364317 -0.3826835 0.9238795 -4.364317 -0.5555703 0.8314696 -4.364317 -0.7071068 0.7071068 -4.364317 -0.8314696 0.5555703 -4.364317 -0.9238795 0.3826835 -4.364317 -0.9807853 0.1950903 -4.364317 -1 0 -4.364317 -0.9807853 -0.1950903 -4.364317 -0.9238795 -0.3826835 -4.364317 -0.8314696 -0.5555703 -4.364317 -0.7071068 -0.7071068 -4.364317 -0.5555703 -0.8314696 -4.364317 -0.3826835 -0.9238795 -4.364317 -0.1950903 -0.9807853 -4.364317 0 -1 -4.364317 0.1950903 -0.9807853 -4.364317 0.3826835 -0.9238795 -4.364317 0.5555703 -0.8314696 -4.364317 0.7071068 -0.7071068 -4.364317 0.8314696 -0.5555703 -4.364317 0.9238795 -0.3826835 -4.364317 0.9807853 -0.1950903 -4.364317 1 0 -4.364317 0.9807853 0.1950903 -4.364317 0.9238795 0.3826835 -4.364317 0.8314696 0.5555703 -4.364317 0.7071068 0.7071068 -4.364317 0.5555703 0.8314696 -4.364317 0.3826835 0.9238795 -4.364317 0.1950903 0.9807853 -4.364317 -0.1950903 0.9807853 4.364317 0 1 4.364317 -0.3826835 0.9238795 4.364317 -0.5555703 0.8314696 4.364317 -0.7071068 0.7071068 4.364317 -0.8314696 0.5555703 4.364317 -0.9238795 0.3826835 4.364317 -0.9807853 0.1950903 4.364317 -1 0 4.364317 -0.9807853 -0.1950903 4.364317 -0.9238795 -0.3826835 4.364317 -0.8314696 -0.5555703 4.364317 -0.7071068 -0.7071068 4.364317 -0.5555703 -0.8314696 4.364317 -0.3826835 -0.9238795 4.364317 -0.1950903 -0.9807853 4.364317 0 -1 4.364317 0.1950903 -0.9807853 4.364317 0.3826835 -0.9238795 4.364317 0.5555703 -0.8314696 4.364317 0.7071068 -0.7071068 4.364317 0.8314696 -0.5555703 4.364317 0.9238795 -0.3826835 4.364317 0.9807853 -0.1950903 4.364317 1 0 4.364317 0.9807853 0.1950903 4.364317 0.9238795 0.3826835 4.364317 0.8314696 0.5555703 4.364317 0.7071068 0.7071068 4.364317 0.5555703 0.8314696 4.364317 0.3826835 0.9238795 4.364317 0.1950903 0.9807853 4.364317 0 2 -5.157829 -0.3901807 1.96157 -5.157829 -0.7653669 1.847759 -5.157829 -1.11114 1.662939 -5.157829 -1.414214 1.414214 -5.157829 -1.662939 1.11114 -5.157829 -1.847759 0.7653669 -5.157829 -1.96157 0.3901806 -5.157829 -2 0 -5.157829 -1.96157 -0.3901807 -5.157829 -1.847759 -0.765367 -5.157829 -1.662939 -1.11114 -5.157829 -1.414214 -1.414214 -5.157829 -1.11114 -1.662939 -5.157829 -0.7653669 -1.847759 -5.157829 -0.3901807 -1.96157 -5.157829 0 -2 -5.157829 0.3901807 -1.96157 -5.157829 0.7653669 -1.847759 -5.157829 1.11114 -1.662939 -5.157829 1.414214 -1.414214 -5.157829 1.662939 -1.11114 -5.157829 1.847759 -0.765367 -5.157829 1.96157 -0.3901807 -5.157829 2 0 -5.157829 1.96157 0.3901806 -5.157829 1.847759 0.7653669 -5.157829 1.662939 1.11114 -5.157829 1.414214 1.414214 -5.157829 1.11114 1.662939 -5.157829 0.7653669 1.847759 -5.157829 0.3901807 1.96157 -5.157829 -0.3901807 1.96157 -4.364317 0 2 -4.364317 -0.7653669 1.847759 -4.364317 -1.11114 1.662939 -4.364317 -1.414214 1.414214 -4.364317 -1.662939 1.11114 -4.364317 -1.847759 0.7653669 -4.364317 -1.96157 0.3901806 -4.364317 -2 0 -4.364317 -1.96157 -0.3901807 -4.364317 -1.847759 -0.765367 -4.364317 -1.662939 -1.11114 -4.364317 -1.414214 -1.414214 -4.364317 -1.11114 -1.662939 -4.364317 -0.7653669 -1.847759 -4.364317 -0.3901807 -1.96157 -4.364317 0 -2 -4.364317 0.3901807 -1.96157 -4.364317 0.7653669 -1.847759 -4.364317 1.11114 -1.662939 -4.364317 1.414214 -1.414214 -4.364317 1.662939 -1.11114 -4.364317 1.847759 -0.765367 -4.364317 1.96157 -0.3901807 -4.364317 2 0 -4.364317 1.96157 0.3901806 -4.364317 1.847759 0.7653669 -4.364317 1.662939 1.11114 -4.364317 1.414214 1.414214 -4.364317 1.11114 1.662939 -4.364317 0.7653669 1.847759 -4.364317 0.3901807 1.96157 -4.364317</float_array>
          <technique_common>
            <accessor source="#Circle_001-mesh-positions-array" count="128" stride="3">
              <param name="X" type="float"/>
              <param name="Y" type="float"/>
              <param name="Z" type="float"/>
            </accessor>
          </technique_common>
        </source>
        <source id="Circle_001-mesh-normals">
          <float_array id="Circle_001-mesh-normals-array" count="384">0.2785541 -0.6724869 -0.6856887 -0.6724964 -0.2785578 -0.685678 -0.2785555 0.6724902 -0.685685 -3.77442e-7 -0.727897 0.6856866 0.7279073 -4.27752e-7 0.6856756 3.77442e-7 0.727897 0.6856866 -0.7139043 0.1420016 -0.685694 -0.7279073 4.27752e-7 0.6856756 -0.7139045 0.142005 0.6856932 0.6052145 -0.4043909 -0.6856994 0.6724801 -0.2785511 0.6856966 0.6052139 -0.4043916 0.6856994 -0.727891 -4.26708e-7 -0.6856929 -0.7139047 -0.1420038 0.6856931 0.6724903 -0.2785551 -0.685685 0.7139045 -0.142005 0.6856932 -0.7139047 -0.142005 -0.6856929 -0.6724807 -0.2785497 0.6856967 0.7139052 -0.1420037 -0.6856926 -0.6052145 -0.4043909 0.6856994 0.7278943 4.26706e-7 -0.6856893 0.7139047 0.1420038 0.6856931 -0.6052139 -0.4043916 -0.6856994 -0.5147118 -0.5147112 0.6856707 0.713904 0.1420028 -0.685694 0.6724807 0.2785497 0.6856967 -0.514706 -0.5147061 -0.6856788 -0.4044007 -0.6052113 0.6856964 0.6725002 0.278559 -0.6856737 0.6052145 0.4043909 0.6856994 -0.4043999 -0.6052118 -0.6856964 -0.2785512 -0.6724801 0.6856966 -1.27319e-6 0.7278875 -0.6856966 -0.1420072 0.7139043 0.6856928 0.6052139 0.4043916 -0.6856994 0.5147118 0.5147112 0.6856707 -0.2785564 -0.6724953 -0.6856796 -0.1420083 -0.7139041 0.6856928 -0.1420024 0.7138988 -0.6856997 -0.2785471 0.6724811 0.6856973 0.514706 0.5147061 -0.6856788 0.4044007 0.6052113 0.6856964 -0.1420002 -0.7138991 -0.6856997 -0.4043999 0.6052118 0.6856964 0.4043999 0.6052118 -0.6856964 0.2785512 0.6724801 0.6856966 5.20379e-7 -0.7278875 -0.6856966 0.1420072 -0.7139043 0.6856928 -0.4044007 0.6052112 -0.6856964 -0.5147114 0.5147116 0.6856707 0.2785552 0.672492 -0.6856833 0.1420083 0.7139041 0.6856928 0.1420049 -0.7139045 -0.6856932 0.2785471 -0.6724811 0.6856973 -0.514706 0.5147058 -0.685679 -0.6052139 0.4043916 0.6856994 0.142004 0.7139047 -0.6856931 0.4043999 -0.6052118 0.6856964 -0.6052145 0.4043908 -0.6856994 -0.6724801 0.2785511 0.6856966 0.4044007 -0.6052112 -0.6856964 0.5147114 -0.5147116 0.6856707 -0.6724939 0.2785564 -0.6856809 0.514706 -0.5147058 -0.685679 0.6724996 0.2785572 -0.685675 0.2785532 -0.67249 -0.6856861 -0.672478 -0.2785483 -0.6856998 1.15527e-6 -0.7278892 0.6856947 0.7279028 9.99171e-7 0.6856803 -1.15528e-6 0.7278952 0.6856884 0.605207 -0.404388 -0.6857075 0.6724736 -0.2785463 0.6857049 0.6052085 -0.4043859 0.6857075 -0.7278796 9.67916e-7 -0.685705 -0.7138968 -0.1420041 0.6857013 -0.7278913 -9.99155e-7 0.6856926 0.6724852 -0.2785529 -0.6856909 0.7138972 -0.142002 0.6857014 -0.713886 -0.1420019 -0.685713 -0.6724727 -0.2785486 0.685705 0.7138966 -0.1420041 -0.6857016 -0.6052072 -0.4043878 0.6857075 0.7278764 -9.69655e-7 -0.6857084 0.7138856 0.142004 0.6857129 -0.6052085 -0.4043858 -0.6857075 -0.5147049 -0.5147066 0.6856792 0.7138914 0.1420008 -0.6857076 0.6724764 0.2785472 0.6857018 -0.5147015 -0.5146995 -0.6856871 -0.4043815 -0.6052097 0.6857091 0.6052103 0.4043918 0.6857024 -0.4043925 -0.6052057 -0.685706 -0.2785462 -0.6724737 0.6857049 1.15875e-6 0.7278966 -0.685687 -0.1420024 0.713897 0.6857015 0.6052051 0.4043871 -0.6857098 0.5147024 0.5147045 0.6856827 -0.2785549 -0.6724876 -0.6856878 -0.142 -0.7138974 0.6857015 -0.1419987 0.7138915 -0.6857079 -0.2785501 0.6724724 0.6857046 0.5146869 0.5146887 -0.6857061 0.4043815 0.6052097 0.6857091 -0.1420004 -0.7138912 -0.6857079 -0.2785521 0.6724869 -0.6856896 -0.4043834 0.6052084 0.6857091 0.404394 0.6052112 -0.6857004 0.2785462 0.6724737 0.6857049 -1.9792e-6 -0.7278798 -0.6857048 0.1420024 -0.713897 0.6857015 -0.4043882 0.6052078 -0.6857068 -0.5147007 0.5146989 0.6856882 0.2785536 0.6724842 -0.6856915 0.142 0.7138974 0.6857015 0.1420018 -0.7138972 -0.6857014 0.2785501 -0.6724724 0.6857046 -0.5146917 0.5146922 -0.6856999 -0.6052086 0.4043858 0.6857076 0.1420004 0.7138912 -0.6857079 0.4043834 -0.6052084 0.6857091 -0.6052036 0.4043893 -0.6857098 -0.6724891 0.2785528 0.6856871 0.4043882 -0.6052078 -0.6857068 0.5147067 -0.5147048 0.6856793 -0.6724915 0.2785562 -0.6856834 -0.713886 0.1420019 0.6857129 0.5146992 -0.5147014 -0.6856874 -0.7138968 0.1420041 -0.6857013</float_array>
          <technique_common>
            <accessor source="#Circle_001-mesh-normals-array" count="128" stride="3">
              <param name="X" type="float"/>
              <param name="Y" type="float"/>
              <param name="Z" type="float"/>
            </accessor>
          </technique_common>
        </source>
        <source id="Circle_001-mesh-map-0">
          <float_array id="Circle_001-mesh-map-0-array" count="1488">0 0 0 0 0 0 0 0 0 0 0 0 0 0 0 0 0 0 0 0 0 0 0 0 0 0 0 0 0 0 0 0 0 0 0 0 0 0 0 0 0 0 0 0 0 0 0 0 0 0 0 0 0 0 0 0 0 0 0 0 0 0 0 0 0 0 0 0 0 0 0 0 0 0 0 0 0 0 0 0 0 0 0 0 0 0 0 0 0 0 0 0 0 0 0 0 0 0 0 0 0 0 0 0 0 0 0 0 0 0 0 0 0 0 0 0 0 0 0 0 0 0 0 0 0 0 0 0 0 0 0 0 0 0 0 0 0 0 0 0 0 0 0 0 0 0 0 0 0 0 0 0 0 0 0 0 0 0 0 0 0 0 0 0 0 0 0 0 0 0 0 0 0 0 0 0 0 0 0 0 0 0 0 0 0 0 0 0 0 0 0 0 0 0 0 0 0 0 0 0 0 0 0 0 0 0 0 0 0 0 0 0 0 0 0 0 0 0 0 0 0 0 0 0 0 0 0 0 0 0 0 0 0 0 0 0 0 0 0 0 0 0 0 0 0 0 0 0 0 0 0 0 0 0 0 0 0 0 0 0 0 0 0 0 0 0 0 0 0 0 0 0 0 0 0 0 0 0 0 0 0 0 0 0 0 0 0 0 0 0 0 0 0 0 0 0 0 0 0 0 0 0 0 0 0 0 0 0 0 0 0 0 0 0 0 0 0 0 0 0 0 0 0 0 0 0 0 0 0 0 0 0 0 0 0 0 0 0 0 0 0 0 0 0 0 0 0 0 0 0 0 0 0 0 0 0 0 0 0 0 0 0 0 0 0 0 0 0 0 0 0 0 0 0 0 0 0 0 0 0 0 0 0 0 0 0 0 0 0 0 0 0 0 0 0 0 0 0 0 0 0 0 0 0 0 0 0 0 0 0 0 0 0 0 0 0 0 0 0 0 0 0 0 0 0 0 0 0 0 0 0 0 0 0 0 0 0 0 0 0 0 0 0 0 0 0 0 0 0 0 0 0 0 0 0 0 0 0 0 0 0 0 0 0 0 0 0 0 0 0 0 0 0 0 0 0 0 0 0 0 0 0 0 0 0 0 0 0 0 0 0 0 0 0 0 0 0 0 0 0 0 0 0 0 0 0 0 0 0 0 0 0 0 0 0 0 0 0 0 0 0 0 0 0 0 0 0 0 0 0 0 0 0 0 0 0 0 0 0 0 0 0 0 0 0 0 0 0 0 0 0 0 0 0 0 0 0 0 0 0 0 0 0 0 0 0 0 0 0 0 0 0 0 0 0 0 0 0 0 0 0 0 0 0 0 0 0 0 0 0 0 0 0 0 0 0 0 0 0 0 0 0 0 0 0 0 0 0 0 0 0 0 0 0 0 0 0 0 0 0 0 0 0 0 0 0 0 0 0 0 0 0 0 0 0 0 0 0 0 0 0 0 0 0 0 0 0 0 0 0 0 0 0 0 0 0 0 0 0 0 0 0 0 0 0 0 0 0 0 0 0 0 0 0 0 0 0 0 0 0 0 0 0 0 0 0 0 0 0 0 0 0 0 0 0 0 0 0 0 0 0 0 0 0 0 0 0 0 0 0 0 0 0 0 0 0 0 0 0 0 0 0 0 0 0 0 0 0 0 0 0 0 0 0 0 0 0 0 0 0 0 0 0 0 0 0 0 0 0 0 0 0 0 0 0 0 0 0 0 0 0 0 0 0 0 0 0 0 0 0 0 0 0 0 0 0 0 0 0 0 0 0 0 0 0 0 0 0 0 0 0 0 0 0 0 0 0 0 0 0 0 0 0 0 0 0 0 0 0 0 0 0 0 0 0 0 0 0 0 0 0 0 0 0 0 0 0 0 0 0 0 0 0 0 0 0 0 0 0 0 0 0 0 0 0 0 0 0 0 0 0 0 0 0 0 0 0 0 0 0 0 0 0 0 0 0 0 0 0 0 0 0 0 0 0 0 0 0 0 0 0 0 0 0 0 0 0 0 0 0 0 0 0 0 0 0 0 0 0 0 0 0 0 0 0 0 0 0 0 0 0 0 0 0 0 0 0 0 0 0 0 0 0 0 0 0 0 0 0 0 0 0 0 0 0 0 0 0 0 0 0 0 0 0 0 0 0 0 0 0 0 0 0 0 0 0 0 0 0 0 0 0 0 0 0 0 0 0 0 0 0 0 0 0 0 0 0 0 0 0 0 0 0 0 0 0 0 0 0 0 0 0 0 0 0 0 0 0 0 0 0 0 0 0 0 0 0 0 0 0 0 0 0 0 0 0 0 0 0 0 0 0 0 0 0 0 0 0 0 0 0 0 0 0 0 0 0 0 0 0 0 0 0 0 0 0 0 0 0 0 0 0 0 0 0 0 0 0 0 0 0 0 0 0 0 0 0 0 0 0 0 0 0 0 0 0 0 0 0 0 0 0 0 0 0 0 0 0 0 0 0 0 0 0 0 0 0 0 0 0 0 0 0 0 0 0 0 0 0 0 0 0 0 0 0 0 0 0 0 0 0 0 0 0 0 0 0 0 0 0 0 0 0 0 0 0 0 0 0 0 0 0 0 0 0 0 0 0 0 0 0 0 0 0 0 0 0 0 0 0 0 0 0 0 0 0 0 0 0 0 0 0 0 0 0 0 0 0 0 0 0 0 0 0 0 0 0 0 0 0 0 0 0 0 0 0 0 0 0 0 0 0 0 0 0 0 0 0 0 0 0 0 0 0 0 0 0 0 0 0 0 0 0 0 0 0 0 0 0 0 0 0 0 0 0 0 0 0 0 0 0 0 0 0 0 0 0 0 0 0 0 0 0 0 0 0 0 0 0 0 0 0 0 0 0 0 0 0 0 0 0 0 0 0 0 0 0 0 0 0 0 0 0 0 0 0 0 0 0 0 0 0 0 0 0 0 0 0 0 0 0 0 0 0 0 0 0 0 0 0 0 0 0 0 0 0 0 0 0 0 0 0 0 0 0 0 0 0 0 0 0 0 0 0 0 0 0 0 0 0 0 0 0 0 0 0 0 0 0 0 0 0 0 0 0 0 0 0 0 0 0 0 0 0 0 0 0 0 0 0 0 0 0 0 0 0 0 0 0 0 0 0 0 0 0 0 0 0 0 0 0 0 0 0 0 0 0 0 0 0 0 0 0 0 0 0 0 0 0 0 0 0 0 0 0 0 0 0 0 0 0 0 0 0 0 0 0 0 0 0 0 0 0 0 0 0 0 0 0 0 0 0 0 0 0 0 0 0 0 0 0 0 0 0 0 0 0 0 0 0 0 0 0 0 0 0 0 0 0 0 0 0 0 0 0 0 0 0 0 0 0 0 0 0 0 0 0 0</float_array>
          <technique_common>
            <accessor source="#Circle_001-mesh-map-0-array" count="744" stride="2">
              <param name="S" type="float"/>
              <param name="T" type="float"/>
            </accessor>
          </technique_common>
        </source>
        <vertices id="Circle_001-mesh-vertices">
          <input semantic="POSITION" source="#Circle_001-mesh-positions"/>
        </vertices>
        <triangles material="Material_009-material" count="248">
          <input semantic="VERTEX" source="#Circle_001-mesh-vertices" offset="0"/>
          <input semantic="NORMAL" source="#Circle_001-mesh-normals" offset="1"/>
          <input semantic="TEXCOORD" source="#Circle_001-mesh-map-0" offset="2" set="0"/>
          <p>18 0 0 10 1 1 2 2 2 48 3 3 56 4 4 33 5 5 7 6 6 40 7 7 39 8 8 21 9 9 54 10 10 53 11 11 8 12 12 41 13 13 40 7 14 22 14 15 55 15 16 54 10 17 9 16 18 42 17 19 41 13 20 23 18 21 56 4 22 55 15 23 10 1 24 43 19 25 42 17 26 24 20 27 57 21 28 56 4 29 11 22 30 44 23 31 43 19 32 25 24 33 58 25 34 57 21 35 12 26 36 45 27 37 44 23 38 26 28 39 59 29 40 58 25 41 13 30 42 46 31 43 45 27 44 0 32 45 32 33 46 33 5 47 27 34 48 60 35 49 59 29 50 14 36 51 47 37 52 46 31 53 1 38 54 34 39 55 32 33 56 28 40 57 61 41 58 60 35 59 15 42 60 48 3 61 47 37 62 2 2 63 35 43 64 34 39 65 29 44 66 62 45 67 61 41 68 16 46 69 49 47 70 48 3 71 3 48 72 36 49 73 35 43 74 30 50 75 63 51 76 62 45 77 17 52 78 50 53 79 49 47 80 4 54 81 37 55 82 36 49 83 31 56 84 33 5 85 63 51 86 18 0 87 51 57 88 50 53 89 5 58 90 38 59 91 37 55 92 19 60 93 52 61 94 51 57 95 6 62 96 39 8 97 38 59 98 20 63 99 53 11 100 52 61 101 90 64 102 82 65 103 74 66 104 112 67 105 120 68 106 97 69 107 85 70 108 118 71 109 117 72 110 72 73 111 105 74 112 104 75 113 86 76 114 119 77 115 118 71 116 73 78 117 106 79 118 105 74 119 87 80 120 120 68 121 119 77 122 74 66 123 107 81 124 106 79 125 88 82 126 121 83 127 120 68 128 75 84 129 108 85 130 107 81 131 89 86 132 122 87 133 121 83 134 76 88 135 109 89 136 108 85 137 90 64 138 123 90 139 122 87 140 77 91 141 110 92 142 109 89 143 64 93 144 96 94 145 97 69 146 91 95 147 124 96 148 123 90 149 78 97 150 111 98 151 110 92 152 65 99 153 98 100 154 96 94 155 92 101 156 125 102 157 124 96 158 79 103 159 112 67 160 111 98 161 66 104 162 99 105 163 98 100 164 93 106 165 126 107 166 125 102 167 80 108 168 113 109 169 112 67 170 67 110 171 100 111 172 99 105 173 94 112 174 127 113 175 126 107 176 81 114 177 114 115 178 113 109 179 68 116 180 101 117 181 100 111 182 95 118 183 97 69 184 127 113 185 82 65 186 115 119 187 114 115 188 69 120 189 102 121 190 101 117 191 83 122 192 116 123 193 115 119 194 70 124 195 103 125 196 102 121 197 84 126 198 117 72 199 116 123 200 71 127 201 104 75 202 103 125 203 2 2 204 1 38 205 0 32 206 0 32 207 31 56 208 2 2 209 31 56 210 30 50 211 2 2 212 30 50 213 29 44 214 28 40 215 28 40 216 27 34 217 26 28 218 26 28 219 25 24 220 24 20 221 24 20 222 23 18 223 26 28 224 23 18 225 22 14 226 26 28 227 22 14 228 21 9 229 20 63 230 20 63 231 19 60 232 18 0 233 18 0 234 17 52 235 14 36 236 17 52 237 16 46 238 14 36 239 16 46 240 15 42 241 14 36 242 14 36 243 13 30 244 12 26 245 12 26 246 11 22 247 10 1 248 10 1 249 9 16 250 6 62 251 9 16 252 8 12 253 6 62 254 8 12 255 7 6 256 6 62 257 6 62 258 5 58 259 4 54 260 4 54 261 3 48 262 2 2 263 30 50 264 28 40 265 2 2 266 28 40 267 26 28 268 2 2 269 22 14 270 20 63 271 26 28 272 20 63 273 18 0 274 26 28 275 14 36 276 12 26 277 18 0 278 12 26 279 10 1 280 18 0 281 6 62 282 4 54 283 10 1 284 4 54 285 2 2 286 10 1 287 2 2 288 26 28 289 18 0 290 33 5 291 32 33 292 36 49 293 32 33 294 34 39 295 36 49 296 34 39 297 35 43 298 36 49 299 36 49 300 37 55 301 38 59 302 38 59 303 39 8 304 36 49 305 39 8 306 40 7 307 36 49 308 40 7 309 41 13 310 44 23 311 41 13 312 42 17 313 44 23 314 42 17 315 43 19 316 44 23 317 44 23 318 45 27 319 46 31 320 46 31 321 47 37 322 44 23 323 47 37 324 48 3 325 44 23 326 48 3 327 49 47 328 52 61 329 49 47 330 50 53 331 52 61 332 50 53 333 51 57 334 52 61 335 52 61 336 53 11 337 54 10 338 54 10 339 55 15 340 52 61 341 55 15 342 56 4 343 52 61 344 56 4 345 57 21 346 60 35 347 57 21 348 58 25 349 60 35 350 58 25 351 59 29 352 60 35 353 60 35 354 61 41 355 62 45 356 62 45 357 63 51 358 60 35 359 63 51 360 33 5 361 60 35 362 33 5 363 36 49 364 40 7 365 40 7 366 44 23 367 48 3 368 48 3 369 52 61 370 56 4 371 56 4 372 60 35 373 33 5 374 33 5 375 40 7 376 48 3 377 7 6 378 8 12 379 40 7 380 21 9 381 22 14 382 54 10 383 8 12 384 9 16 385 41 13 386 22 14 387 23 18 388 55 15 389 9 16 390 10 1 391 42 17 392 23 18 393 24 20 394 56 4 395 10 1 396 11 22 397 43 19 398 24 20 399 25 24 400 57 21 401 11 22 402 12 26 403 44 23 404 25 24 405 26 28 406 58 25 407 12 26 408 13 30 409 45 27 410 26 28 411 27 34 412 59 29 413 13 30 414 14 36 415 46 31 416 0 32 417 1 38 418 32 33 419 27 34 420 28 40 421 60 35 422 14 36 423 15 42 424 47 37 425 1 38 426 2 2 427 34 39 428 28 40 429 29 44 430 61 41 431 15 42 432 16 46 433 48 3 434 2 2 435 3 48 436 35 43 437 29 44 438 30 50 439 62 45 440 16 46 441 17 52 442 49 47 443 3 48 444 4 54 445 36 49 446 30 50 447 31 56 448 63 51 449 17 52 450 18 0 451 50 53 452 4 54 453 5 58 454 37 55 455 31 56 456 0 32 457 33 5 458 18 0 459 19 60 460 51 57 461 5 58 462 6 62 463 38 59 464 19 60 465 20 63 466 52 61 467 6 62 468 7 6 469 39 8 470 20 63 471 21 9 472 53 11 473 66 104 474 65 99 475 64 93 476 64 93 477 95 118 478 94 112 479 94 112 480 93 106 481 90 64 482 93 106 483 92 101 484 90 64 485 92 101 486 91 95 487 90 64 488 90 64 489 89 86 490 88 82 491 88 82 492 87 80 493 90 64 494 87 80 495 86 76 496 90 64 497 86 76 498 85 70 499 84 126 500 84 126 501 83 122 502 82 65 503 82 65 504 81 114 505 78 97 506 81 114 507 80 108 508 78 97 509 80 108 510 79 103 511 78 97 512 78 97 513 77 91 514 76 88 515 76 88 516 75 84 517 74 66 518 74 66 519 73 78 520 72 73 521 72 73 522 71 127 523 74 66 524 71 127 525 70 124 526 74 66 527 70 124 528 69 120 529 68 116 530 68 116 531 67 110 532 66 104 533 66 104 534 64 93 535 90 64 536 64 93 537 94 112 538 90 64 539 86 76 540 84 126 541 90 64 542 84 126 543 82 65 544 90 64 545 78 97 546 76 88 547 82 65 548 76 88 549 74 66 550 82 65 551 70 124 552 68 116 553 66 104 554 74 66 555 70 124 556 66 104 557 66 104 558 90 64 559 74 66 560 97 69 561 96 94 562 100 111 563 96 94 564 98 100 565 100 111 566 98 100 567 99 105 568 100 111 569 100 111 570 101 117 571 102 121 572 102 121 573 103 125 574 104 75 575 104 75 576 105 74 577 108 85 578 105 74 579 106 79 580 108 85 581 106 79 582 107 81 583 108 85 584 108 85 585 109 89 586 110 92 587 110 92 588 111 98 589 108 85 590 111 98 591 112 67 592 108 85 593 112 67 594 113 109 595 116 123 596 113 109 597 114 115 598 116 123 599 114 115 600 115 119 601 116 123 602 116 123 603 117 72 604 118 71 605 118 71 606 119 77 607 116 123 608 119 77 609 120 68 610 116 123 611 120 68 612 121 83 613 122 87 614 122 87 615 123 90 616 120 68 617 123 90 618 124 96 619 120 68 620 124 96 621 125 102 622 126 107 623 126 107 624 127 113 625 124 96 626 127 113 627 97 69 628 124 96 629 100 111 630 102 121 631 97 69 632 102 121 633 104 75 634 97 69 635 104 75 636 108 85 637 112 67 638 112 67 639 116 123 640 120 68 641 120 68 642 124 96 643 97 69 644 97 69 645 104 75 646 112 67 647 85 70 648 86 76 649 118 71 650 72 73 651 73 78 652 105 74 653 86 76 654 87 80 655 119 77 656 73 78 657 74 66 658 106 79 659 87 80 660 88 82 661 120 68 662 74 66 663 75 84 664 107 81 665 88 82 666 89 86 667 121 83 668 75 84 669 76 88 670 108 85 671 89 86 672 90 64 673 122 87 674 76 88 675 77 91 676 109 89 677 90 64 678 91 95 679 123 90 680 77 91 681 78 97 682 110 92 683 64 93 684 65 99 685 96 94 686 91 95 687 92 101 688 124 96 689 78 97 690 79 103 691 111 98 692 65 99 693 66 104 694 98 100 695 92 101 696 93 106 697 125 102 698 79 103 699 80 108 700 112 67 701 66 104 702 67 110 703 99 105 704 93 106 705 94 112 706 126 107 707 80 108 708 81 114 709 113 109 710 67 110 711 68 116 712 100 111 713 94 112 714 95 118 715 127 113 716 81 114 717 82 65 718 114 115 719 68 116 720 69 120 721 101 117 722 95 118 723 64 93 724 97 69 725 82 65 726 83 122 727 115 119 728 69 120 729 70 124 730 102 121 731 83 122 732 84 126 733 116 123 734 70 124 735 71 127 736 103 125 737 84 126 738 85 70 739 117 72 740 71 127 741 72 73 742 104 75 743</p>
        </triangles>
      </mesh>
    </geometry>
  </library_geometries>
  <library_visual_scenes>
    <visual_scene id="Scene" name="Scene">
      <node id="tmp_export_Circle_001" name="tmp_export_Circle.001" type="NODE">
        <matrix sid="transform">1 0 0 0 0 1 0 0 0 0 1 0 0 0 0 1</matrix>
        <instance_geometry url="#Circle_001-mesh" name="tmp_export_Circle.001">
          <bind_material>
            <technique_common>
              <instance_material symbol="Material_009-material" target="#Material_009-material">
                <bind_vertex_input semantic="UVMap" input_semantic="TEXCOORD" input_set="0"/>
              </instance_material>
            </technique_common>
          </bind_material>
        </instance_geometry>
      </node>
    </visual_scene>
  </library_visual_scenes>
  <scene>
    <instance_visual_scene url="#Scene"/>
  </scene>
</COLLADA>