<?xml version="1.0" encoding="utf-8"?>
<COLLADA xmlns="http://www.collada.org/2005/11/COLLADASchema" version="1.4.1" xmlns:xsi="http://www.w3.org/2001/XMLSchema-instance">
  <asset>
    <contributor>
      <author>Blender User</author>
      <authoring_tool>Blender 4.2.18 LTS commit date:2026-02-16, commit time:13:37, hash:d71e3422e438</authoring_tool>
    </contributor>
    <created>2026-04-03T18:41:27</created>
    <modified>2026-04-03T18:41:27</modified>
    <unit name="meter" meter="1"/>
    <up_axis>Z_UP</up_axis>
  </asset>
  <library_effects>
    <effect id="Material_007-effect">
      <profile_COMMON>
        <technique sid="common">
          <lambert>
            <emission>
              <color sid="emission">0 0 0 1</color>
            </emission>
            <diffuse>
              <color sid="diffuse">0.5775767 0.577581 0.5775807 1</color>
            </diffuse>
            <index_of_refraction>
              <float sid="ior">1.5</float>
            </index_of_refraction>
          </lambert>
        </technique>
      </profile_COMMON>
    </effect>
  </library_effects>
  <library_images/>
  <library_materials>
    <material id="Material_007-material" name="Material.007">
      <instance_effect url="#Material_007-effect"/>
    </material>
  </library_materials>
  <library_geometries>
    <geometry id="Circle_004-mesh" name="Circle.004">
      <mesh>
        <source id="Circle_004-mesh-positions">
          <float_array id="Circle_004-mesh-positions-array" count="216">0 -1.523228 -0.0999999 -0.1950903 -1.542442 -0.0999999 -0.3826835 -1.599348 -0.0999999 -0.5555703 -1.691758 -0.0999999 -0.7071068 -1.816121 -0.0999999 -0.8314696 -1.967657 -0.0999999 -0.9238795 -2.140544 -0.0999999 -0.9807853 -2.328137 -0.0999999 -1 -2.523228 -0.0999999 -0.9807853 -2.718318 -0.0999999 -0.9238795 -2.905911 -0.0999999 -0.8314696 -3.078798 -0.0999999 -0.7071068 -3.230334 -0.0999999 -0.5555703 -3.354697 -0.0999999 -0.3826835 -3.447107 -0.0999999 -0.1950903 -3.504013 -0.0999999 0 -3.523228 -0.0999999 0.1950903 -3.504013 -0.0999999 0.3826835 -3.447107 -0.0999999 0.5555703 -3.354697 -0.0999999 0.7071068 -3.230334 -0.0999999 0.8314696 -3.078798 -0.0999999 0.9238795 -2.905911 -0.0999999 0.9807853 -2.718318 -0.0999999 1 -2.523228 -0.0999999 0.9807853 -2.328137 -0.0999999 0.9238795 -2.140544 -0.0999999 0.8314696 -1.967657 -0.0999999 0.7071068 -1.816121 -0.0999999 0.5555703 -1.691758 -0.0999999 0.3826835 -1.599348 -0.0999999 0.1950903 -1.542442 -0.0999999 -0.1950903 -1.542442 0.0999999 0 -1.523228 0.0999999 -0.3826835 -1.599348 0.0999999 -0.5555703 -1.691758 0.0999999 -0.7071068 -1.816121 0.0999999 -0.8314696 -1.967657 0.0999999 -0.9238795 -2.140544 0.0999999 -0.9807853 -2.328137 0.0999999 -1 -2.523228 0.0999999 -0.9807853 -2.718318 0.0999999 -0.9238795 -2.905911 0.0999999 -0.8314696 -3.078798 0.0999999 -0.7071068 -3.230334 0.0999999 -0.5555703 -3.354697 0.0999999 -0.3826835 -3.447107 0.0999999 -0.1950903 -3.504013 0.0999999 0 -3.523228 0.0999999 0.1950903 -3.504013 0.0999999 0.3826835 -3.447107 0.0999999 0.5555703 -3.354697 0.0999999 0.7071068 -3.230334 0.0999999 0.8314696 -3.078798 0.0999999 0.9238795 -2.905911 0.0999999 0.9807853 -2.718318 0.0999999 1 -2.523228 0.0999999 0.9807853 -2.328137 0.0999999 0.9238795 -2.140544 0.0999999 0.8314696 -1.967657 0.0999999 0.7071068 -1.816121 0.0999999 0.5555703 -1.691758 0.0999999 0.3826835 -1.599348 0.0999999 0.1950903 -1.542442 0.0999999 -1 -2.523228 -0.0333333 -1 -2.523228 0.0333333 -1 5.476772 -0.0333333 -1 5.476772 0.0333333 1 -2.523228 -0.0333333 1 -2.523228 0.0333333 1 5.476772 -0.0333333 1 5.476772 0.0333333</float_array>
          <technique_common>
            <accessor source="#Circle_004-mesh-positions-array" count="72" stride="3">
              <param name="X" type="float"/>
              <param name="Y" type="float"/>
              <param name="Z" type="float"/>
            </accessor>
          </technique_common>
        </source>
        <source id="Circle_004-mesh-normals">
          <float_array id="Circle_004-mesh-normals-array" count="210">0.6725019 0.2785617 -0.6856709 0.2785601 -0.6724973 -0.6856762 -0.6725077 -0.2785642 -0.6856642 -2.03492e-6 -0.727911 0.6856716 0.7279185 -2.02952e-6 0.6856638 2.02798e-6 0.7279112 0.6856714 -0.4044002 0.6052243 -0.6856851 -0.5147132 0.5147162 0.6856658 -0.4043968 0.6052266 0.6856851 0.2785597 0.6725077 -0.6856661 0.1420068 0.7139058 0.6856913 0.2785554 0.6724866 0.6856886 0.1420066 -0.7139059 -0.6856913 0.2785517 -0.6724881 0.6856885 0.1420025 -0.7139067 0.6856913 -0.514701 0.5146982 -0.6856885 -0.6052194 0.4043972 0.6856912 0.1420028 0.7139066 -0.6856913 0.404397 -0.6052265 0.6856852 -0.6052217 0.4043937 -0.6856912 -0.6724866 0.2785554 0.6856886 0.4044005 -0.6052241 -0.6856852 0.5147107 -0.5147135 0.6856697 -0.6725079 0.2785594 -0.685666 -0.7139117 0.1420079 0.685685 0.5147011 -0.514698 -0.6856885 0.6052241 -0.4044006 0.6856851 -0.7139126 0.1420038 -0.685685 -0.7279185 2.02952e-6 0.6856638 0.6052218 -0.4043936 -0.6856913 0.6724866 -0.2785555 0.6856886 -0.7278952 -2.02945e-6 -0.6856886 -0.7139068 -0.1420026 0.6856912 0.6725081 -0.2785596 -0.6856657 0.713906 -0.1420067 0.6856912 -0.713906 -0.1420067 -0.6856912 -0.6724882 -0.2785513 0.6856886 0.7139126 -0.1420038 -0.685685 -0.6052265 -0.404397 0.6856851 0.7278952 2.02945e-6 -0.6856885 0.7139126 0.1420038 0.685685 -0.6052194 -0.4043972 -0.6856913 -0.5147137 -0.5147106 0.6856697 0.713906 0.1420067 -0.6856912 0.6724883 0.2785513 0.6856886 -0.5146982 -0.514701 -0.6856885 -0.4044005 -0.6052241 0.6856852 0.6052217 0.4043937 0.6856912 -0.404397 -0.6052264 -0.6856852 -0.2785555 -0.6724865 0.6856885 -2.02772e-6 0.7278951 -0.6856886 -0.1420028 0.7139066 0.6856914 0.6052194 0.4043972 -0.6856912 0.5147161 0.5147133 0.6856658 -0.2785565 -0.6724995 -0.6856753 -0.1420066 -0.7139059 0.6856913 -0.142008 0.7139117 -0.685685 -0.2785516 0.6724881 0.6856886 0.5146981 0.5147011 -0.6856885 0.4044003 0.6052243 0.6856852 -0.1420026 -0.7139067 -0.6856912 -0.2785629 0.6725049 -0.6856675 0.4043968 0.6052266 -0.6856851 2.01909e-6 -0.7279117 -0.685671 -1 0 0 0 1 0 1 0 0 0 -1 0 0 0 -1 0 0 1</float_array>
          <technique_common>
            <accessor source="#Circle_004-mesh-normals-array" count="70" stride="3">
              <param name="X" type="float"/>
              <param name="Y" type="float"/>
              <param name="Z" type="float"/>
            </accessor>
          </technique_common>
        </source>
        <source id="Circle_004-mesh-map-0">
          <float_array id="Circle_004-mesh-map-0-array" count="816">0 0 0 0 0 0 0 0 0 0 0 0 0 0 0 0 0 0 0 0 0 0 0 0 0 0 0 0 0 0 0 0 0 0 0 0 0 0 0 0 0 0 0 0 0 0 0 0 0 0 0 0 0 0 0 0 0 0 0 0 0 0 0 0 0 0 0 0 0 0 0 0 0 0 0 0 0 0 0 0 0 0 0 0 0 0 0 0 0 0 0 0 0 0 0 0 0 0 0 0 0 0 0 0 0 0 0 0 0 0 0 0 0 0 0 0 0 0 0 0 0 0 0 0 0 0 0 0 0 0 0 0 0 0 0 0 0 0 0 0 0 0 0 0 0 0 0 0 0 0 0 0 0 0 0 0 0 0 0 0 0 0 0 0 0 0 0 0 0 0 0 0 0 0 0 0 0 0 0 0 0 0 0 0 0 0 0 0 0 0 0 0 0 0 0 0 0 0 0 0 0 0 0 0 0.375 0 0.625 0.25 0.375 0.25 0.375 0.25 0.625 0.5 0.375 0.5 0.375 0.5 0.625 0.75 0.375 0.75 0.375 0.75 0.625 1 0.375 1 0.125 0.5 0.375 0.75 0.125 0.75 0.625 0.5 0.875 0.75 0.625 0.75 0 0 0 0 0 0 0 0 0 0 0 0 0 0 0 0 0 0 0 0 0 0 0 0 0 0 0 0 0 0 0 0 0 0 0 0 0 0 0 0 0 0 0 0 0 0 0 0 0 0 0 0 0 0 0 0 0 0 0 0 0 0 0 0 0 0 0 0 0 0 0 0 0 0 0 0 0 0 0 0 0 0 0 0 0 0 0 0 0 0 0 0 0 0 0 0 0 0 0 0 0 0 0 0 0 0 0 0 0 0 0 0 0 0 0 0 0 0 0 0 0 0 0 0 0 0 0 0 0 0 0 0 0 0 0 0 0 0 0 0 0 0 0 0 0 0 0 0 0 0 0 0 0 0 0 0 0 0 0 0 0 0 0 0 0 0 0 0 0 0 0 0 0 0 0 0 0 0 0 0 0 0 0 0 0 0 0 0 0 0 0 0 0 0 0 0 0 0 0 0 0 0 0 0 0 0 0 0 0 0 0 0 0 0 0 0 0 0 0 0 0 0 0 0 0 0 0 0 0 0 0 0 0 0 0 0 0 0 0 0 0 0 0 0 0 0 0 0 0 0 0 0 0 0 0 0 0 0 0 0 0 0 0 0 0 0 0 0 0 0 0 0 0 0 0 0 0 0 0 0 0 0 0 0 0 0 0 0 0 0 0 0 0 0 0 0 0 0 0 0 0 0 0 0 0 0 0 0 0 0 0 0 0 0 0 0 0 0 0 0 0 0 0 0 0 0 0 0 0 0 0 0 0 0 0 0 0 0 0 0 0 0 0 0 0 0 0 0 0 0 0 0 0 0 0 0 0 0 0 0 0 0 0 0 0 0 0 0 0 0 0 0 0 0 0 0 0 0 0 0 0 0 0 0 0 0 0 0 0 0 0 0 0 0 0 0 0 0 0 0 0 0 0 0 0 0 0 0 0 0 0 0 0 0 0 0 0 0 0 0 0 0 0 0 0 0 0 0 0 0 0 0 0 0 0 0 0 0 0 0 0 0 0 0 0 0 0 0 0 0 0 0 0 0 0 0 0 0 0 0 0 0 0 0 0 0 0 0 0 0 0 0 0 0 0 0 0 0 0 0 0 0 0 0 0 0 0 0 0 0 0 0 0 0 0 0 0 0 0 0 0 0 0 0 0 0 0 0 0 0 0 0 0 0 0 0 0 0 0 0 0 0 0 0 0 0 0 0 0 0 0 0 0 0 0 0 0 0 0 0 0.375 0 0.625 0 0.625 0.25 0.375 0.25 0.625 0.25 0.625 0.5 0.375 0.5 0.625 0.5 0.625 0.75 0.375 0.75 0.625 0.75 0.625 1 0.125 0.5 0.375 0.5 0.375 0.75 0.625 0.5 0.875 0.5 0.875 0.75</float_array>
          <technique_common>
            <accessor source="#Circle_004-mesh-map-0-array" count="408" stride="2">
              <param name="S" type="float"/>
              <param name="T" type="float"/>
            </accessor>
          </technique_common>
        </source>
        <vertices id="Circle_004-mesh-vertices">
          <input semantic="POSITION" source="#Circle_004-mesh-positions"/>
        </vertices>
        <triangles material="Material_007-material" count="136">
          <input semantic="VERTEX" source="#Circle_004-mesh-vertices" offset="0"/>
          <input semantic="NORMAL" source="#Circle_004-mesh-normals" offset="1"/>
          <input semantic="TEXCOORD" source="#Circle_004-mesh-map-0" offset="2" set="0"/>
          <p>26 0 0 18 1 1 10 2 2 48 3 3 56 4 4 33 5 5 3 6 6 36 7 7 35 8 8 30 9 9 63 10 10 62 11 11 17 12 12 50 13 13 49 14 14 4 15 15 37 16 16 36 7 17 31 17 18 33 5 19 63 10 20 18 1 21 51 18 22 50 13 23 5 19 24 38 20 25 37 16 26 19 21 27 52 22 28 51 18 29 6 23 30 39 24 31 38 20 32 20 25 33 53 26 34 52 22 35 7 27 36 40 28 37 39 24 38 21 29 39 54 30 40 53 26 41 8 31 42 41 32 43 40 28 44 22 33 45 55 34 46 54 30 47 9 35 48 42 36 49 41 32 50 23 37 51 56 4 52 55 34 53 10 2 54 43 38 55 42 36 56 24 39 57 57 40 58 56 4 59 11 41 60 44 42 61 43 38 62 25 43 63 58 44 64 57 40 65 12 45 66 45 46 67 44 42 68 26 0 69 59 47 70 58 44 71 13 48 72 46 49 73 45 46 74 0 50 75 32 51 76 33 5 77 27 52 78 60 53 79 59 47 80 14 54 81 47 55 82 46 49 83 1 56 84 34 57 85 32 51 86 28 58 87 61 59 88 60 53 89 15 60 90 48 3 91 47 55 92 2 61 93 35 8 94 34 57 95 29 62 96 62 11 97 61 59 98 16 63 99 49 14 100 48 3 101 64 64 102 67 64 103 66 64 104 66 65 105 71 65 106 70 65 107 70 66 108 69 66 109 68 66 110 68 67 111 65 67 112 64 67 113 66 68 114 68 68 115 64 68 116 71 69 117 65 69 118 69 69 119 2 61 120 1 56 121 30 9 122 1 56 123 0 50 124 30 9 125 0 50 126 31 17 127 30 9 128 30 9 129 29 62 130 26 0 131 29 62 132 28 58 133 26 0 134 28 58 135 27 52 136 26 0 137 26 0 138 25 43 139 24 39 140 24 39 141 23 37 142 26 0 143 23 37 144 22 33 145 26 0 146 22 33 147 21 29 148 20 25 149 20 25 150 19 21 151 22 33 152 19 21 153 18 1 154 22 33 155 18 1 156 17 12 157 16 63 158 16 63 159 15 60 160 14 54 161 14 54 162 13 48 163 10 2 164 13 48 165 12 45 166 10 2 167 12 45 168 11 41 169 10 2 170 10 2 171 9 35 172 8 31 173 8 31 174 7 27 175 10 2 176 7 27 177 6 23 178 10 2 179 6 23 180 5 19 181 4 15 182 4 15 183 3 6 184 6 23 185 3 6 186 2 61 187 6 23 188 18 1 189 16 63 190 10 2 191 16 63 192 14 54 193 10 2 194 2 61 195 30 9 196 26 0 197 26 0 198 22 33 199 18 1 200 10 2 201 6 23 202 2 61 203 2 61 204 26 0 205 10 2 206 33 5 207 32 51 208 34 57 209 34 57 210 35 8 211 33 5 212 35 8 213 36 7 214 33 5 215 36 7 216 37 16 217 38 20 218 38 20 219 39 24 220 36 7 221 39 24 222 40 28 223 36 7 224 40 28 225 41 32 226 42 36 227 42 36 228 43 38 229 40 28 230 43 38 231 44 42 232 40 28 233 44 42 234 45 46 235 48 3 236 45 46 237 46 49 238 48 3 239 46 49 240 47 55 241 48 3 242 48 3 243 49 14 244 50 13 245 50 13 246 51 18 247 48 3 248 51 18 249 52 22 250 48 3 251 52 22 252 53 26 253 56 4 254 53 26 255 54 30 256 56 4 257 54 30 258 55 34 259 56 4 260 56 4 261 57 40 262 60 53 263 57 40 264 58 44 265 60 53 266 58 44 267 59 47 268 60 53 269 60 53 270 61 59 271 33 5 272 61 59 273 62 11 274 33 5 275 62 11 276 63 10 277 33 5 278 33 5 279 36 7 280 40 28 281 40 28 282 44 42 283 48 3 284 48 3 285 52 22 286 56 4 287 56 4 288 60 53 289 33 5 290 33 5 291 40 28 292 48 3 293 3 6 294 4 15 295 36 7 296 30 9 297 31 17 298 63 10 299 17 12 300 18 1 301 50 13 302 4 15 303 5 19 304 37 16 305 31 17 306 0 50 307 33 5 308 18 1 309 19 21 310 51 18 311 5 19 312 6 23 313 38 20 314 19 21 315 20 25 316 52 22 317 6 23 318 7 27 319 39 24 320 20 25 321 21 29 322 53 26 323 7 27 324 8 31 325 40 28 326 21 29 327 22 33 328 54 30 329 8 31 330 9 35 331 41 32 332 22 33 333 23 37 334 55 34 335 9 35 336 10 2 337 42 36 338 23 37 339 24 39 340 56 4 341 10 2 342 11 41 343 43 38 344 24 39 345 25 43 346 57 40 347 11 41 348 12 45 349 44 42 350 25 43 351 26 0 352 58 44 353 12 45 354 13 48 355 45 46 356 26 0 357 27 52 358 59 47 359 13 48 360 14 54 361 46 49 362 0 50 363 1 56 364 32 51 365 27 52 366 28 58 367 60 53 368 14 54 369 15 60 370 47 55 371 1 56 372 2 61 373 34 57 374 28 58 375 29 62 376 61 59 377 15 60 378 16 63 379 48 3 380 2 61 381 3 6 382 35 8 383 29 62 384 30 9 385 62 11 386 16 63 387 17 12 388 49 14 389 64 64 390 65 64 391 67 64 392 66 65 393 67 65 394 71 65 395 70 66 396 71 66 397 69 66 398 68 67 399 69 67 400 65 67 401 66 68 402 70 68 403 68 68 404 71 69 405 67 69 406 65 69 407</p>
        </triangles>
      </mesh>
    </geometry>
  </library_geometries>
  <library_visual_scenes>
    <visual_scene id="Scene" name="Scene">
      <node id="tmp_export_Circle_004" name="tmp_export_Circle.004" type="NODE">
        <matrix sid="transform">1 0 0 0 0 1 0 0 0 0 1 0 0 0 0 1</matrix>
        <instance_geometry url="#Circle_004-mesh" name="tmp_export_Circle.004">
          <bind_material>
            <technique_common>
              <instance_material symbol="Material_007-material" target="#Material_007-material">
                <bind_vertex_input semantic="UVMap" input_semantic="TEXCOORD" input_set="0"/>
              </instance_material>
            </technique_common>
          </bind_material>
        </instance_geometry>
      </node>
    </visual_scene>
  </library_visual_scenes>
  <scene>
    <instance_visual_scene url="#Scene"/>
  </scene>
</COLLADA>