<?xml version="1.0" encoding="utf-8"?>
<COLLADA xmlns="http://www.collada.org/2005/11/COLLADASchema" version="1.4.1" xmlns:xsi="http://www.w3.org/2001/XMLSchema-instance">
  <asset>
    <contributor>
      <author>Blender User</author>
      <authoring_tool>Blender 4.2.18 LTS commit date:2026-02-16, commit time:13:37, hash:d71e3422e438</authoring_tool>
    </contributor>
    <created>2026-04-03T18:41:27</created>
    <modified>2026-04-03T18:41:27</modified>
    <unit name="meter" meter="1"/>
    <up_axis>Z_UP</up_axis>
  </asset>
  <library_effects>
    <effect id="Material_005-effect">
      <profile_COMMON>
        <technique sid="common">
          <lambert>
            <emission>
              <color sid="emission">0 0 0 1</color>
            </emission>
            <diffuse>
              <color sid="diffuse">0.287439 0.2422813 0.2622508 1</color>
            </diffuse>
            <index_of_refraction>
              <float sid="ior">1.5</float>
            </index_of_refraction>
          </lambert>
        </technique>
      </profile_COMMON>
    </effect>
  </library_effects>
  <library_images/>
  <library_materials>
    <material id="Material_005-material" name="Material.005">
      <instance_effect url="#Material_005-effect"/>
    </material>
  </library_materials>
  <library_geometries>
    <geometry id="Circle_013-mesh" name="Circle.013">
      <mesh>
        <source id="Circle_013-mesh-positions">
          <float_array id="Circle_013-mesh-positions-array" count="408">0 1 0.4946465 -0.1950902 0.9807853 0.4946465 -0.3826834 0.9238795 0.4946465 -0.5555702 0.8314696 0.4946465 -0.7071067 0.7071068 0.4946465 -0.8314695 0.5555703 0.4946465 -0.9238795 0.3826835 0.4946465 -0.9807852 0.1950903 0.4946465 -1 0 0.4946465 -0.9807852 -0.1950903 0.4946465 -0.9238795 -0.3826835 0.4946465 -0.8314695 -0.5555703 0.4946465 -0.7071067 -0.7071068 0.4946465 -0.5555702 -0.8314696 0.4946465 -0.3826834 -0.9238795 0.4946465 -0.1950902 -0.9807853 0.4946465 0 -1 0.4946465 0.1950903 -0.9807853 0.4946465 0.3826835 -0.9238795 0.4946465 0.5555703 -0.8314696 0.4946465 0.7071068 -0.7071068 0.4946465 0.8314697 -0.5555703 0.4946465 0.9238796 -0.3826835 0.4946465 0.9807853 -0.1950903 0.4946465 1 0 0.4946465 0.9807853 0.1950903 0.4946465 0.9238796 0.3826835 0.4946465 0.8314697 0.5555703 0.4946465 0.7071068 0.7071068 0.4946465 0.5555703 0.8314696 0.4946465 0.3826835 0.9238795 0.4946465 0.1950903 0.9807853 0.4946465 -0.1950902 0.9807853 0.6946463 0 1 0.6946463 -0.3826834 0.9238795 0.6946463 -0.5555702 0.8314696 0.6946463 -0.7071067 0.7071068 0.6946463 -0.8314695 0.5555703 0.6946463 -0.9238795 0.3826835 0.6946463 -0.9807852 0.1950903 0.6946463 -1 0 0.6946463 -0.9807852 -0.1950903 0.6946463 -0.9238795 -0.3826835 0.6946463 -0.8314695 -0.5555703 0.6946463 -0.7071067 -0.7071068 0.6946463 -0.5555702 -0.8314696 0.6946463 -0.3826834 -0.9238795 0.6946463 -0.1950902 -0.9807853 0.6946463 0 -1 0.6946463 0.1950903 -0.9807853 0.6946463 0.3826835 -0.9238795 0.6946463 0.5555703 -0.8314696 0.6946463 0.7071068 -0.7071068 0.6946463 0.8314697 -0.5555703 0.6946463 0.9238796 -0.3826835 0.6946463 0.9807853 -0.1950903 0.6946463 1 0 0.6946463 0.9807853 0.1950903 0.6946463 0.9238796 0.3826835 0.6946463 0.8314697 0.5555703 0.6946463 0.7071068 0.7071068 0.6946463 0.5555703 0.8314696 0.6946463 0.3826835 0.9238795 0.6946463 0.1950903 0.9807853 0.6946463 0 0.8571428 0.6946463 -0.1672202 0.840673 0.6946463 -0.3280143 0.7918967 0.6946463 -0.476203 0.7126882 0.6946463 -0.6060914 0.6060915 0.6946463 -0.7126882 0.476203 0.6946463 -0.7918966 0.3280144 0.6946463 -0.840673 0.1672202 0.6946463 -0.8571428 0 0.6946463 -0.840673 -0.1672202 0.6946463 -0.7918966 -0.3280144 0.6946463 -0.7126882 -0.476203 0.6946463 -0.6060914 -0.6060915 0.6946463 -0.476203 -0.7126882 0.6946463 -0.3280143 -0.7918967 0.6946463 -0.1672202 -0.840673 0.6946463 0 -0.8571428 0.6946463 0.1672202 -0.840673 0.6946463 0.3280144 -0.7918967 0.6946463 0.476203 -0.7126882 0.6946463 0.6060916 -0.6060915 0.6946463 0.7126883 -0.476203 0.6946463 0.7918967 -0.3280144 0.6946463 0.8406731 -0.1672202 0.6946463 0.8571429 0 0.6946463 0.8406731 0.1672202 0.6946463 0.7918967 0.3280144 0.6946463 0.7126883 0.476203 0.6946463 0.6060916 0.6060915 0.6946463 0.476203 0.7126882 0.6946463 0.3280144 0.7918967 0.6946463 0.1672202 0.840673 0.6946463 -0.1672202 0.840673 0.8546462 0 0.8571428 0.8546462 -0.3280143 0.7918967 0.8546462 -0.476203 0.7126882 0.8546462 -0.6060914 0.6060915 0.8546462 -0.7126882 0.476203 0.8546462 -0.7918966 0.3280144 0.8546462 -0.840673 0.1672202 0.8546462 -0.8571428 0 0.8546462 -0.840673 -0.1672202 0.8546462 -0.7918966 -0.3280144 0.8546462 -0.7126882 -0.476203 0.8546462 -0.6060914 -0.6060915 0.8546462 -0.476203 -0.7126882 0.8546462 -0.3280143 -0.7918967 0.8546462 -0.1672202 -0.840673 0.8546462 0 -0.8571428 0.8546462 0.1672202 -0.840673 0.8546462 0.3280144 -0.7918967 0.8546462 0.476203 -0.7126882 0.8546462 0.6060916 -0.6060915 0.8546462 0.7126883 -0.476203 0.8546462 0.7918967 -0.3280144 0.8546462 0.8406731 -0.1672202 0.8546462 0.8571429 0 0.8546462 0.8406731 0.1672202 0.8546462 0.7918967 0.3280144 0.8546462 0.7126883 0.476203 0.8546462 0.6060916 0.6060915 0.8546462 0.476203 0.7126882 0.8546462 0.3280144 0.7918967 0.8546462 0.1672202 0.840673 0.8546462 -14.28571 -2.142857 -0.5053526 -14.28571 -2.142857 0.4946465 -14.28571 2.142857 -0.5053526 -14.28571 2.142857 0.4946465 14.28571 -2.142857 -0.5053526 14.28571 -2.142857 0.4946465 14.28571 2.142857 -0.5053526 14.28571 2.142857 0.4946465</float_array>
          <technique_common>
            <accessor source="#Circle_013-mesh-positions-array" count="136" stride="3">
              <param name="X" type="float"/>
              <param name="Y" type="float"/>
              <param name="Z" type="float"/>
            </accessor>
          </technique_common>
        </source>
        <source id="Circle_013-mesh-normals">
          <float_array id="Circle_013-mesh-normals-array" count="402">0.278571 -0.6725246 -0.6856449 -0.672503 -0.2785621 -0.6856698 -0.2785583 0.6724939 -0.6856801 2.00429e-6 0.7279139 0.6856687 -0.7279151 2.02604e-6 0.6856673 -2.02659e-6 -0.7279123 0.6856703 -0.4043972 0.6052194 -0.6856912 -0.5147152 0.5147181 0.6856629 -0.4043936 0.6052217 0.6856913 0.2785566 0.6725006 -0.6856743 0.1420068 0.7139058 0.6856914 0.2785567 0.6724907 0.6856839 0.1420071 -0.7139058 -0.6856914 0.2785578 -0.6725038 0.6856706 0.1420028 -0.7139066 0.6856914 -0.514713 0.5147098 -0.6856708 -0.6052195 0.404397 0.6856912 0.1420031 0.7139065 -0.6856914 0.4043937 -0.6052217 0.6856913 -0.6052225 0.4043934 -0.6856907 -0.6724856 0.2785556 0.6856893 0.4043971 -0.6052194 -0.6856912 0.5147086 -0.5147115 0.6856728 -0.672503 0.2785576 -0.6856715 -0.713912 0.1420078 0.6856846 0.5147013 -0.514698 -0.6856884 0.6052194 -0.4043972 0.6856912 -0.7139066 0.1420027 -0.6856913 0.6052265 -0.4043971 -0.685685 0.6724903 -0.2785569 0.6856843 -0.7278952 -2.02945e-6 -0.6856886 -0.7139129 -0.1420037 0.6856846 0.6724997 -0.2785563 -0.6856753 0.7139059 -0.1420068 0.6856912 -0.7139117 -0.142008 -0.685685 -0.6724872 -0.2785518 0.6856894 0.713908 -0.1420025 -0.68569 0.7279179 -2.17176e-6 0.6856644 -0.6052217 -0.4043937 0.6856913 0.7279121 2.16827e-6 -0.6856706 0.713908 0.1420025 0.6856899 -0.6052204 -0.4043967 -0.6856907 -0.5147159 -0.5147129 0.6856663 0.7139059 0.1420068 -0.6856912 0.6724882 0.2785515 0.6856886 -0.5147098 -0.5147128 -0.6856709 -0.4044002 -0.6052244 0.685685 0.6724918 0.2785573 -0.6856827 0.6052266 0.4043971 0.685685 -0.4043936 -0.6052217 -0.6856913 -0.2785554 -0.6724866 0.6856886 -2.2376e-6 0.7278951 -0.6856886 -0.1420035 0.7139125 0.685685 0.6052203 0.4043968 -0.6856907 0.5147079 0.514705 0.6856783 -0.2785562 -0.6724996 -0.6856755 -0.1420068 -0.7139058 0.6856914 -0.142008 0.7139117 -0.685685 -0.2785513 0.6724881 0.6856886 0.5147008 0.5147041 -0.6856842 0.4043971 0.6052195 0.6856913 -0.142004 -0.7139124 -0.685685 0.4043937 0.6052217 -0.6856913 1.92538e-6 -0.7278951 -0.6856886 0.2785608 -0.6724999 -0.6856732 -0.6725094 -0.2785647 -0.6856623 -0.2785608 0.6724999 -0.6856732 0.5147098 0.514707 0.6856753 1.98445e-6 0.727929 0.6856525 -2.05701e-6 -0.7279183 0.6856639 -0.4043971 0.6052194 -0.6856913 -0.5147141 0.5147168 0.6856647 -0.4043937 0.6052217 0.6856913 0.2785602 0.672509 -0.6856646 0.1420066 0.7139057 0.6856915 0.2785567 0.6724904 0.6856843 0.1420071 -0.7139058 -0.6856914 0.2785577 -0.6725035 0.685671 0.1420029 -0.7139065 0.6856915 -0.514704 0.514701 -0.6856842 -0.6052216 0.4043961 0.6856898 0.1420029 0.7139065 -0.6856915 0.4043936 -0.6052217 0.6856914 -0.6052216 0.4043937 -0.6856914 -0.67249 0.2785568 0.6856846 0.404397 -0.6052194 -0.6856914 0.5147091 -0.5147114 0.6856725 -0.672509 0.2785601 -0.6856647 -0.7139076 0.1420063 0.6856896 0.5147041 -0.5147011 -0.685684 0.6052217 -0.4043961 0.6856898 -0.7139056 0.1420029 -0.6856924 -0.7279114 1.99481e-6 0.6856713 0.6052216 -0.4043936 -0.6856914 0.6724899 -0.2785569 0.6856848 -0.7278995 -2.02253e-6 -0.6856839 -0.7139065 -0.1420027 0.6856915 0.6725091 -0.2785601 -0.6856646 0.7139058 -0.1420066 0.6856914 -0.7139076 -0.1420063 -0.6856896 -0.6724914 -0.2785531 0.6856847 0.7139083 -0.1420026 -0.6856896 0.7279173 -1.81095e-6 0.6856651 -0.6052227 -0.4043933 0.6856907 0.7278995 1.79877e-6 -0.6856839 0.7139083 0.1420025 0.6856896 -0.6052193 -0.4043971 -0.6856914 -0.5147096 -0.5147069 0.6856756 0.7139049 0.1420068 -0.6856924 0.6724915 0.2785531 0.6856846 -0.5147013 -0.5147038 -0.6856842 -0.4043971 -0.6052194 0.6856914 0.6725093 0.2785647 -0.6856625 0.6052227 0.4043932 0.6856907 -0.4043938 -0.6052216 -0.6856914 -0.2785567 -0.6724904 0.6856843 -2.00865e-6 0.7278995 -0.6856839 -0.1420029 0.7139065 0.6856915 0.6052194 0.404397 -0.6856914 -0.2785601 -0.6725089 -0.6856647 -0.1420066 -0.7139057 0.6856915 -0.1420071 0.7139057 -0.6856914 -0.278553 0.6724919 0.6856843 0.5147013 0.514704 -0.685684 0.404397 0.6052194 0.6856914 -0.1420029 -0.7139065 -0.6856915 0.4043937 0.6052216 -0.6856914 2.00865e-6 -0.7278995 -0.6856839 -1 0 0 0 1 0 1 0 0 0 -1 0 0 0 -1 0 0 1</float_array>
          <technique_common>
            <accessor source="#Circle_013-mesh-normals-array" count="134" stride="3">
              <param name="X" type="float"/>
              <param name="Y" type="float"/>
              <param name="Z" type="float"/>
            </accessor>
          </technique_common>
        </source>
        <source id="Circle_013-mesh-map-0">
          <float_array id="Circle_013-mesh-map-0-array" count="1560">0 0 0 0 0 0 0 0 0 0 0 0 0 0 0 0 0 0 0 0 0 0 0 0 0 0 0 0 0 0 0 0 0 0 0 0 0 0 0 0 0 0 0 0 0 0 0 0 0 0 0 0 0 0 0 0 0 0 0 0 0 0 0 0 0 0 0 0 0 0 0 0 0 0 0 0 0 0 0 0 0 0 0 0 0 0 0 0 0 0 0 0 0 0 0 0 0 0 0 0 0 0 0 0 0 0 0 0 0 0 0 0 0 0 0 0 0 0 0 0 0 0 0 0 0 0 0 0 0 0 0 0 0 0 0 0 0 0 0 0 0 0 0 0 0 0 0 0 0 0 0 0 0 0 0 0 0 0 0 0 0 0 0 0 0 0 0 0 0 0 0 0 0 0 0 0 0 0 0 0 0 0 0 0 0 0 0 0 0 0 0 0 0 0 0 0 0 0 0 0 0 0 0 0 0 0 0 0 0 0 0 0 0 0 0 0 0 0 0 0 0 0 0 0 0 0 0 0 0 0 0 0 0 0 0 0 0 0 0 0 0 0 0 0 0 0 0 0 0 0 0 0 0 0 0 0 0 0 0 0 0 0 0 0 0 0 0 0 0 0 0 0 0 0 0 0 0 0 0 0 0 0 0 0 0 0 0 0 0 0 0 0 0 0 0 0 0 0 0 0 0 0 0 0 0 0 0 0 0 0 0 0 0 0 0 0 0 0 0 0 0 0 0 0 0 0 0 0 0 0 0 0 0 0 0 0 0 0 0 0 0 0 0 0 0 0 0 0 0 0 0 0 0 0 0 0 0 0 0 0 0 0 0 0 0 0 0 0 0 0 0 0 0 0 0 0 0 0 0 0 0 0 0 0 0 0 0 0 0 0 0 0 0 0 0 0 0 0 0 0 0 0 0 0 0 0 0 0 0.375 0 0.625 0.25 0.375 0.25 0.375 0.25 0.625 0.5 0.375 0.5 0.375 0.5 0.625 0.75 0.375 0.75 0.375 0.75 0.625 1 0.375 1 0.125 0.5 0.375 0.75 0.125 0.75 0.625 0.5 0.875 0.75 0.625 0.75 0 0 0 0 0 0 0 0 0 0 0 0 0 0 0 0 0 0 0 0 0 0 0 0 0 0 0 0 0 0 0 0 0 0 0 0 0 0 0 0 0 0 0 0 0 0 0 0 0 0 0 0 0 0 0 0 0 0 0 0 0 0 0 0 0 0 0 0 0 0 0 0 0 0 0 0 0 0 0 0 0 0 0 0 0 0 0 0 0 0 0 0 0 0 0 0 0 0 0 0 0 0 0 0 0 0 0 0 0 0 0 0 0 0 0 0 0 0 0 0 0 0 0 0 0 0 0 0 0 0 0 0 0 0 0 0 0 0 0 0 0 0 0 0 0 0 0 0 0 0 0 0 0 0 0 0 0 0 0 0 0 0 0 0 0 0 0 0 0 0 0 0 0 0 0 0 0 0 0 0 0 0 0 0 0 0 0 0 0 0 0 0 0 0 0 0 0 0 0 0 0 0 0 0 0 0 0 0 0 0 0 0 0 0 0 0 0 0 0 0 0 0 0 0 0 0 0 0 0 0 0 0 0 0 0 0 0 0 0 0 0 0 0 0 0 0 0 0 0 0 0 0 0 0 0 0 0 0 0 0 0 0 0 0 0 0 0 0 0 0 0 0 0 0 0 0 0 0 0 0 0 0 0 0 0 0 0 0 0 0 0 0 0 0 0 0 0 0 0 0 0 0 0 0 0 0 0 0 0 0 0 0 0 0 0 0 0 0 0 0 0 0 0 0 0 0 0 0 0 0 0 0 0 0 0 0 0 0 0 0 0 0 0 0 0 0 0 0 0 0 0 0 0 0 0 0 0 0 0 0 0 0 0 0 0 0 0 0 0 0 0 0 0 0 0 0 0 0 0 0 0 0 0 0 0 0 0 0 0 0 0 0 0 0 0 0 0 0 0 0 0 0 0 0 0 0 0 0 0 0 0 0 0 0 0 0 0 0 0 0 0 0 0 0 0 0 0 0 0 0 0 0 0 0 0 0 0 0 0 0 0 0 0 0 0 0 0 0 0 0 0 0 0 0 0 0 0 0 0 0 0 0 0 0 0 0 0 0 0 0 0 0 0 0 0 0 0 0 0 0 0 0 0 0 0 0 0 0 0 0 0 0 0 0 0 0 0 0 0 0 0 0 0 0 0 0 0 0 0 0 0 0 0 0 0 0 0 0 0 0 0 0 0 0 0 0 0 0 0 0 0 0 0 0 0 0 0 0 0 0 0 0 0 0 0 0 0 0 0 0 0 0 0 0 0 0 0 0 0 0 0 0 0 0 0 0 0 0 0 0 0 0 0 0 0 0 0 0 0 0 0 0 0 0 0 0 0 0 0 0 0 0 0 0 0 0 0 0 0 0 0 0 0 0 0 0 0 0 0 0 0 0 0 0 0 0 0 0 0 0 0 0 0 0 0 0 0 0 0 0 0 0 0 0 0 0 0 0 0 0 0 0 0 0 0 0 0 0 0 0 0 0 0 0 0 0 0 0 0 0 0 0 0 0 0 0 0 0 0 0 0 0 0 0 0 0 0 0 0 0 0 0 0 0 0 0 0 0 0 0 0 0 0 0 0 0 0 0 0 0 0 0 0 0 0 0 0 0 0 0 0 0 0 0 0 0 0 0 0 0 0 0 0 0 0 0 0 0 0 0 0 0 0 0 0 0 0 0 0 0 0 0 0 0 0 0 0 0 0 0 0 0 0 0 0 0 0 0 0 0 0 0 0 0 0 0 0 0 0 0 0 0 0 0 0 0 0 0 0 0 0 0 0 0 0 0 0 0 0 0 0 0 0 0 0 0 0 0 0 0 0 0 0 0 0 0 0 0 0 0 0 0 0 0 0 0 0 0 0 0 0 0 0 0 0 0 0 0 0 0 0 0 0 0 0 0 0 0 0 0 0 0 0 0 0 0 0 0 0 0 0 0 0 0 0 0 0 0 0 0 0 0 0 0 0 0 0 0 0 0 0 0 0 0 0 0 0 0 0 0 0 0 0 0 0 0 0 0 0 0 0 0 0 0 0 0 0 0 0 0 0 0 0 0 0 0 0 0 0 0 0 0 0 0 0 0 0 0 0 0 0 0 0 0 0 0 0 0 0 0 0 0 0 0 0 0 0 0 0 0 0 0 0 0 0 0 0 0 0 0 0 0 0 0 0 0 0 0 0 0 0 0 0 0 0 0 0 0 0 0 0 0 0 0 0 0 0 0 0 0 0 0 0 0 0 0 0 0 0 0 0 0 0 0 0 0 0 0 0 0 0 0 0 0 0 0 0 0 0 0 0 0 0 0 0 0 0 0 0 0 0 0 0 0 0 0 0 0 0 0 0 0 0 0 0 0 0 0 0 0 0 0 0 0 0 0 0 0 0 0 0 0 0 0 0 0 0 0 0 0 0 0 0 0 0 0 0 0 0 0 0 0 0 0 0 0 0 0 0 0 0.375 0 0.625 0 0.625 0.25 0.375 0.25 0.625 0.25 0.625 0.5 0.375 0.5 0.625 0.5 0.625 0.75 0.375 0.75 0.625 0.75 0.625 1 0.125 0.5 0.375 0.5 0.375 0.75 0.625 0.5 0.875 0.5 0.875 0.75</float_array>
          <technique_common>
            <accessor source="#Circle_013-mesh-map-0-array" count="780" stride="2">
              <param name="S" type="float"/>
              <param name="T" type="float"/>
            </accessor>
          </technique_common>
        </source>
        <vertices id="Circle_013-mesh-vertices">
          <input semantic="POSITION" source="#Circle_013-mesh-positions"/>
        </vertices>
        <triangles material="Material_005-material" count="260">
          <input semantic="VERTEX" source="#Circle_013-mesh-vertices" offset="0"/>
          <input semantic="NORMAL" source="#Circle_013-mesh-normals" offset="1"/>
          <input semantic="TEXCOORD" source="#Circle_013-mesh-map-0" offset="2" set="0"/>
          <p>18 0 0 10 1 1 2 2 2 33 3 3 40 4 4 48 5 5 3 6 6 36 7 7 35 8 8 30 9 9 63 10 10 62 11 11 17 12 12 50 13 13 49 14 14 4 15 15 37 16 16 36 7 17 31 17 18 33 3 19 63 10 20 18 0 21 51 18 22 50 13 23 5 19 24 38 20 25 37 16 26 19 21 27 52 22 28 51 18 29 6 23 30 39 24 31 38 20 32 20 25 33 53 26 34 52 22 35 7 27 36 40 4 37 39 24 38 21 28 39 54 29 40 53 26 41 8 30 42 41 31 43 40 4 44 22 32 45 55 33 46 54 29 47 9 34 48 42 35 49 41 31 50 23 36 51 56 37 52 55 33 53 10 1 54 43 38 55 42 35 56 24 39 57 57 40 58 56 37 59 11 41 60 44 42 61 43 38 62 25 43 63 58 44 64 57 40 65 12 45 66 45 46 67 44 42 68 26 47 69 59 48 70 58 44 71 13 49 72 46 50 73 45 46 74 0 51 75 32 52 76 33 3 77 27 53 78 60 54 79 59 48 80 14 55 81 47 56 82 46 50 83 1 57 84 34 58 85 32 52 86 28 59 87 61 60 88 60 54 89 15 61 90 48 5 91 47 56 92 2 2 93 35 8 94 34 58 95 29 62 96 62 11 97 61 60 98 16 63 99 49 14 100 48 5 101 82 64 102 74 65 103 66 66 104 124 67 105 97 68 106 112 69 107 67 70 108 100 71 109 99 72 110 94 73 111 127 74 112 126 75 113 81 76 114 114 77 115 113 78 116 68 79 117 101 80 118 100 71 119 95 81 120 97 68 121 127 74 122 82 64 123 115 82 124 114 77 125 69 83 126 102 84 127 101 80 128 83 85 129 116 86 130 115 82 131 70 87 132 103 88 133 102 84 134 84 89 135 117 90 136 116 86 137 71 91 138 104 92 139 103 88 140 85 93 141 118 94 142 117 90 143 72 95 144 105 96 145 104 92 146 86 97 147 119 98 148 118 94 149 73 99 150 106 100 151 105 96 152 87 101 153 120 102 154 119 98 155 74 65 156 107 103 157 106 100 158 88 104 159 121 105 160 120 102 161 75 106 162 108 107 163 107 103 164 89 108 165 122 109 166 121 105 167 76 110 168 109 111 169 108 107 170 90 112 171 123 113 172 122 109 173 77 114 174 110 115 175 109 111 176 64 116 177 96 117 178 97 68 179 91 118 180 124 67 181 123 113 182 78 119 183 111 120 184 110 115 185 65 121 186 98 122 187 96 117 188 92 123 189 125 124 190 124 67 191 79 125 192 112 69 193 111 120 194 66 66 195 99 72 196 98 122 197 93 126 198 126 75 199 125 124 200 80 127 201 113 78 202 112 69 203 128 128 204 131 128 205 130 128 206 130 129 207 135 129 208 134 129 209 134 130 210 133 130 211 132 130 212 132 131 213 129 131 214 128 131 215 130 132 216 132 132 217 128 132 218 135 133 219 129 133 220 133 133 221 2 2 222 1 57 223 30 9 224 1 57 225 0 51 226 30 9 227 0 51 228 31 17 229 30 9 230 30 9 231 29 62 232 28 59 233 28 59 234 27 53 235 26 47 236 26 47 237 25 43 238 24 39 239 24 39 240 23 36 241 22 32 242 22 32 243 21 28 244 18 0 245 21 28 246 20 25 247 18 0 248 20 25 249 19 21 250 18 0 251 18 0 252 17 12 253 16 63 254 16 63 255 15 61 256 18 0 257 15 61 258 14 55 259 18 0 260 14 55 261 13 49 262 12 45 263 12 45 264 11 41 265 10 1 266 10 1 267 9 34 268 6 23 269 9 34 270 8 30 271 6 23 272 8 30 273 7 27 274 6 23 275 6 23 276 5 19 277 4 15 278 4 15 279 3 6 280 2 2 281 30 9 282 28 59 283 26 47 284 26 47 285 24 39 286 18 0 287 24 39 288 22 32 289 18 0 290 14 55 291 12 45 292 18 0 293 12 45 294 10 1 295 18 0 296 6 23 297 4 15 298 10 1 299 4 15 300 2 2 301 10 1 302 2 2 303 30 9 304 18 0 305 30 9 306 26 47 307 18 0 308 33 3 309 32 52 310 36 7 311 32 52 312 34 58 313 36 7 314 34 58 315 35 8 316 36 7 317 36 7 318 37 16 319 38 20 320 38 20 321 39 24 322 36 7 323 39 24 324 40 4 325 36 7 326 40 4 327 41 31 328 44 42 329 41 31 330 42 35 331 44 42 332 42 35 333 43 38 334 44 42 335 44 42 336 45 46 337 48 5 338 45 46 339 46 50 340 48 5 341 46 50 342 47 56 343 48 5 344 48 5 345 49 14 346 50 13 347 50 13 348 51 18 349 52 22 350 52 22 351 53 26 352 54 29 353 54 29 354 55 33 355 56 37 356 56 37 357 57 40 358 58 44 359 58 44 360 59 48 361 56 37 362 59 48 363 60 54 364 56 37 365 60 54 366 61 60 367 62 11 368 62 11 369 63 10 370 33 3 371 48 5 372 50 13 373 56 37 374 50 13 375 52 22 376 56 37 377 52 22 378 54 29 379 56 37 380 60 54 381 62 11 382 33 3 383 33 3 384 36 7 385 40 4 386 40 4 387 44 42 388 48 5 389 56 37 390 60 54 391 48 5 392 60 54 393 33 3 394 48 5 395 3 6 396 4 15 397 36 7 398 30 9 399 31 17 400 63 10 401 17 12 402 18 0 403 50 13 404 4 15 405 5 19 406 37 16 407 31 17 408 0 51 409 33 3 410 18 0 411 19 21 412 51 18 413 5 19 414 6 23 415 38 20 416 19 21 417 20 25 418 52 22 419 6 23 420 7 27 421 39 24 422 20 25 423 21 28 424 53 26 425 7 27 426 8 30 427 40 4 428 21 28 429 22 32 430 54 29 431 8 30 432 9 34 433 41 31 434 22 32 435 23 36 436 55 33 437 9 34 438 10 1 439 42 35 440 23 36 441 24 39 442 56 37 443 10 1 444 11 41 445 43 38 446 24 39 447 25 43 448 57 40 449 11 41 450 12 45 451 44 42 452 25 43 453 26 47 454 58 44 455 12 45 456 13 49 457 45 46 458 26 47 459 27 53 460 59 48 461 13 49 462 14 55 463 46 50 464 0 51 465 1 57 466 32 52 467 27 53 468 28 59 469 60 54 470 14 55 471 15 61 472 47 56 473 1 57 474 2 2 475 34 58 476 28 59 477 29 62 478 61 60 479 15 61 480 16 63 481 48 5 482 2 2 483 3 6 484 35 8 485 29 62 486 30 9 487 62 11 488 16 63 489 17 12 490 49 14 491 66 66 492 65 121 493 64 116 494 64 116 495 95 81 496 94 73 497 94 73 498 93 126 499 92 123 500 92 123 501 91 118 502 90 112 503 90 112 504 89 108 505 88 104 506 88 104 507 87 101 508 86 97 509 86 97 510 85 93 511 84 89 512 84 89 513 83 85 514 82 64 515 82 64 516 81 76 517 80 127 518 80 127 519 79 125 520 78 119 521 78 119 522 77 114 523 76 110 524 76 110 525 75 106 526 74 65 527 74 65 528 73 99 529 72 95 530 72 95 531 71 91 532 70 87 533 70 87 534 69 83 535 68 79 536 68 79 537 67 70 538 66 66 539 66 66 540 64 116 541 94 73 542 94 73 543 92 123 544 90 112 545 90 112 546 88 104 547 86 97 548 86 97 549 84 89 550 82 64 551 82 64 552 80 127 553 78 119 554 78 119 555 76 110 556 74 65 557 74 65 558 72 95 559 70 87 560 70 87 561 68 79 562 66 66 563 66 66 564 94 73 565 90 112 566 90 112 567 86 97 568 82 64 569 82 64 570 78 119 571 74 65 572 74 65 573 70 87 574 66 66 575 66 66 576 90 112 577 82 64 578 97 68 579 96 117 580 98 122 581 98 122 582 99 72 583 100 71 584 100 71 585 101 80 586 102 84 587 102 84 588 103 88 589 104 92 590 104 92 591 105 96 592 106 100 593 106 100 594 107 103 595 108 107 596 108 107 597 109 111 598 110 115 599 110 115 600 111 120 601 112 69 602 112 69 603 113 78 604 114 77 605 114 77 606 115 82 607 116 86 608 116 86 609 117 90 610 118 94 611 118 94 612 119 98 613 120 102 614 120 102 615 121 105 616 122 109 617 122 109 618 123 113 619 124 67 620 124 67 621 125 124 622 126 75 623 126 75 624 127 74 625 97 68 626 97 68 627 98 122 628 100 71 629 100 71 630 102 84 631 104 92 632 104 92 633 106 100 634 108 107 635 108 107 636 110 115 637 112 69 638 112 69 639 114 77 640 120 102 641 114 77 642 116 86 643 120 102 644 116 86 645 118 94 646 120 102 647 120 102 648 122 109 649 124 67 650 124 67 651 126 75 652 97 68 653 97 68 654 100 71 655 104 92 656 104 92 657 108 107 658 97 68 659 108 107 660 112 69 661 97 68 662 120 102 663 124 67 664 112 69 665 67 70 666 68 79 667 100 71 668 94 73 669 95 81 670 127 74 671 81 76 672 82 64 673 114 77 674 68 79 675 69 83 676 101 80 677 95 81 678 64 116 679 97 68 680 82 64 681 83 85 682 115 82 683 69 83 684 70 87 685 102 84 686 83 85 687 84 89 688 116 86 689 70 87 690 71 91 691 103 88 692 84 89 693 85 93 694 117 90 695 71 91 696 72 95 697 104 92 698 85 93 699 86 97 700 118 94 701 72 95 702 73 99 703 105 96 704 86 97 705 87 101 706 119 98 707 73 99 708 74 65 709 106 100 710 87 101 711 88 104 712 120 102 713 74 65 714 75 106 715 107 103 716 88 104 717 89 108 718 121 105 719 75 106 720 76 110 721 108 107 722 89 108 723 90 112 724 122 109 725 76 110 726 77 114 727 109 111 728 90 112 729 91 118 730 123 113 731 77 114 732 78 119 733 110 115 734 64 116 735 65 121 736 96 117 737 91 118 738 92 123 739 124 67 740 78 119 741 79 125 742 111 120 743 65 121 744 66 66 745 98 122 746 92 123 747 93 126 748 125 124 749 79 125 750 80 127 751 112 69 752 66 66 753 67 70 754 99 72 755 93 126 756 94 73 757 126 75 758 80 127 759 81 76 760 113 78 761 128 128 762 129 128 763 131 128 764 130 129 765 131 129 766 135 129 767 134 130 768 135 130 769 133 130 770 132 131 771 133 131 772 129 131 773 130 132 774 134 132 775 132 132 776 135 133 777 131 133 778 129 133 779</p>
        </triangles>
      </mesh>
    </geometry>
  </library_geometries>
  <library_visual_scenes>
    <visual_scene id="Scene" name="Scene">
      <node id="tmp_export_Circle_013" name="tmp_export_Circle.013" type="NODE">
        <matrix sid="transform">1 0 0 0 0 1 0 0 0 0 1 0 0 0 0 1</matrix>
        <instance_geometry url="#Circle_013-mesh" name="tmp_export_Circle.013">
          <bind_material>
            <technique_common>
              <instance_material symbol="Material_005-material" target="#Material_005-material">
                <bind_vertex_input semantic="UVMap" input_semantic="TEXCOORD" input_set="0"/>
              </instance_material>
            </technique_common>
          </bind_material>
        </instance_geometry>
      </node>
    </visual_scene>
  </library_visual_scenes>
  <scene>
    <instance_visual_scene url="#Scene"/>
  </scene>
</COLLADA>