<?xml version="1.0" encoding="utf-8"?>
<COLLADA xmlns="http://www.collada.org/2005/11/COLLADASchema" version="1.4.1" xmlns:xsi="http://www.w3.org/2001/XMLSchema-instance">
  <asset>
    <contributor>
      <author>Blender User</author>
      <authoring_tool>Blender 4.2.18 LTS commit date:2026-02-16, commit time:13:37, hash:d71e3422e438</authoring_tool>
    </contributor>
    <created>2026-04-03T18:41:27</created>
    <modified>2026-04-03T18:41:27</modified>
    <unit name="meter" meter="1"/>
    <up_axis>Z_UP</up_axis>
  </asset>
  <library_effects>
    <effect id="Material_008-effect">
      <profile_COMMON>
        <technique sid="common">
          <lambert>
            <emission>
              <color sid="emission">0 0 0 1</color>
            </emission>
            <diffuse>
              <color sid="diffuse">0.5775767 0.577581 0.5775807 1</color>
            </diffuse>
            <index_of_refraction>
              <float sid="ior">1.5</float>
            </index_of_refraction>
          </lambert>
        </technique>
      </profile_COMMON>
    </effect>
  </library_effects>
  <library_images/>
  <library_materials>
    <material id="Material_008-material" name="Material.008">
      <instance_effect url="#Material_008-effect"/>
    </material>
  </library_materials>
  <library_geometries>
    <geometry id="Cube_012-mesh" name="Cube.012">
      <mesh>
        <source id="Cube_012-mesh-positions">
          <float_array id="Cube_012-mesh-positions-array" count="216">-1 -0.7193311 -1.28067 -1 -0.7193311 0.7193304 -1 1.280669 -1.28067 -1 1.280669 0.7193304 1 -0.7193311 -1.28067 1 -0.7193311 0.7193304 1 1.280669 -1.28067 1 1.280669 0.7193304 0 -0.4693311 -1.280668 -0.1950903 -0.4741348 -1.280668 -0.3826835 -0.4883612 -1.280668 -0.5555703 -0.5114637 -1.280668 -0.7071068 -0.5425544 -1.280668 -0.8314696 -0.5804386 -1.280668 -0.9238795 -0.6236602 -1.280668 -0.9807853 -0.6705585 -1.280668 -1 -0.7193311 -1.280668 -0.9807853 -0.7681037 -1.280668 -0.9238795 -0.8150019 -1.280668 -0.8314696 -0.8582236 -1.280668 -0.7071068 -0.8961077 -1.280668 -0.5555703 -0.9271985 -1.280668 -0.3826835 -0.950301 -1.280668 -0.1950903 -0.9645274 -1.280668 0 -0.9693311 -1.280668 0.1950903 -0.9645274 -1.280668 0.3826835 -0.950301 -1.280668 0.5555703 -0.9271985 -1.280668 0.7071068 -0.8961077 -1.280668 0.8314696 -0.8582236 -1.280668 0.9238795 -0.8150019 -1.280668 0.9807853 -0.7681037 -1.280668 1 -0.7193311 -1.280668 0.9807853 -0.6705585 -1.280668 0.9238795 -0.6236602 -1.280668 0.8314696 -0.5804386 -1.280668 0.7071068 -0.5425544 -1.280668 0.5555703 -0.5114637 -1.280668 0.3826835 -0.4883612 -1.280668 0.1950903 -0.4741348 -1.280668 -0.1950903 -0.4741348 2.719332 0 -0.4693311 2.719332 -0.3826835 -0.4883612 2.719332 -0.5555703 -0.5114637 2.719332 -0.7071068 -0.5425544 2.719332 -0.8314696 -0.5804386 2.719332 -0.9238795 -0.6236602 2.719332 -0.9807853 -0.6705585 2.719332 -1 -0.7193311 2.719332 -0.9807853 -0.7681037 2.719332 -0.9238795 -0.8150019 2.719332 -0.8314696 -0.8582236 2.719332 -0.7071068 -0.8961077 2.719332 -0.5555703 -0.9271985 2.719332 -0.3826835 -0.950301 2.719332 -0.1950903 -0.9645274 2.719332 0 -0.9693311 2.719332 0.1950903 -0.9645274 2.719332 0.3826835 -0.950301 2.719332 0.5555703 -0.9271985 2.719332 0.7071068 -0.8961077 2.719332 0.8314696 -0.8582236 2.719332 0.9238795 -0.8150019 2.719332 0.9807853 -0.7681037 2.719332 1 -0.7193311 2.719332 0.9807853 -0.6705585 2.719332 0.9238795 -0.6236602 2.719332 0.8314696 -0.5804386 2.719332 0.7071068 -0.5425544 2.719332 0.5555703 -0.5114637 2.719332 0.3826835 -0.4883612 2.719332 0.1950903 -0.4741348 2.719332</float_array>
          <technique_common>
            <accessor source="#Cube_012-mesh-positions-array" count="72" stride="3">
              <param name="X" type="float"/>
              <param name="Y" type="float"/>
              <param name="Z" type="float"/>
            </accessor>
          </technique_common>
        </source>
        <source id="Cube_012-mesh-normals">
          <float_array id="Cube_012-mesh-normals-array" count="210">-1 0 0 0 1 0 1 0 0 0 -1 0 0 0 -1 0 0 1 -0.1767905 0.6951842 -0.6967526 -0.1192368 0.7047573 -0.6993567 -0.1767911 -0.6951895 -0.6967471 0.07425314 0.7095643 0.7007175 0.03573453 0.7118812 0.7013903 0.07425278 -0.7095568 0.7007251 -0.1767902 0.6951848 0.696752 -0.1192365 0.7047575 0.6993566 0.07425123 0.7095541 -0.7007281 0.03573387 -0.711874 -0.7013976 0.03573453 -0.7118741 0.7013975 -0.2589216 0.6743708 0.6915083 0.03573358 0.7118813 -0.7013902 1.53832e-7 0.712584 0.7015869 0.07425332 -0.7095671 -0.7007146 0.1192362 -0.7047551 0.699359 -0.2589235 0.6743702 -0.6915081 -0.3916158 0.6199635 0.6799136 0.1192367 -0.7047573 -0.6993567 0.1767907 -0.6951865 0.6967502 -0.3916182 0.6199619 -0.6799136 -0.6113924 0.4442791 0.6548401 0.1767901 -0.6951841 -0.6967527 0.2589218 -0.6743709 0.6915081 -0.6113913 0.4442782 -0.6548417 -0.7740276 8.83901e-7 0.6331519 0.2589236 -0.6743703 -0.6915081 0.391619 -0.6199706 0.6799052 -0.7740276 -8.83901e-7 -0.6331519 -0.6113947 -0.4442809 0.6548367 0.3916226 -0.6199688 -0.6799049 0.6113942 -0.4442825 0.654836 -0.6113942 -0.4442825 -0.654836 -0.3916298 -0.6199804 0.67989 0.6113947 -0.444281 -0.6548367 0.7740276 -8.83901e-7 0.6331519 -0.3916292 -0.6199815 -0.6798895 -0.2589266 -0.6743782 0.6914993 0.7740276 8.83901e-7 -0.6331519 0.6113913 0.4442782 0.6548417 -0.2589259 -0.6743785 -0.6914991 -0.1767917 -0.6951888 0.6967477 0.6113908 0.4442797 -0.6548411 0.3916251 0.6199737 0.6798989 -0.1192366 -0.704755 0.6993591 0.3916248 0.6199746 -0.6798983 0.2589265 0.6743781 0.6914994 -0.1192355 -0.7047552 -0.6993591 -0.07425314 -0.7095568 0.7007251 -4.85153e-7 0.7125721 -0.7015989 -0.03573423 0.7118813 0.7013902 0.2589258 0.6743785 -0.6914992 0.1767913 0.6951871 0.6967495 -0.07425123 -0.7095541 -0.7007281 -0.03573483 -0.711874 0.7013975 -0.03573387 0.711874 -0.7013976 -0.07425284 0.7095644 0.7007175 0.1767914 0.6951895 -0.696747 0.1192369 0.7047573 0.6993567 -0.03573358 -0.7118813 -0.7013902 -1.53826e-7 -0.7125603 0.7016109 -0.07425332 0.7095671 -0.7007146 0.1192356 0.7047551 -0.6993591 4.85153e-7 -0.7125721 -0.7015989</float_array>
          <technique_common>
            <accessor source="#Cube_012-mesh-normals-array" count="70" stride="3">
              <param name="X" type="float"/>
              <param name="Y" type="float"/>
              <param name="Z" type="float"/>
            </accessor>
          </technique_common>
        </source>
        <source id="Cube_012-mesh-map-0">
          <float_array id="Cube_012-mesh-map-0-array" count="816">0.375 0 0.625 0.25 0.375 0.25 0.375 0.25 0.625 0.5 0.375 0.5 0.375 0.5 0.625 0.75 0.375 0.75 0.375 0.75 0.625 1 0.375 1 0.125 0.5 0.375 0.75 0.125 0.75 0.625 0.5 0.875 0.75 0.625 0.75 0 0 0 0 0 0 0 0 0 0 0 0 0 0 0 0 0 0 0 0 0 0 0 0 0 0 0 0 0 0 0 0 0 0 0 0 0 0 0 0 0 0 0 0 0 0 0 0 0 0 0 0 0 0 0 0 0 0 0 0 0 0 0 0 0 0 0 0 0 0 0 0 0 0 0 0 0 0 0 0 0 0 0 0 0 0 0 0 0 0 0 0 0 0 0 0 0 0 0 0 0 0 0 0 0 0 0 0 0 0 0 0 0 0 0 0 0 0 0 0 0 0 0 0 0 0 0 0 0 0 0 0 0 0 0 0 0 0 0 0 0 0 0 0 0 0 0 0 0 0 0 0 0 0 0 0 0 0 0 0 0 0 0 0 0 0 0 0 0 0 0 0 0 0 0 0 0 0 0 0 0 0 0 0 0 0 0 0 0 0 0 0 0 0 0 0 0 0 0 0 0 0 0 0 0.375 0 0.625 0 0.625 0.25 0.375 0.25 0.625 0.25 0.625 0.5 0.375 0.5 0.625 0.5 0.625 0.75 0.375 0.75 0.625 0.75 0.625 1 0.125 0.5 0.375 0.5 0.375 0.75 0.625 0.5 0.875 0.5 0.875 0.75 0 0 0 0 0 0 0 0 0 0 0 0 0 0 0 0 0 0 0 0 0 0 0 0 0 0 0 0 0 0 0 0 0 0 0 0 0 0 0 0 0 0 0 0 0 0 0 0 0 0 0 0 0 0 0 0 0 0 0 0 0 0 0 0 0 0 0 0 0 0 0 0 0 0 0 0 0 0 0 0 0 0 0 0 0 0 0 0 0 0 0 0 0 0 0 0 0 0 0 0 0 0 0 0 0 0 0 0 0 0 0 0 0 0 0 0 0 0 0 0 0 0 0 0 0 0 0 0 0 0 0 0 0 0 0 0 0 0 0 0 0 0 0 0 0 0 0 0 0 0 0 0 0 0 0 0 0 0 0 0 0 0 0 0 0 0 0 0 0 0 0 0 0 0 0 0 0 0 0 0 0 0 0 0 0 0 0 0 0 0 0 0 0 0 0 0 0 0 0 0 0 0 0 0 0 0 0 0 0 0 0 0 0 0 0 0 0 0 0 0 0 0 0 0 0 0 0 0 0 0 0 0 0 0 0 0 0 0 0 0 0 0 0 0 0 0 0 0 0 0 0 0 0 0 0 0 0 0 0 0 0 0 0 0 0 0 0 0 0 0 0 0 0 0 0 0 0 0 0 0 0 0 0 0 0 0 0 0 0 0 0 0 0 0 0 0 0 0 0 0 0 0 0 0 0 0 0 0 0 0 0 0 0 0 0 0 0 0 0 0 0 0 0 0 0 0 0 0 0 0 0 0 0 0 0 0 0 0 0 0 0 0 0 0 0 0 0 0 0 0 0 0 0 0 0 0 0 0 0 0 0 0 0 0 0 0 0 0 0 0 0 0 0 0 0 0 0 0 0 0 0 0 0 0 0 0 0 0 0 0 0 0 0 0 0 0 0 0 0 0 0 0 0 0 0 0 0 0 0 0 0 0 0 0 0 0 0 0 0 0 0 0 0 0 0 0 0 0 0 0 0 0 0 0 0 0 0 0 0 0 0 0 0 0 0 0 0 0 0 0 0 0 0 0 0 0 0 0 0 0 0 0 0 0 0 0 0 0 0 0 0 0 0 0 0 0 0 0 0 0 0 0 0 0 0 0 0 0 0 0 0 0 0 0 0 0 0 0 0 0 0 0 0 0 0 0 0 0 0 0 0 0 0 0 0 0 0 0 0 0 0 0 0 0 0 0 0 0 0 0 0 0 0 0 0 0 0 0 0 0</float_array>
          <technique_common>
            <accessor source="#Cube_012-mesh-map-0-array" count="408" stride="2">
              <param name="S" type="float"/>
              <param name="T" type="float"/>
            </accessor>
          </technique_common>
        </source>
        <vertices id="Cube_012-mesh-vertices">
          <input semantic="POSITION" source="#Cube_012-mesh-positions"/>
        </vertices>
        <triangles material="Material_008-material" count="136">
          <input semantic="VERTEX" source="#Cube_012-mesh-vertices" offset="0"/>
          <input semantic="NORMAL" source="#Cube_012-mesh-normals" offset="1"/>
          <input semantic="TEXCOORD" source="#Cube_012-mesh-map-0" offset="2" set="0"/>
          <p>0 0 0 3 0 1 2 0 2 2 1 3 7 1 4 6 1 5 6 2 6 5 2 7 4 2 8 4 3 9 1 3 10 0 3 11 2 4 12 4 4 13 0 4 14 7 5 15 1 5 16 5 5 17 12 6 18 11 7 19 20 8 20 70 9 21 71 10 22 58 11 23 11 7 24 44 12 25 43 13 26 38 14 27 71 10 28 70 9 29 25 15 30 58 11 31 57 16 32 12 6 33 45 17 34 44 12 35 39 18 36 41 19 37 71 10 38 26 20 39 59 21 40 58 11 41 13 22 42 46 23 43 45 17 44 27 24 45 60 25 46 59 21 47 14 26 48 47 27 49 46 23 50 28 28 51 61 29 52 60 25 53 15 30 54 48 31 55 47 27 56 29 32 57 62 33 58 61 29 59 16 34 60 49 35 61 48 31 62 30 36 63 63 37 64 62 33 65 17 38 66 50 39 67 49 35 68 31 40 69 64 41 70 63 37 71 18 42 72 51 43 73 50 39 74 32 44 75 65 45 76 64 41 77 19 46 78 52 47 79 51 43 80 33 48 81 66 49 82 65 45 83 20 8 84 53 50 85 52 47 86 34 51 87 67 52 88 66 49 89 21 53 90 54 54 91 53 50 92 8 55 93 40 56 94 41 19 95 35 57 96 68 58 97 67 52 98 22 59 99 55 60 100 54 54 101 9 61 102 42 62 103 40 56 104 36 63 105 69 64 106 68 58 107 23 65 108 56 66 109 55 60 110 10 67 111 43 13 112 42 62 113 37 68 114 70 9 115 69 64 116 24 69 117 57 16 118 56 66 119 0 0 120 1 0 121 3 0 122 2 1 123 3 1 124 7 1 125 6 2 126 7 2 127 5 2 128 4 3 129 5 3 130 1 3 131 2 4 132 6 4 133 4 4 134 7 5 135 3 5 136 1 5 137 10 67 138 9 61 139 23 65 140 9 61 141 8 55 142 24 69 143 8 55 144 39 18 145 25 15 146 39 18 147 38 14 148 26 20 149 38 14 150 37 68 151 26 20 152 37 68 153 36 63 154 27 24 155 26 20 156 37 68 157 27 24 158 36 63 159 35 57 160 28 28 161 35 57 162 34 51 163 29 32 164 28 28 165 35 57 166 29 32 167 34 51 168 33 48 169 30 36 170 33 48 171 32 44 172 31 40 173 30 36 174 33 48 175 31 40 176 30 36 177 29 32 178 34 51 179 28 28 180 27 24 181 36 63 182 26 20 183 25 15 184 39 18 185 25 15 186 24 69 187 8 55 188 24 69 189 23 65 190 9 61 191 23 65 192 22 59 193 10 67 194 22 59 195 21 53 196 10 67 197 21 53 198 20 8 199 11 7 200 10 67 201 21 53 202 11 7 203 20 8 204 19 46 205 12 6 206 19 46 207 18 42 208 13 22 209 12 6 210 19 46 211 13 22 212 18 42 213 17 38 214 15 30 215 17 38 216 16 34 217 15 30 218 15 30 219 14 26 220 18 42 221 14 26 222 13 22 223 18 42 224 41 19 225 40 56 226 55 60 227 40 56 228 42 62 229 54 54 230 42 62 231 43 13 232 53 50 233 43 13 234 44 12 235 52 47 236 44 12 237 45 17 238 51 43 239 45 17 240 46 23 241 50 39 242 46 23 243 47 27 244 50 39 245 47 27 246 48 31 247 49 35 248 50 39 249 47 27 250 49 35 251 50 39 252 51 43 253 45 17 254 51 43 255 52 47 256 44 12 257 52 47 258 53 50 259 43 13 260 53 50 261 54 54 262 42 62 263 54 54 264 55 60 265 40 56 266 55 60 267 56 66 268 41 19 269 56 66 270 57 16 271 41 19 272 57 16 273 58 11 274 71 10 275 41 19 276 57 16 277 71 10 278 58 11 279 59 21 280 70 9 281 59 21 282 60 25 283 69 64 284 70 9 285 59 21 286 69 64 287 60 25 288 61 29 289 67 52 290 61 29 291 62 33 292 66 49 293 62 33 294 63 37 295 65 45 296 63 37 297 64 41 298 65 45 299 65 45 300 66 49 301 62 33 302 66 49 303 67 52 304 61 29 305 67 52 306 68 58 307 60 25 308 68 58 309 69 64 310 60 25 311 11 7 312 12 6 313 44 12 314 38 14 315 39 18 316 71 10 317 25 15 318 26 20 319 58 11 320 12 6 321 13 22 322 45 17 323 39 18 324 8 55 325 41 19 326 26 20 327 27 24 328 59 21 329 13 22 330 14 26 331 46 23 332 27 24 333 28 28 334 60 25 335 14 26 336 15 30 337 47 27 338 28 28 339 29 32 340 61 29 341 15 30 342 16 34 343 48 31 344 29 32 345 30 36 346 62 33 347 16 34 348 17 38 349 49 35 350 30 36 351 31 40 352 63 37 353 17 38 354 18 42 355 50 39 356 31 40 357 32 44 358 64 41 359 18 42 360 19 46 361 51 43 362 32 44 363 33 48 364 65 45 365 19 46 366 20 8 367 52 47 368 33 48 369 34 51 370 66 49 371 20 8 372 21 53 373 53 50 374 34 51 375 35 57 376 67 52 377 21 53 378 22 59 379 54 54 380 8 55 381 9 61 382 40 56 383 35 57 384 36 63 385 68 58 386 22 59 387 23 65 388 55 60 389 9 61 390 10 67 391 42 62 392 36 63 393 37 68 394 69 64 395 23 65 396 24 69 397 56 66 398 10 67 399 11 7 400 43 13 401 37 68 402 38 14 403 70 9 404 24 69 405 25 15 406 57 16 407</p>
        </triangles>
      </mesh>
    </geometry>
  </library_geometries>
  <library_visual_scenes>
    <visual_scene id="Scene" name="Scene">
      <node id="tmp_export_Cube_012" name="tmp_export_Cube.012" type="NODE">
        <matrix sid="transform">1 0 0 0 0 1 0 0 0 0 1 0 0 0 0 1</matrix>
        <instance_geometry url="#Cube_012-mesh" name="tmp_export_Cube.012">
          <bind_material>
            <technique_common>
              <instance_material symbol="Material_008-material" target="#Material_008-material">
                <bind_vertex_input semantic="UVMap" input_semantic="TEXCOORD" input_set="0"/>
              </instance_material>
            </technique_common>
          </bind_material>
        </instance_geometry>
      </node>
    </visual_scene>
  </library_visual_scenes>
  <scene>
    <instance_visual_scene url="#Scene"/>
  </scene>
</COLLADA>