<?xml version="1.0" encoding="utf-8"?>
<COLLADA xmlns="http://www.collada.org/2005/11/COLLADASchema" version="1.4.1" xmlns:xsi="http://www.w3.org/2001/XMLSchema-instance">
  <asset>
    <contributor>
      <author>Blender User</author>
      <authoring_tool>Blender 4.2.18 LTS commit date:2026-02-16, commit time:13:37, hash:d71e3422e438</authoring_tool>
    </contributor>
    <created>2026-04-03T18:41:27</created>
    <modified>2026-04-03T18:41:27</modified>
    <unit name="meter" meter="1"/>
    <up_axis>Z_UP</up_axis>
  </asset>
  <library_effects>
    <effect id="Material_002-effect">
      <profile_COMMON>
        <technique sid="common">
          <lambert>
            <emission>
              <color sid="emission">0 0 0 1</color>
            </emission>
            <diffuse>
              <color sid="diffuse">0.7014059 0.749798 0.4948058 1</color>
            </diffuse>
            <index_of_refraction>
              <float sid="ior">1.5</float>
            </index_of_refraction>
          </lambert>
        </technique>
      </profile_COMMON>
    </effect>
  </library_effects>
  <library_images/>
  <library_materials>
    <material id="Material_002-material" name="Material.002">
      <instance_effect url="#Material_002-effect"/>
    </material>
  </library_materials>
  <library_geometries>
    <geometry id="Cube_017-mesh" name="Cube.017">
      <mesh>
        <source id="Cube_017-mesh-positions">
          <float_array id="Cube_017-mesh-positions-array" count="684">1 2 0.1203266 1 2 0.4203267 1 1.9 0.4203267 -1 2 0.1203266 -1 2 0.4203267 -1 1.9 0.4203267 1 1.9 0.2744494 -1 1.9 0.2744494 1 1.927581 0.1917086 1 1.985024 0.1203266 -1 1.985024 0.1203266 -1 1.92758 0.1917086 -1 -2 0.1203266 -1 -2 0.4203267 -1 -1.9 0.4203267 1 -2 0.1203266 1 -2 0.4203267 1 -1.9 0.4203267 -1 -1.9 0.2744494 1 -1.9 0.2744494 -1 -1.92758 0.1917086 -1 -1.985024 0.1203266 1 -1.985024 0.1203266 1 -1.92758 0.1917086 1 -0.3999997 0.4203267 1 0.4000003 0.4203267 1.1 -0.3999997 0.4203267 1.1 0.4000003 0.4203267 1 -0.3999997 0.17556 1.1 -0.3999997 0.17556 1 0.4000003 0.1755266 1.1 0.4000003 0.1755266 1.071859 -0.2527108 0.1203266 1.1 -0.3999997 0.17556 1.1 0.4000003 0.1755266 1.071859 0.2528004 0.1203266 1 -0.3999997 0.17556 1.05191 -0.2527108 0.1203266 1.05191 0.2528003 0.1203266 1 0.4000003 0.1755266 -1 0.4000004 0.4203267 -0.9999998 -0.3999996 0.4203267 -1.1 0.4000003 0.4203267 -1.1 -0.3999996 0.4203267 -1 0.4000004 0.17556 -1.1 0.4000003 0.17556 -0.9999998 -0.3999996 0.1755266 -1.1 -0.3999996 0.1755266 -1.071859 0.2527115 0.1203266 -1.1 0.4000003 0.17556 -1.1 -0.3999996 0.1755266 -1.071858 -0.2527996 0.1203266 -1 0.4000004 0.17556 -1.05191 0.2527115 0.1203266 -1.051909 -0.2527996 0.1203266 -0.9999998 -0.3999996 0.1755266 0.4499999 1.5 0.2703267 0.4500001 1.2 -0.2796734 0.4500001 1.2 0.2703267 -0.4500001 1.499999 0.2703267 -0.4499999 1.199999 -0.2796734 -0.4499999 1.199999 0.2703267 0.4499999 1.5 -0.1296734 0.4500001 1.2 -0.1296734 -0.4499999 1.199999 -0.1296734 -0.4500001 1.499999 -0.1296734 0.4500001 1.2 -0.2796734 0.4499999 1.5 -0.1296734 -0.4500001 1.499999 -0.1296734 -0.4499999 1.199999 -0.2796734 -0.4499999 -0.9000002 -0.7296734 -0.4499999 -0.9000002 -0.3296734 -0.4499998 0.9 -0.7296734 -0.4499998 0.9 -0.3296734 0.4499999 -0.9 -0.7296734 0.4499999 -0.9 -0.3296734 0.4499999 0.9000001 -0.7296734 0.4499999 0.9000001 -0.3296734 -0.4499999 -1.2 0.2703266 -0.4499999 -0.9000002 -0.7296733 -0.4499999 -0.9000002 0.2703266 0.4499999 -1.2 0.2703266 0.4499999 -0.9 -0.7296733 0.4499999 -0.9 0.2703266 -0.4499999 -0.9000002 -0.4296734 0.4499999 -0.9 -0.4296734 0.4499999 -1.2 -0.4296734 -0.4499999 -1.2 -0.4296734 -0.4499999 -0.9000002 -0.7296733 -0.4499999 -1.2 -0.4296734 0.4499999 -1.2 -0.4296734 0.4499999 -0.9 -0.7296733 0.4499999 1.2 0.2703266 0.4500001 0.9000001 -0.7296733 0.4500001 0.9000001 0.2703266 -0.4500001 1.2 0.2703266 -0.4499999 0.8999997 -0.7296733 -0.4499999 0.8999997 0.2703266 0.4500001 0.9000001 -0.4296734 -0.4499999 0.8999997 -0.4296734 -0.4500001 1.2 -0.4296734 0.4499999 1.2 -0.4296734 0.4500001 0.9000001 -0.7296733 0.4499999 1.2 -0.4296734 -0.4500001 1.2 -0.4296734 -0.4499999 0.8999997 -0.7296733 -0.4499999 -1.5 0.2703267 -0.4499999 -1.2 -0.2796734 -0.4499999 -1.2 0.2703267 0.4499999 -1.5 0.2703267 0.4499999 -1.2 -0.2796734 0.4499999 -1.2 0.2703267 -0.4499999 -1.5 -0.1296734 -0.4499999 -1.2 -0.1296734 0.4499999 -1.2 -0.1296734 0.4499999 -1.5 -0.1296734 -0.4499999 -1.2 -0.2796734 -0.4499999 -1.5 -0.1296734 0.4499999 -1.5 -0.1296734 0.4499999 -1.2 -0.2796734 -0.45 -1.9 -0.1296734 -0.45 -1.9 0.2703266 -0.4499999 -1.5 -0.1296734 -0.4499999 -1.5 0.2703266 0.4499999 -1.9 -0.1296734 0.4499999 -1.9 0.2703266 0.4499999 -1.5 -0.1296734 0.4499999 -1.5 0.2703266 -0.4499999 1.5 -0.1296734 -0.4499999 1.5 0.2703266 -0.4499999 1.9 -0.1296734 -0.4499999 1.9 0.2703266 0.4500001 1.5 -0.1296734 0.4500001 1.5 0.2703266 0.4500001 1.9 -0.1296734 0.4500001 1.9 0.2703266 -1 -1.9 0.4203267 -1 -0.9010068 0.4203267 1 -1.9 0.4203267 1 -0.9010068 0.4203267 -1 -1.9 0.2754606 -0.9657737 -1.9 0.2703267 -0.9657737 -0.9010068 0.2703267 -1 -0.9010068 0.2754606 0.9657737 -1.9 0.2703267 1 -1.9 0.2754606 1 -0.9010068 0.2754606 0.9657737 -0.9010068 0.2703267 -1 -0.9408461 0.4203267 -1 0.9914987 0.4203267 -0.3999999 -0.9408466 0.2703267 -0.3999999 -0.9408466 0.4203267 -0.4 0.9914987 0.2703267 -0.4 0.9914987 0.4203267 -1 -0.9408461 0.2754606 -0.9657737 -0.9408461 0.2703267 -0.9657735 0.9914987 0.2703267 -1 0.9914987 0.2754606 -0.4499999 -0.910923 -0.3296734 -0.4499999 -0.910923 0.2703266 -0.4499999 0.9216098 -0.3296734 -0.4499999 0.9216098 0.2703266 -0.3999999 -0.910923 -0.3296734 -0.3999999 -0.910923 0.2703266 -0.3999999 0.9216098 -0.3296734 -0.3999999 0.9216098 0.2703266 0.4 -1.027541 -0.3296734 0.4 -1.027541 0.2703266 0.4 0.9 -0.3296734 0.4 0.9 0.2703266 0.4500001 -1.027541 -0.3296734 0.4500001 -1.027541 0.2703266 0.4500001 0.9000001 -0.3296734 0.4500001 0.9000001 0.2703266 -0.4500001 -0.9500001 0.4203268 -0.4500001 -0.9500001 0.4703268 -0.4500001 -0.9 0.4203268 -0.4500001 -0.9 0.4703268 0.4499999 -0.9500001 0.4203268 0.4499999 -0.9500001 0.4703268 0.4499999 -0.9 0.4203268 0.4499999 -0.9 0.4703268 0.4 -1.109019 0.2703267 0.4 -1.109019 0.4203267 0.4 0.9055594 0.2703267 0.4 0.9055594 0.4203267 1 -1.109019 0.4203267 1 0.9055594 0.4203267 0.9657737 -1.109019 0.2703267 1 -1.109019 0.2754606 1 0.9055594 0.2754606 0.9657738 0.9055594 0.2703267 -1 0.9055594 0.4203267 -1 1.918606 0.4203267 1 0.9055594 0.4203267 1 1.918606 0.4203267 -1 0.9055594 0.2754606 -0.9657735 0.9055594 0.2703267 -0.9657735 1.918606 0.2703267 -1 1.918606 0.2754606 0.9657738 0.9055594 0.2703267 1 0.9055594 0.2754606 1 1.918606 0.2754606 0.9657738 1.918606 0.2703267 -0.4500001 0.9084211 0.4203268 -0.4500001 0.9084211 0.4703268 -0.4500001 0.9584211 0.4203268 -0.4500001 0.9584211 0.4703268 0.4499999 0.9084211 0.4203268 0.4499999 0.9084211 0.4703268 0.4499999 0.9584211 0.4203268 0.4499999 0.9584211 0.4703268 0.3999999 -0.9309987 0.4203268 0.3999999 -0.9309987 0.4703268 0.3999999 0.9309986 0.4203268 0.3999999 0.9309986 0.4703268 0.4499999 -0.9309987 0.4203268 0.4499999 -0.9309987 0.4703268 0.4499999 0.9309986 0.4203268 0.4499999 0.9309986 0.4703268 -0.4499999 -0.9372925 0.4203268 -0.4499999 -0.9372925 0.4703268 -0.4499999 0.9372923 0.4203268 -0.4499999 0.9372923 0.4703268 -0.3999999 -0.9372925 0.4203268 -0.3999999 -0.9372925 0.4703268 -0.3999999 0.9372923 0.4203268 -0.3999999 0.9372923 0.4703268</float_array>
          <technique_common>
            <accessor source="#Cube_017-mesh-positions-array" count="228" stride="3">
              <param name="X" type="float"/>
              <param name="Y" type="float"/>
              <param name="Z" type="float"/>
            </accessor>
          </technique_common>
        </source>
        <source id="Cube_017-mesh-normals">
          <float_array id="Cube_017-mesh-normals-array" count="1116">4.17232e-7 -1 0 -4.17232e-7 1 0 -1 0 0 0 0 1 1 0 0 3.95822e-7 -0.9486833 -0.3162276 3.25051e-7 -0.7790644 -0.6269439 0 0 -1 0 1 0 0 -1 0 1 0 0 0 0 1 -1 -4.43238e-6 -1.40405e-6 0 0.9486833 -0.3162276 0 0.7790657 -0.6269422 0 0 -1 0 -1 0 -2.98024e-7 1 0 0 0 1 0 0 1 0 0.3511233 -0.9363292 0 0 -1 0.8909077 -4.20186e-7 -0.4541845 -1 0 0 -0.7285214 -2.85814e-5 -0.6850231 0 0 1 -5.96047e-7 1 0 2.98024e-7 -1 0 0 0 1 0 0 1 0 -0.3511233 -0.9363292 0 0 -1 -0.8909052 -4.20185e-7 -0.4541894 1 2.23517e-7 0 0.7285231 2.87442e-5 -0.6850212 0 0 1 1 3.97364e-7 0 3.97364e-7 -1 0 -1 -2.98023e-7 0 -5.29819e-7 1 0 0 0 1 0 0 1 -1 -2.98023e-7 0 3.97364e-7 -1 0 0 0 1 -2.36942e-7 0.4472134 -0.8944272 1 3.97364e-7 0 -1 0 0 -1.32455e-7 1 0 1 0 0 1.98682e-7 -1 0 0 0 -1 0 0 1 -1 0 0 -1.98682e-7 1 0 1 0 0 0 0 1 0 0 1 0 0 1 -1.98682e-7 1 0 1 0 0 1.32455e-7 -1 0 0 -0.7071066 -0.7071069 -1 0 0 1 6.95388e-7 0 4.63592e-7 -1 0 -1 -2.98023e-7 0 0 0 1 0 0 1 0 0 1 4.63592e-7 -1 0 -1 -2.98023e-7 0 -3.97364e-7 1 0 -2.80979e-7 0.7071067 -0.7071069 1 6.95388e-7 0 -1 -1.98682e-7 0 0 1 0 1 0 0 0 -1 0 0 0 1 0 0 1 1 0 0 0 1 0 0 0 1 0 -0.4472135 -0.8944272 -1 -1.98682e-7 0 -1 0 0 0 1 0 1 0 0 0 -1 0 0 0 -1 0 0 1 -1 0 0 -1.32455e-7 1 0 1 0 0 0 -1 0 0 0 -1 0 0 1 4.17232e-7 -1 0 -4.17232e-7 1 0 -1 0 0 -1 -1.10809e-6 3.51013e-7 -1 -5.96046e-7 0 0 0 1 1 0 0 1 0 0 1 0 0 3.95822e-7 -0.9486833 -0.3162276 2.78615e-7 -0.7790651 -0.6269431 0 0 -1 0 1 0 0 -1 0 1 0 0 1 0 0 1 0 0 0 0 1 -1 0 0 -1 0 0 -1 -2.38419e-6 0 0 0.9486833 -0.3162276 0 0.7790657 -0.6269422 0 0 -1 0 -1 0 -2.98024e-7 1 0 0 0 1 0 0 1 1 0 0 1 0 0 0 0 1 -5.24553e-7 0.3511235 -0.9363291 0 0 1 0 0 -1 0.8909962 -1.89428e-5 -0.4540107 0 0 1 -1 0 0 0 0 1 -0.7286899 0 -0.6848438 0 0 1 0 -0.3511237 -0.9363291 5.2456e-7 -0.3511235 -0.9363292 -5.96047e-7 1 0 2.98024e-7 -1 0 0 0 1 0 0 1 -1 -2.98023e-7 0 -1 -2.98023e-7 0 0 0 1 5.24553e-7 -0.3511235 -0.9363291 0 0 1 0 0 -1 -0.8909965 1.86772e-5 -0.4540101 0 0 1 1 2.23517e-7 0 0 0 1 0.7286907 3.43679e-7 -0.6848431 0 0 1 -2.3682e-7 0.3511238 -0.9363291 -5.24554e-7 0.3511236 -0.9363291 1 3.97364e-7 0 3.97364e-7 -1 0 -1 -2.98023e-7 0 -5.29819e-7 1 0 0 0 1 0 0 1 0 0 1 0 0 1 3.97364e-7 -1 0 0 0 1 -1.77707e-7 0.4472135 -0.8944272 0 0 1 0 0 1 -1 0 0 -1.32455e-7 1 0 1 0 0 1.98682e-7 -1 0 0 0 -1 0 0 1 -1 0 0 -1.98682e-7 1 0 1 0 0 0 0 1 0 0 1 0 0 1 -1.98682e-7 1 0 0 0 1 0 0 1 1.32455e-7 -1 0 1.40489e-7 -0.7071066 -0.707107 0 0 1 0 0 1 1 6.95388e-7 0 4.63592e-7 -1 0 -1 -2.98023e-7 0 0 0 1 0 0 1 0 0 1 4.63592e-7 -1 0 0 0 1 0 0 1 -3.97364e-7 1 0 -3.27809e-7 0.7071067 -0.7071068 0 0 1 0 0 1 -1 -1.98682e-7 0 0 1 0 1 0 0 0 -1 0 0 0 1 0 0 1 0 0 1 0 0 1 0 1 0 0 0 1 0 -0.4472135 -0.8944272 0 0 1 0 0 1 -1 0 0 0 1 0 1 0 0 0 -1 0 0 0 -1 0 0 1 -1 0 0 -1.32455e-7 1 0 1 0 0 0 -1 0 0 0 -1 0 0 1 0 -1 0 1 0 0 0 1 0 -1 0 0 0 0 1 -0.1483399 0 -0.9889364 0.1483397 0 -0.9889366 0 0 -1 0 -1 0 0 -1 0 0 -1 0 1 0 0 0 1 0 0 1 0 0 1 0 -1 0 0 0 0 1 -0.1483399 0 -0.9889364 0.1483397 0 -0.9889366 0 0 -1 0 0 -1 0 -1 0 1 0 0 0 1 0 -1 0 0 0 0 1 -0.1483394 0 -0.9889365 0 0 -1 -8.42805e-7 -1 0 -7.94729e-7 -1 -1.81337e-7 1 0 0 0 1 0 0 1 0 -1 0 0 0 0 1 -0.1483399 0 -0.9889365 -1 0 0 0 1 0 1 0 0 0 -1 0 0 0 -1 0 0 1 -1 0 0 0 1 0 1 0 0 0 -1 0 0 0 -1 0 0 1 -1 0 0 -2.38419e-6 1 0 1 0 0 0 -1 0 0 0 -1 0 0 1 -1 0 0 -2.38419e-6 1 0 1 0 0 0 -1 0 0 0 -1 0 0 1 -1 0 0 0 1 0 1 0 0 0 -1 0 0 0 -1 0 0 1 -1 0 0 0 1 0 1 0 0 0 -1 0 0 0 -1 0 0 1 0 0 -1 -1 0 0 -5.96046e-7 -1 1.36003e-7 0 1 0 1 0 0 0 0 1 0.1483396 0 -0.9889365 0 0 -1 -1 0 0 -6.32104e-7 -1 0 0 -1 0 0 1 0 0 1 0 1 0 0 0 0 1 0.1483402 0 -0.9889364 0 0 -1 0 -1 0 1 0 0 0 1 0 -1 0 0 0 0 1 -0.1483394 0 -0.9889365 0.1483402 0 -0.9889364 0 0 -1 0 -1 0 0 -1 0 0 -1 0 1 0 0 0 1 0 0 1 0 0 1 0 -1 0 0 0 0 1 -0.1483394 0 -0.9889365 0.1483402 0 -0.9889364 -1 0 0 0 1 0 1 0 0 0 -1 0 0 0 -1 0 0 1 -1 0 0 0 1 0 1 0 0 0 -1 0 0 0 -1 0 0 1 -1 0 0 0 1 0 1 0 0 0 -1 0 0 0 -1 0 0 1 -1 0 0 0 1 0 1 0 0 0 -1 0 0 0 -1 0 0 1 -1 0 0 0 1 0 1 0 0 0 -1 0 0 0 -1 0 0 1 -1 0 0 0 1 0 1 0 0 0 -1 0 0 0 -1 0 0 1</float_array>
          <technique_common>
            <accessor source="#Cube_017-mesh-normals-array" count="372" stride="3">
              <param name="X" type="float"/>
              <param name="Y" type="float"/>
              <param name="Z" type="float"/>
            </accessor>
          </technique_common>
        </source>
        <source id="Cube_017-mesh-map-0">
          <float_array id="Cube_017-mesh-map-0-array" count="2232">0.5034356 0.25 0.625 0.5 0.5034356 0.5 0.375 0.75 0.625 1 0.375 1 0.625 0.75 0.375 0.75 0.4344849 0.5689507 0.625 0.5 0.875 0.75 0.625 0.75 0.5034356 0.25 0.434485 0.1810493 0.625 0 0.375 0.5689507 0.125 0.5 0.375 0.5 0.375 0.7125601 0.125 0.5689507 0.375 0.5689507 0.125 0.7125601 0.375 0.75 0.125 0.75 0.5034356 0.25 0.625 0.5 0.5034356 0.5 0.375 0.75 0.625 1 0.375 1 0.625 0.75 0.375 0.75 0.4344849 0.5689507 0.625 0.5 0.875 0.75 0.625 0.75 0.5034356 0.25 0.434485 0.1810493 0.625 0 0.375 0.5689507 0.125 0.5 0.375 0.5 0.375 0.7125601 0.125 0.5689507 0.375 0.5689507 0.125 0.7125601 0.375 0.75 0.125 0.75 0.4210278 0.75 0.625 1 0.4210278 1 0.421 0.25 0.625 0.5 0.421 0.5 0.625 0.5 0.875 0.75 0.625 0.75 0.4210278 0.75 0.4210278 0.75 0.421 0.5 0.2547745 0.546 0.125 0.5 0.375 0.5 0.2547745 0.546 0.3046467 0.7039722 0.2547745 0.7039722 0.421 0.5 0.3046467 0.7039722 0.3046467 0.546 0.4210278 0 0.625 0.25 0.421 0.25 0.2547745 0.546 0.125 0.7039722 0.125 0.546 0.375 0.75 0.375 0.75 0.125 0.75 0.4210278 0.75 0.625 1 0.4210278 1 0.421 0.25 0.625 0.5 0.421 0.5 0.625 0.5 0.875 0.75 0.625 0.75 0.4210278 0.75 0.4210278 0.75 0.421 0.5 0.2547745 0.546 0.125 0.5 0.375 0.5 0.2547745 0.546 0.3046467 0.7039722 0.2547745 0.7039722 0.421 0.5 0.3046467 0.7039722 0.3046467 0.546 0.4210278 0 0.625 0.25 0.421 0.25 0.2547745 0.546 0.125 0.7039722 0.125 0.546 0.375 0.75 0.375 0.75 0.125 0.75 0.375 0 0.625 0.25 0.375 0.25 0.375 0.25 0.625 0.5 0.375 0.5 0.375 0.5 0.625 0.75 0.375 0.75 0.375 0.75 0.625 1 0.375 1 0.375 0.75 0.375 1 0.375 1 0.625 0.5 0.875 0.75 0.625 0.75 0.375 0.5 0.375 0.75 0.375 0.5 0.375 0.25 0.375 0.5 0.375 0.5 0.125 0.5 0.375 0.5 0.125 0.5 0.125 0.5 0.375 0.75 0.125 0.75 0.375 0 0.375 0.25 0.375 0.25 0.375 0 0.625 0.25 0.375 0.25 0.375 0.25 0.625 0.5 0.375 0.5 0.375 0.5 0.625 0.75 0.375 0.75 0.375 0.75 0.625 1 0.375 1 0.125 0.5 0.375 0.75 0.125 0.75 0.625 0.5 0.875 0.75 0.625 0.75 0.4355392 0 0.625 0.25 0.4355392 0.25 0.4355392 0.25 0.625 0.5 0.4355392 0.5 0.4355392 0.5 0.625 0.75 0.4355392 0.75 0.4355392 0.75 0.4355391 1 0.4355391 1 0.625 0.5 0.875 0.75 0.625 0.75 0.125 0.5 0.375 0.5 0.125 0.5 0.375 0.25 0.4355392 0.5 0.375 0.5 0.4355392 0.5 0.4355392 0.75 0.375 0.5 0.4355392 0.75 0.625 1 0.4355391 1 0.125 0.5 0.375 0.75 0.125 0.75 0.4355392 0 0.4355392 0.25 0.375 0.25 0.4355392 0 0.625 0.25 0.4355392 0.25 0.4355392 0.25 0.625 0.5 0.4355392 0.5 0.4355392 0.5 0.625 0.75 0.4355392 0.75 0.4355392 0.75 0.4355391 1 0.4355391 1 0.625 0.5 0.875 0.75 0.625 0.75 0.125 0.5 0.375 0.5 0.125 0.5 0.375 0.25 0.4355392 0.5 0.375 0.5 0.4355392 0.5 0.4355392 0.75 0.375 0.5 0.4355392 0.75 0.625 1 0.4355391 1 0.125 0.5 0.375 0.75 0.125 0.75 0.4355392 0 0.4355392 0.25 0.375 0.25 0.375 0 0.625 0.25 0.375 0.25 0.375 0.25 0.625 0.5 0.375 0.5 0.375 0.5 0.625 0.75 0.375 0.75 0.375 0.75 0.625 1 0.375 1 0.375 0.75 0.375 1 0.375 1 0.625 0.5 0.875 0.75 0.625 0.75 0.375 0.5 0.375 0.75 0.375 0.5 0.375 0.25 0.375 0.5 0.375 0.5 0.125 0.5 0.375 0.5 0.125 0.5 0.125 0.5 0.375 0.75 0.125 0.75 0.375 0 0.375 0.25 0.375 0.25 0.375 0 0.625 0.25 0.375 0.25 0.375 0.25 0.625 0.5 0.375 0.5 0.375 0.5 0.625 0.75 0.375 0.75 0.375 0.75 0.625 1 0.375 1 0.125 0.5 0.375 0.75 0.125 0.75 0.625 0.5 0.875 0.75 0.625 0.75 0.375 0 0.625 0.25 0.375 0.25 0.375 0.25 0.625 0.5 0.375 0.5 0.375 0.5 0.625 0.75 0.375 0.75 0.375 0.75 0.625 1 0.375 1 0.125 0.5 0.375 0.75 0.125 0.75 0.625 0.5 0.875 0.75 0.625 0.75 0.5034356 0.25 0.625 0.25 0.625 0.5 0.375 0.75 0.625 0.75 0.625 1 0.375 0.75 0.375 0.7125601 0.4344849 0.5689507 0.4344849 0.5689507 0.5034356 0.5 0.625 0.75 0.5034356 0.5 0.625 0.5 0.625 0.75 0.625 0.5 0.875 0.5 0.875 0.75 0.375 0.03743994 0.375 0 0.434485 0.1810493 0.375 0 0.625 0 0.434485 0.1810493 0.625 0 0.625 0.25 0.5034356 0.25 0.375 0.5689507 0.125 0.5689507 0.125 0.5 0.375 0.7125601 0.125 0.7125601 0.125 0.5689507 0.125 0.7125601 0.375 0.7125601 0.375 0.75 0.5034356 0.25 0.625 0.25 0.625 0.5 0.375 0.75 0.625 0.75 0.625 1 0.375 0.75 0.375 0.7125601 0.4344849 0.5689507 0.4344849 0.5689507 0.5034356 0.5 0.625 0.75 0.5034356 0.5 0.625 0.5 0.625 0.75 0.625 0.5 0.875 0.5 0.875 0.75 0.375 0.03743994 0.375 0 0.434485 0.1810493 0.375 0 0.625 0 0.434485 0.1810493 0.625 0 0.625 0.25 0.5034356 0.25 0.375 0.5689507 0.125 0.5689507 0.125 0.5 0.375 0.7125601 0.125 0.7125601 0.125 0.5689507 0.125 0.7125601 0.375 0.7125601 0.375 0.75 0.4210278 0.75 0.625 0.75 0.625 1 0.421 0.25 0.625 0.25 0.625 0.5 0.625 0.5 0.875 0.5 0.875 0.75 0.421 0.5 0.421 0.5 0.625 0.5 0.421 0.5 0.625 0.5 0.4210278 0.75 0.625 0.5 0.625 0.75 0.4210278 0.75 0.375 0.5 0.375 0.5 0.3046467 0.546 0.375 0.5 0.3046467 0.546 0.2547745 0.546 0.125 0.5 0.125 0.5 0.375 0.5 0.2547745 0.546 0.3046467 0.546 0.3046467 0.7039722 0.421 0.5 0.4210278 0.75 0.3046467 0.7039722 0.4210278 0 0.4210278 0 0.625 0 0.4210278 0 0.625 0 0.625 0.25 0.421 0.25 0.421 0.25 0.4210278 0 0.2547745 0.546 0.2547745 0.7039722 0.125 0.7039722 0.125 0.75 0.125 0.75 0.2547745 0.7039722 0.125 0.75 0.2547745 0.7039722 0.375 0.75 0.2547745 0.7039722 0.3046467 0.7039722 0.375 0.75 0.4210278 0.75 0.625 0.75 0.625 1 0.421 0.25 0.625 0.25 0.625 0.5 0.625 0.5 0.875 0.5 0.875 0.75 0.421 0.5 0.421 0.5 0.625 0.5 0.421 0.5 0.625 0.5 0.4210278 0.75 0.625 0.5 0.625 0.75 0.4210278 0.75 0.375 0.5 0.375 0.5 0.3046467 0.546 0.375 0.5 0.3046467 0.546 0.2547745 0.546 0.125 0.5 0.125 0.5 0.375 0.5 0.2547745 0.546 0.3046467 0.546 0.3046467 0.7039722 0.421 0.5 0.4210278 0.75 0.3046467 0.7039722 0.4210278 0 0.4210278 0 0.625 0 0.4210278 0 0.625 0 0.625 0.25 0.421 0.25 0.421 0.25 0.4210278 0 0.2547745 0.546 0.2547745 0.7039722 0.125 0.7039722 0.125 0.75 0.125 0.75 0.2547745 0.7039722 0.125 0.75 0.2547745 0.7039722 0.375 0.75 0.2547745 0.7039722 0.3046467 0.7039722 0.375 0.75 0.375 0 0.625 0 0.625 0.25 0.375 0.25 0.625 0.25 0.625 0.5 0.375 0.5 0.625 0.5 0.625 0.75 0.375 0.75 0.625 0.75 0.625 1 0.375 0.75 0.375 0.75 0.375 1 0.625 0.5 0.875 0.5 0.875 0.75 0.375 0.5 0.375 0.5 0.375 0.5 0.375 0.75 0.375 0.75 0.375 0.5 0.375 0.25 0.375 0.25 0.375 0.5 0.125 0.5 0.375 0.5 0.375 0.5 0.125 0.5 0.375 0.5 0.375 0.75 0.375 0 0.375 0 0.375 0.25 0.375 0.25 0.375 0.25 0.375 0 0.375 0 0.625 0 0.625 0.25 0.375 0.25 0.625 0.25 0.625 0.5 0.375 0.5 0.625 0.5 0.625 0.75 0.375 0.75 0.625 0.75 0.625 1 0.125 0.5 0.375 0.5 0.375 0.75 0.625 0.5 0.875 0.5 0.875 0.75 0.4355392 0 0.625 0 0.625 0.25 0.4355392 0.25 0.625 0.25 0.625 0.5 0.4355392 0.5 0.625 0.5 0.625 0.75 0.4355392 0.75 0.4355392 0.75 0.4355391 1 0.625 0.5 0.875 0.5 0.875 0.75 0.125 0.5 0.375 0.5 0.375 0.5 0.375 0.25 0.4355392 0.25 0.4355392 0.5 0.375 0.5 0.375 0.5 0.4355392 0.5 0.4355392 0.75 0.4355392 0.75 0.375 0.5 0.4355392 0.75 0.625 0.75 0.625 1 0.125 0.5 0.375 0.5 0.375 0.75 0.4355392 0 0.4355392 0 0.4355392 0.25 0.375 0.25 0.375 0.25 0.4355392 0 0.4355392 0 0.625 0 0.625 0.25 0.4355392 0.25 0.625 0.25 0.625 0.5 0.4355392 0.5 0.625 0.5 0.625 0.75 0.4355392 0.75 0.4355392 0.75 0.4355391 1 0.625 0.5 0.875 0.5 0.875 0.75 0.125 0.5 0.375 0.5 0.375 0.5 0.375 0.25 0.4355392 0.25 0.4355392 0.5 0.375 0.5 0.375 0.5 0.4355392 0.5 0.4355392 0.75 0.4355392 0.75 0.375 0.5 0.4355392 0.75 0.625 0.75 0.625 1 0.125 0.5 0.375 0.5 0.375 0.75 0.4355392 0 0.4355392 0 0.4355392 0.25 0.375 0.25 0.375 0.25 0.4355392 0 0.375 0 0.625 0 0.625 0.25 0.375 0.25 0.625 0.25 0.625 0.5 0.375 0.5 0.625 0.5 0.625 0.75 0.375 0.75 0.625 0.75 0.625 1 0.375 0.75 0.375 0.75 0.375 1 0.625 0.5 0.875 0.5 0.875 0.75 0.375 0.5 0.375 0.5 0.375 0.5 0.375 0.75 0.375 0.75 0.375 0.5 0.375 0.25 0.375 0.25 0.375 0.5 0.125 0.5 0.375 0.5 0.375 0.5 0.125 0.5 0.375 0.5 0.375 0.75 0.375 0 0.375 0 0.375 0.25 0.375 0.25 0.375 0.25 0.375 0 0.375 0 0.625 0 0.625 0.25 0.375 0.25 0.625 0.25 0.625 0.5 0.375 0.5 0.625 0.5 0.625 0.75 0.375 0.75 0.625 0.75 0.625 1 0.125 0.5 0.375 0.5 0.375 0.75 0.625 0.5 0.875 0.5 0.875 0.75 0.375 0 0.625 0 0.625 0.25 0.375 0.25 0.625 0.25 0.625 0.5 0.375 0.5 0.625 0.5 0.625 0.75 0.375 0.75 0.625 0.75 0.625 1 0.125 0.5 0.375 0.5 0.375 0.75 0.625 0.5 0.875 0.5 0.875 0.75 0.625 1 0.3835566 1 0.375 0.9957217 0.3835566 0.5 0.625 0.75 0.3835566 0.75 0.625 0.5 0.3835566 0.5 0.375 0.4957217 0.3835566 0 0.625 0.25 0.3835566 0.25 0.625 0.5 0.875 0.75 0.625 0.75 0.1292783 0.5 0.125 0.75 0.125 0.5 0.3707217 0.75 0.3835566 0.5 0.3835566 0.75 0.1292783 0.5 0.3707217 0.75 0.1292783 0.75 0.375 0.9957217 0.375 0.7542783 0.625 1 0.375 0.7542783 0.3835566 0.75 0.625 0.75 0.625 1 0.375 0.7542783 0.625 0.75 0.3835566 0.5 0.625 0.5 0.625 0.75 0.375 0.4957217 0.375 0.2542783 0.625 0.5 0.375 0.2542783 0.3835566 0.25 0.625 0.25 0.625 0.5 0.375 0.2542783 0.625 0.25 0.3835566 0 0.625 0 0.625 0.25 0.625 0.5 0.875 0.5 0.875 0.75 0.1292783 0.5 0.1292783 0.75 0.125 0.75 0.3707217 0.75 0.3707217 0.5 0.3835566 0.5 0.1292783 0.5 0.3707217 0.5 0.3707217 0.75 0.139261 0.5 0.375 0.75 0.139261 0.75 0.625 1 0.3835566 1 0.375 0.9857391 0.375 0.5 0.625 0.75 0.375 0.75 0.625 0.5 0.375 0.264261 0.625 0.25 0.3835566 0 0.625 0.25 0.3835566 0.25 0.625 0.5 0.875 0.75 0.625 0.75 0.139261 0.5 0.125 0.75 0.125 0.5 0.139261 0.5 0.375 0.5 0.375 0.75 0.375 0.9857391 0.375 0.75 0.625 0.75 0.625 0.75 0.625 1 0.375 0.9857391 0.375 0.5 0.625 0.5 0.625 0.75 0.375 0.5 0.375 0.264261 0.625 0.5 0.375 0.264261 0.3835566 0.25 0.625 0.25 0.3835566 0 0.625 0 0.625 0.25 0.625 0.5 0.875 0.5 0.875 0.75 0.139261 0.5 0.139261 0.75 0.125 0.75 0.375 0 0.625 0.25 0.375 0.25 0.375 0.25 0.625 0.5 0.375 0.5 0.375 0.5 0.625 0.75 0.375 0.75 0.375 0.75 0.625 1 0.375 1 0.125 0.5 0.375 0.75 0.125 0.75 0.625 0.5 0.875 0.75 0.625 0.75 0.375 0 0.625 0 0.625 0.25 0.375 0.25 0.625 0.25 0.625 0.5 0.375 0.5 0.625 0.5 0.625 0.75 0.375 0.75 0.625 0.75 0.625 1 0.125 0.5 0.375 0.5 0.375 0.75 0.625 0.5 0.875 0.5 0.875 0.75 0.375 0 0.625 0.25 0.375 0.25 0.375 0.25 0.625 0.5 0.375 0.5 0.375 0.5 0.625 0.75 0.375 0.75 0.375 0.75 0.625 1 0.375 1 0.125 0.5 0.375 0.75 0.125 0.75 0.625 0.5 0.875 0.75 0.625 0.75 0.375 0 0.625 0 0.625 0.25 0.375 0.25 0.625 0.25 0.625 0.5 0.375 0.5 0.625 0.5 0.625 0.75 0.375 0.75 0.625 0.75 0.625 1 0.125 0.5 0.375 0.5 0.375 0.75 0.625 0.5 0.875 0.5 0.875 0.75 0.375 0 0.625 0.25 0.375 0.25 0.375 0.25 0.625 0.5 0.375 0.5 0.375 0.5 0.625 0.75 0.375 0.75 0.375 0.75 0.625 1 0.375 1 0.125 0.5 0.375 0.75 0.125 0.75 0.625 0.5 0.875 0.75 0.625 0.75 0.375 0 0.625 0 0.625 0.25 0.375 0.25 0.625 0.25 0.625 0.5 0.375 0.5 0.625 0.5 0.625 0.75 0.375 0.75 0.625 0.75 0.625 1 0.125 0.5 0.375 0.5 0.375 0.75 0.625 0.5 0.875 0.5 0.875 0.75 0.125 0.5 0.3607391 0.7500001 0.125 0.75 0.375 0 0.625 0.25 0.375 0.25 0.625 1 0.375 0.764261 0.625 0.75 0.625 0.5 0.3835566 0.5 0.375 0.485739 0.3835566 0.5 0.625 0.75 0.3835566 0.75 0.625 0.5 0.875 0.75 0.625 0.75 0.3607391 0.7500001 0.3835566 0.5 0.3835566 0.75 0.125 0.5 0.360739 0.5 0.3607391 0.7500001 0.375 0 0.625 0 0.625 0.25 0.375 1 0.375 0.764261 0.625 1 0.375 0.764261 0.3835566 0.75 0.625 0.75 0.375 0.485739 0.375 0.25 0.625 0.25 0.625 0.25 0.625 0.5 0.375 0.485739 0.3835566 0.5 0.625 0.5 0.625 0.75 0.625 0.5 0.875 0.5 0.875 0.75 0.3607391 0.7500001 0.360739 0.5 0.3835566 0.5 0.1292783 0.5 0.3707217 0.75 0.1292783 0.75 0.625 1 0.3835566 1 0.375 0.9957217 0.3835566 0.5 0.625 0.75 0.3835566 0.75 0.625 0.5 0.3835566 0.5 0.375 0.4957217 0.3835566 0 0.625 0.25 0.3835566 0.25 0.625 0.5 0.875 0.75 0.625 0.75 0.1292783 0.5 0.125 0.75 0.125 0.5 0.3707217 0.75 0.3835566 0.5 0.3835566 0.75 0.1292783 0.5 0.3707217 0.5 0.3707217 0.75 0.375 0.9957217 0.375 0.7542783 0.625 1 0.375 0.7542783 0.3835566 0.75 0.625 0.75 0.625 1 0.375 0.7542783 0.625 0.75 0.3835566 0.5 0.625 0.5 0.625 0.75 0.375 0.4957217 0.375 0.2542783 0.625 0.5 0.375 0.2542783 0.3835566 0.25 0.625 0.25 0.625 0.5 0.375 0.2542783 0.625 0.25 0.3835566 0 0.625 0 0.625 0.25 0.625 0.5 0.875 0.5 0.875 0.75 0.1292783 0.5 0.1292783 0.75 0.125 0.75 0.3707217 0.75 0.3707217 0.5 0.3835566 0.5 0.375 0 0.625 0.25 0.375 0.25 0.375 0.25 0.625 0.5 0.375 0.5 0.375 0.5 0.625 0.75 0.375 0.75 0.375 0.75 0.625 1 0.375 1 0.125 0.5 0.375 0.75 0.125 0.75 0.625 0.5 0.875 0.75 0.625 0.75 0.375 0 0.625 0 0.625 0.25 0.375 0.25 0.625 0.25 0.625 0.5 0.375 0.5 0.625 0.5 0.625 0.75 0.375 0.75 0.625 0.75 0.625 1 0.125 0.5 0.375 0.5 0.375 0.75 0.625 0.5 0.875 0.5 0.875 0.75 0.375 0 0.625 0.25 0.375 0.25 0.375 0.25 0.625 0.5 0.375 0.5 0.375 0.5 0.625 0.75 0.375 0.75 0.375 0.75 0.625 1 0.375 1 0.125 0.5 0.375 0.75 0.125 0.75 0.625 0.5 0.875 0.75 0.625 0.75 0.375 0 0.625 0 0.625 0.25 0.375 0.25 0.625 0.25 0.625 0.5 0.375 0.5 0.625 0.5 0.625 0.75 0.375 0.75 0.625 0.75 0.625 1 0.125 0.5 0.375 0.5 0.375 0.75 0.625 0.5 0.875 0.5 0.875 0.75 0.375 0 0.625 0.25 0.375 0.25 0.375 0.25 0.625 0.5 0.375 0.5 0.375 0.5 0.625 0.75 0.375 0.75 0.375 0.75 0.625 1 0.375 1 0.125 0.5 0.375 0.75 0.125 0.75 0.625 0.5 0.875 0.75 0.625 0.75 0.375 0 0.625 0 0.625 0.25 0.375 0.25 0.625 0.25 0.625 0.5 0.375 0.5 0.625 0.5 0.625 0.75 0.375 0.75 0.625 0.75 0.625 1 0.125 0.5 0.375 0.5 0.375 0.75 0.625 0.5 0.875 0.5 0.875 0.75</float_array>
          <technique_common>
            <accessor source="#Cube_017-mesh-map-0-array" count="1116" stride="2">
              <param name="S" type="float"/>
              <param name="T" type="float"/>
            </accessor>
          </technique_common>
        </source>
        <vertices id="Cube_017-mesh-vertices">
          <input semantic="POSITION" source="#Cube_017-mesh-positions"/>
        </vertices>
        <triangles material="Material_002-material" count="372">
          <input semantic="VERTEX" source="#Cube_017-mesh-vertices" offset="0"/>
          <input semantic="NORMAL" source="#Cube_017-mesh-normals" offset="1"/>
          <input semantic="TEXCOORD" source="#Cube_017-mesh-map-0" offset="2" set="0"/>
          <p>6 0 0 5 0 1 7 0 2 3 1 3 1 1 4 0 1 5 4 2 6 3 2 7 11 2 8 5 3 9 1 3 10 4 3 11 6 4 12 8 4 13 1 4 14 11 5 15 6 5 16 7 5 17 10 6 18 8 6 19 11 6 20 9 7 21 3 7 22 0 7 23 18 8 24 17 8 25 19 8 26 15 9 27 13 9 28 12 9 29 16 10 30 15 10 31 23 10 32 17 11 33 13 11 34 16 11 35 18 12 36 20 12 37 13 12 38 23 13 39 18 13 40 19 13 41 22 14 42 20 14 43 23 14 44 21 15 45 15 15 46 12 15 47 29 16 48 24 16 49 28 16 50 30 17 51 27 17 52 31 17 53 27 18 54 24 18 55 26 18 56 29 19 57 33 19 58 34 19 59 38 20 60 39 20 61 31 20 62 38 21 63 32 21 64 37 21 65 34 22 66 32 22 67 35 22 68 36 23 69 25 23 70 30 23 71 38 24 72 36 24 73 39 24 74 33 25 75 29 25 76 28 25 77 45 26 78 40 26 79 44 26 80 46 27 81 43 27 82 47 27 83 43 28 84 40 28 85 42 28 86 45 29 87 49 29 88 50 29 89 54 30 90 55 30 91 47 30 92 54 31 93 48 31 94 53 31 95 50 32 96 48 32 97 51 32 98 52 33 99 41 33 100 46 33 101 54 34 102 52 34 103 55 34 104 49 35 105 45 35 106 44 35 107 62 36 108 58 36 109 63 36 110 63 37 111 61 37 112 64 37 113 64 38 114 59 38 115 65 38 116 65 39 117 56 39 118 62 39 119 68 40 120 62 40 121 67 40 122 61 41 123 56 41 124 59 41 125 64 42 126 65 42 127 69 42 128 57 43 129 64 43 130 60 43 131 57 44 132 69 44 133 66 44 134 66 45 135 68 45 136 67 45 137 67 46 138 63 46 139 57 46 140 70 47 141 73 47 142 72 47 143 72 48 144 77 48 145 76 48 146 76 49 147 75 49 148 74 49 149 74 50 150 71 50 151 70 50 152 72 51 153 74 51 154 70 51 155 77 52 156 71 52 157 75 52 158 87 53 159 80 53 160 84 53 161 84 54 162 83 54 163 85 54 164 85 55 165 81 55 166 86 55 167 90 56 168 87 56 169 89 56 170 83 57 171 78 57 172 81 57 173 79 58 174 91 58 175 88 58 176 79 59 177 85 59 178 82 59 179 85 60 180 86 60 181 91 60 182 86 61 183 78 61 184 87 61 185 88 62 186 90 62 187 89 62 188 89 63 189 84 63 190 79 63 191 101 64 192 94 64 193 98 64 194 98 65 195 97 65 196 99 65 197 99 66 198 95 66 199 100 66 200 104 67 201 101 67 202 103 67 203 97 68 204 92 68 205 95 68 206 93 69 207 105 69 208 102 69 209 93 70 210 99 70 211 96 70 212 99 71 213 100 71 214 105 71 215 100 72 216 92 72 217 101 72 218 102 73 219 104 73 220 103 73 221 103 74 222 98 74 223 93 74 224 112 75 225 108 75 226 113 75 227 113 76 228 111 76 229 114 76 230 114 77 231 109 77 232 115 77 233 115 78 234 106 78 235 112 78 236 118 79 237 112 79 238 117 79 239 111 80 240 106 80 241 109 80 242 114 81 243 115 81 244 119 81 245 107 82 246 114 82 247 110 82 248 107 83 249 119 83 250 116 83 251 116 84 252 118 84 253 117 84 254 117 85 255 113 85 256 107 85 257 120 86 258 123 86 259 122 86 260 122 87 261 127 87 262 126 87 263 126 88 264 125 88 265 124 88 266 124 89 267 121 89 268 120 89 269 122 90 270 124 90 271 120 90 272 127 91 273 121 91 274 125 91 275 128 92 276 131 92 277 130 92 278 130 93 279 135 93 280 134 93 281 134 94 282 133 94 283 132 94 284 132 95 285 129 95 286 128 95 287 130 96 288 132 96 289 128 96 290 135 97 291 129 97 292 133 97 293 6 98 294 2 98 295 5 98 296 3 99 297 4 99 298 1 99 299 3 100 300 10 100 301 11 100 302 11 101 303 7 101 304 4 101 305 7 102 306 5 102 307 4 102 308 5 103 309 2 103 310 1 103 311 9 104 312 0 104 313 8 104 314 0 105 315 1 105 316 8 105 317 1 106 318 2 106 319 6 106 320 11 107 321 8 107 322 6 107 323 10 108 324 9 108 325 8 108 326 9 109 327 10 109 328 3 109 329 18 110 330 14 110 331 17 110 332 15 111 333 16 111 334 13 111 335 15 112 336 22 112 337 23 112 338 23 113 339 19 113 340 16 113 341 19 114 342 17 114 343 16 114 344 17 115 345 14 115 346 13 115 347 21 116 348 12 116 349 20 116 350 12 117 351 13 117 352 20 117 353 13 118 354 14 118 355 18 118 356 23 119 357 20 119 358 18 119 359 22 120 360 21 120 361 20 120 362 21 121 363 22 121 364 15 121 365 29 122 366 26 122 367 24 122 368 30 123 369 25 123 370 27 123 371 27 124 372 25 124 373 24 124 374 34 125 375 31 125 376 27 125 377 34 126 378 27 126 379 29 126 380 27 127 381 26 127 382 29 127 383 31 128 384 34 128 385 35 128 386 31 129 387 35 129 388 38 129 389 39 130 390 30 130 391 31 130 392 38 131 393 35 131 394 32 131 395 34 132 396 33 132 397 32 132 398 36 133 399 28 133 400 24 133 401 36 134 402 24 134 403 25 134 404 30 135 405 39 135 406 36 135 407 38 136 408 37 136 409 36 136 410 28 137 411 36 137 412 37 137 413 28 138 414 37 138 415 33 138 416 37 139 417 32 139 418 33 139 419 45 140 420 42 140 421 40 140 422 46 141 423 41 141 424 43 141 425 43 142 426 41 142 427 40 142 428 50 143 429 47 143 430 43 143 431 50 144 432 43 144 433 45 144 434 43 145 435 42 145 436 45 145 437 47 146 438 50 146 439 51 146 440 47 147 441 51 147 442 54 147 443 55 148 444 46 148 445 47 148 446 54 149 447 51 149 448 48 149 449 50 150 450 49 150 451 48 150 452 52 151 453 44 151 454 40 151 455 52 152 456 40 152 457 41 152 458 46 153 459 55 153 460 52 153 461 54 154 462 53 154 463 52 154 464 44 155 465 52 155 466 53 155 467 44 156 468 53 156 469 49 156 470 53 157 471 48 157 472 49 157 473 62 158 474 56 158 475 58 158 476 63 159 477 58 159 478 61 159 479 64 160 480 61 160 481 59 160 482 65 161 483 59 161 484 56 161 485 68 162 486 65 162 487 62 162 488 61 163 489 58 163 490 56 163 491 69 164 492 60 164 493 64 164 494 65 165 495 68 165 496 69 165 497 57 166 498 63 166 499 64 166 500 57 167 501 60 167 502 69 167 503 66 168 504 69 168 505 68 168 506 67 169 507 62 169 508 63 169 509 57 170 510 66 170 511 67 170 512 70 171 513 71 171 514 73 171 515 72 172 516 73 172 517 77 172 518 76 173 519 77 173 520 75 173 521 74 174 522 75 174 523 71 174 524 72 175 525 76 175 526 74 175 527 77 176 528 73 176 529 71 176 530 87 177 531 78 177 532 80 177 533 84 178 534 80 178 535 83 178 536 85 179 537 83 179 538 81 179 539 90 180 540 86 180 541 87 180 542 83 181 543 80 181 544 78 181 545 79 182 546 82 182 547 91 182 548 79 183 549 84 183 550 85 183 551 91 184 552 82 184 553 85 184 554 86 185 555 90 185 556 91 185 557 86 186 558 81 186 559 78 186 560 88 187 561 91 187 562 90 187 563 89 188 564 87 188 565 84 188 566 79 189 567 88 189 568 89 189 569 101 190 570 92 190 571 94 190 572 98 191 573 94 191 574 97 191 575 99 192 576 97 192 577 95 192 578 104 193 579 100 193 580 101 193 581 97 194 582 94 194 583 92 194 584 93 195 585 96 195 586 105 195 587 93 196 588 98 196 589 99 196 590 105 197 591 96 197 592 99 197 593 100 198 594 104 198 595 105 198 596 100 199 597 95 199 598 92 199 599 102 200 600 105 200 601 104 200 602 103 201 603 101 201 604 98 201 605 93 202 606 102 202 607 103 202 608 112 203 609 106 203 610 108 203 611 113 204 612 108 204 613 111 204 614 114 205 615 111 205 616 109 205 617 115 206 618 109 206 619 106 206 620 118 207 621 115 207 622 112 207 623 111 208 624 108 208 625 106 208 626 119 209 627 110 209 628 114 209 629 115 210 630 118 210 631 119 210 632 107 211 633 113 211 634 114 211 635 107 212 636 110 212 637 119 212 638 116 213 639 119 213 640 118 213 641 117 214 642 112 214 643 113 214 644 107 215 645 116 215 646 117 215 647 120 216 648 121 216 649 123 216 650 122 217 651 123 217 652 127 217 653 126 218 654 127 218 655 125 218 656 124 219 657 125 219 658 121 219 659 122 220 660 126 220 661 124 220 662 127 221 663 123 221 664 121 221 665 128 222 666 129 222 667 131 222 668 130 223 669 131 223 670 135 223 671 134 224 672 135 224 673 133 224 674 132 225 675 133 225 676 129 225 677 130 226 678 134 226 679 132 226 680 135 227 681 131 227 682 129 227 683 136 228 684 140 228 685 141 228 686 146 229 687 138 229 688 145 229 689 139 230 690 146 230 691 147 230 692 140 231 693 137 231 694 143 231 695 139 232 696 136 232 697 138 232 698 142 233 699 140 233 700 143 233 701 144 234 702 146 234 703 145 234 704 142 235 705 144 235 706 141 235 707 141 236 708 144 236 709 136 236 710 144 237 711 145 237 712 138 237 713 136 238 714 144 238 715 138 238 716 146 239 717 139 239 718 138 239 719 147 240 720 142 240 721 139 240 722 142 241 723 143 241 724 137 241 725 139 242 726 142 242 727 137 242 728 140 243 729 136 243 730 137 243 731 139 244 732 137 244 733 136 244 734 142 245 735 141 245 736 140 245 737 144 246 738 147 246 739 146 246 740 142 247 741 147 247 742 144 247 743 156 248 744 150 248 745 155 248 746 148 249 747 154 249 748 155 249 749 152 250 750 151 250 751 150 250 752 153 251 753 156 251 754 149 251 755 154 252 756 149 252 757 157 252 758 153 253 759 148 253 760 151 253 761 156 254 762 154 254 763 157 254 764 156 255 765 152 255 766 150 255 767 155 256 768 150 256 769 151 256 770 151 257 771 148 257 772 155 257 773 152 258 774 153 258 775 151 258 776 152 259 777 156 259 778 153 259 779 156 260 780 157 260 781 149 260 782 154 261 783 148 261 784 149 261 785 153 262 786 149 262 787 148 262 788 156 263 789 155 263 790 154 263 791 158 264 792 161 264 793 160 264 794 160 265 795 165 265 796 164 265 797 164 266 798 163 266 799 162 266 800 162 267 801 159 267 802 158 267 803 160 268 804 162 268 805 158 268 806 165 269 807 159 269 808 163 269 809 158 270 810 159 270 811 161 270 812 160 271 813 161 271 814 165 271 815 164 272 816 165 272 817 163 272 818 162 273 819 163 273 820 159 273 821 160 274 822 164 274 823 162 274 824 165 275 825 161 275 826 159 275 827 166 276 828 169 276 829 168 276 830 168 277 831 173 277 832 172 277 833 172 278 834 171 278 835 170 278 836 170 279 837 167 279 838 166 279 839 168 280 840 170 280 841 166 280 842 173 281 843 167 281 844 171 281 845 166 282 846 167 282 847 169 282 848 168 283 849 169 283 850 173 283 851 172 284 852 173 284 853 171 284 854 170 285 855 171 285 856 167 285 857 168 286 858 172 286 859 170 286 860 173 287 861 169 287 862 167 287 863 174 288 864 177 288 865 176 288 866 176 289 867 181 289 868 180 289 869 180 290 870 179 290 871 178 290 872 178 291 873 175 291 874 174 291 875 176 292 876 178 292 877 174 292 878 181 293 879 175 293 880 179 293 881 174 294 882 175 294 883 177 294 884 176 295 885 177 295 886 181 295 887 180 296 888 181 296 889 179 296 890 178 297 891 179 297 892 175 297 893 176 298 894 180 298 895 178 298 896 181 299 897 177 299 898 175 299 899 184 300 900 188 300 901 182 300 902 182 301 903 185 301 904 184 301 905 183 302 906 188 302 907 186 302 908 187 303 909 190 303 910 191 303 911 190 304 912 186 304 913 189 304 914 187 305 915 183 305 916 186 305 917 188 306 918 190 306 919 189 306 920 184 307 921 191 307 922 188 307 923 182 308 924 183 308 925 185 308 926 182 309 927 188 309 928 183 309 929 188 310 930 189 310 931 186 310 932 191 311 933 184 311 934 185 311 935 185 312 936 187 312 937 191 312 938 190 313 939 187 313 940 186 313 941 187 314 942 185 314 943 183 314 944 188 315 945 191 315 946 190 315 947 198 316 948 200 316 949 197 316 950 192 317 951 196 317 952 197 317 953 202 318 954 194 318 955 201 318 956 195 319 957 202 319 958 203 319 959 196 320 960 193 320 961 199 320 962 195 321 963 192 321 964 194 321 965 198 322 966 196 322 967 199 322 968 200 323 969 202 323 970 201 323 971 198 324 972 203 324 973 200 324 974 197 325 975 200 325 976 192 325 977 200 326 978 201 326 979 194 326 980 192 327 981 200 327 982 194 327 983 202 328 984 195 328 985 194 328 986 203 329 987 198 329 988 195 329 989 198 330 990 199 330 991 193 330 992 195 331 993 198 331 994 193 331 995 196 332 996 192 332 997 193 332 998 195 333 999 193 333 1000 192 333 1001 198 334 1002 197 334 1003 196 334 1004 200 335 1005 203 335 1006 202 335 1007 204 336 1008 207 336 1009 206 336 1010 206 337 1011 211 337 1012 210 337 1013 210 338 1014 209 338 1015 208 338 1016 208 339 1017 205 339 1018 204 339 1019 206 340 1020 208 340 1021 204 340 1022 211 341 1023 205 341 1024 209 341 1025 204 342 1026 205 342 1027 207 342 1028 206 343 1029 207 343 1030 211 343 1031 210 344 1032 211 344 1033 209 344 1034 208 345 1035 209 345 1036 205 345 1037 206 346 1038 210 346 1039 208 346 1040 211 347 1041 207 347 1042 205 347 1043 212 348 1044 215 348 1045 214 348 1046 214 349 1047 219 349 1048 218 349 1049 218 350 1050 217 350 1051 216 350 1052 216 351 1053 213 351 1054 212 351 1055 214 352 1056 216 352 1057 212 352 1058 219 353 1059 213 353 1060 217 353 1061 212 354 1062 213 354 1063 215 354 1064 214 355 1065 215 355 1066 219 355 1067 218 356 1068 219 356 1069 217 356 1070 216 357 1071 217 357 1072 213 357 1073 214 358 1074 218 358 1075 216 358 1076 219 359 1077 215 359 1078 213 359 1079 220 360 1080 223 360 1081 222 360 1082 222 361 1083 227 361 1084 226 361 1085 226 362 1086 225 362 1087 224 362 1088 224 363 1089 221 363 1090 220 363 1091 222 364 1092 224 364 1093 220 364 1094 227 365 1095 221 365 1096 225 365 1097 220 366 1098 221 366 1099 223 366 1100 222 367 1101 223 367 1102 227 367 1103 226 368 1104 227 368 1105 225 368 1106 224 369 1107 225 369 1108 221 369 1109 222 370 1110 226 370 1111 224 370 1112 227 371 1113 223 371 1114 221 371 1115</p>
        </triangles>
      </mesh>
    </geometry>
  </library_geometries>
  <library_visual_scenes>
    <visual_scene id="Scene" name="Scene">
      <node id="tmp_export_Cube_017" name="tmp_export_Cube.017" type="NODE">
        <matrix sid="transform">1 0 0 0 0 1 0 0 0 0 1 0 0 0 0 1</matrix>
        <instance_geometry url="#Cube_017-mesh" name="tmp_export_Cube.017">
          <bind_material>
            <technique_common>
              <instance_material symbol="Material_002-material" target="#Material_002-material">
                <bind_vertex_input semantic="UVMap" input_semantic="TEXCOORD" input_set="0"/>
              </instance_material>
            </technique_common>
          </bind_material>
        </instance_geometry>
      </node>
    </visual_scene>
  </library_visual_scenes>
  <scene>
    <instance_visual_scene url="#Scene"/>
  </scene>
</COLLADA>