<?xml version="1.0" encoding="utf-8"?>
<COLLADA xmlns="http://www.collada.org/2005/11/COLLADASchema" version="1.4.1" xmlns:xsi="http://www.w3.org/2001/XMLSchema-instance">
  <asset>
    <contributor>
      <author>Blender User</author>
      <authoring_tool>Blender 4.2.18 LTS commit date:2026-02-16, commit time:13:37, hash:d71e3422e438</authoring_tool>
    </contributor>
    <created>2026-04-03T18:41:27</created>
    <modified>2026-04-03T18:41:27</modified>
    <unit name="meter" meter="1"/>
    <up_axis>Z_UP</up_axis>
  </asset>
  <library_effects>
    <effect id="Material-effect">
      <profile_COMMON>
        <technique sid="common">
          <lambert>
            <emission>
              <color sid="emission">0 0 0 1</color>
            </emission>
            <diffuse>
              <color sid="diffuse">0.198068 0.1980695 0.1980694 1</color>
            </diffuse>
            <index_of_refraction>
              <float sid="ior">1.5</float>
            </index_of_refraction>
          </lambert>
        </technique>
      </profile_COMMON>
    </effect>
  </library_effects>
  <library_images/>
  <library_materials>
    <material id="Material-material" name="Material">
      <instance_effect url="#Material-effect"/>
    </material>
  </library_materials>
  <library_geometries>
    <geometry id="Cylinder_007-mesh" name="Cylinder.007">
      <mesh>
        <source id="Cylinder_007-mesh-positions">
          <float_array id="Cylinder_007-mesh-positions-array" count="1062">0.05264467 1.897167 0.3010158 0.05264467 1.857401 0.2462822 0.05264467 1.793058 0.2671886 0.05264467 1.793058 0.334843 0.05264467 1.857401 0.3557493 -0.1373552 1.897167 0.3010158 -0.1373552 1.857401 0.2462822 -0.1373552 1.793058 0.2671886 -0.1373552 1.793058 0.334843 -0.1373552 1.857401 0.3557493 -0.02735531 1.382797 -0.08781683 0.05264467 1.382797 -0.08781677 -0.02735531 1.343031 -0.1425504 0.05264467 1.343031 -0.1425504 -0.02735531 1.278688 -0.121644 0.05264467 1.278688 -0.121644 -0.02735531 1.278688 -0.05398958 0.05264467 1.278688 -0.05398958 -0.02735531 1.343031 -0.03308326 0.05264467 1.343031 -0.03308326 0.1012125 -1.402287 -0.4489842 0.1512125 -1.402287 -0.4489842 0.1012125 -1.40276 -0.4537824 0.1512125 -1.40276 -0.4537824 0.1012125 -1.40416 -0.4583964 0.1512125 -1.40416 -0.4583964 0.1012125 -1.406432 -0.4626485 0.1512125 -1.406432 -0.4626485 0.1012125 -1.409491 -0.4663756 0.1512125 -1.409491 -0.4663756 0.1012125 -1.413218 -0.4694343 0.1512125 -1.413218 -0.4694343 0.1012125 -1.41747 -0.4717072 0.1512125 -1.41747 -0.4717072 0.1012125 -1.422084 -0.4731068 0.1512125 -1.422084 -0.4731068 0.1012125 -1.426883 -0.4735794 0.1512125 -1.426883 -0.4735794 0.1012125 -1.431681 -0.4731068 0.1512125 -1.431681 -0.4731068 0.1012125 -1.436295 -0.4717072 0.1512125 -1.436295 -0.4717072 0.1012125 -1.440547 -0.4694343 0.1512125 -1.440547 -0.4694343 0.1012125 -1.444274 -0.4663756 0.1512125 -1.444274 -0.4663756 0.1012125 -1.447333 -0.4626485 0.1512125 -1.447333 -0.4626485 0.1012125 -1.449606 -0.4583964 0.1512125 -1.449606 -0.4583964 0.1012125 -1.451005 -0.4537824 0.1512125 -1.451005 -0.4537824 0.1012125 -1.451478 -0.4489842 0.1512125 -1.451478 -0.4489842 0.1012125 -1.451005 -0.444186 0.1512125 -1.451005 -0.444186 0.1012125 -1.449606 -0.4395721 0.1512125 -1.449606 -0.4395721 0.1012125 -1.447333 -0.4353199 0.1512125 -1.447333 -0.4353199 0.1012125 -1.444274 -0.4315928 0.1512125 -1.444274 -0.4315928 0.1012125 -1.440547 -0.4285342 0.1512125 -1.440547 -0.4285342 0.1012125 -1.436295 -0.4262613 0.1512125 -1.436295 -0.4262613 0.1012125 -1.431681 -0.4248617 0.1512125 -1.431681 -0.4248617 0.1012125 -1.426883 -0.4243891 0.1512125 -1.426883 -0.4243891 0.1012125 -1.422084 -0.4248617 0.1512125 -1.422084 -0.4248617 0.1012125 -1.41747 -0.4262613 0.1512125 -1.41747 -0.4262613 0.1012125 -1.413218 -0.4285342 0.1512125 -1.413218 -0.4285342 0.1012125 -1.409491 -0.4315928 0.1512125 -1.409491 -0.4315928 0.1012125 -1.406432 -0.4353199 0.1512125 -1.406432 -0.4353199 0.1012125 -1.40416 -0.4395721 0.1512125 -1.40416 -0.4395721 0.1012125 -1.40276 -0.444186 0.1512125 -1.40276 -0.444186 0.1012125 1.826072 -0.4489842 0.1512125 1.826072 -0.4489842 0.1012125 1.8256 -0.4537824 0.1512125 1.8256 -0.4537824 0.1012125 1.8242 -0.4583964 0.1512125 1.8242 -0.4583964 0.1012125 1.821927 -0.4626485 0.1512125 1.821927 -0.4626485 0.1012125 1.818868 -0.4663756 0.1512125 1.818868 -0.4663756 0.1012125 1.815141 -0.4694343 0.1512125 1.815141 -0.4694343 0.1012125 1.810889 -0.4717072 0.1512125 1.810889 -0.4717072 0.1012125 1.806275 -0.4731068 0.1512125 1.806275 -0.4731068 0.1012125 1.801477 -0.4735794 0.1512125 1.801477 -0.4735794 0.1012125 1.796679 -0.4731068 0.1512125 1.796679 -0.4731068 0.1012125 1.792065 -0.4717072 0.1512125 1.792065 -0.4717072 0.1012125 1.787813 -0.4694343 0.1512125 1.787813 -0.4694343 0.1012125 1.784086 -0.4663756 0.1512125 1.784086 -0.4663756 0.1012125 1.781027 -0.4626485 0.1512125 1.781027 -0.4626485 0.1012125 1.778754 -0.4583964 0.1512125 1.778754 -0.4583964 0.1012125 1.777355 -0.4537824 0.1512125 1.777355 -0.4537824 0.1012125 1.776882 -0.4489842 0.1512125 1.776882 -0.4489842 0.1012125 1.777355 -0.444186 0.1512125 1.777355 -0.444186 0.1012125 1.778754 -0.4395721 0.1512125 1.778754 -0.4395721 0.1012125 1.781027 -0.4353199 0.1512125 1.781027 -0.4353199 0.1012125 1.784086 -0.4315928 0.1512125 1.784086 -0.4315928 0.1012125 1.787813 -0.4285342 0.1512125 1.787813 -0.4285342 0.1012125 1.792065 -0.4262613 0.1512125 1.792065 -0.4262613 0.1012125 1.796679 -0.4248617 0.1512125 1.796679 -0.4248617 0.1012125 1.801477 -0.4243891 0.1512125 1.801477 -0.4243891 0.1012125 1.806275 -0.4248617 0.1512125 1.806275 -0.4248617 0.1012125 1.810889 -0.4262613 0.1512125 1.810889 -0.4262613 0.1012125 1.815141 -0.4285342 0.1512125 1.815141 -0.4285342 0.1012125 1.818868 -0.4315928 0.1512125 1.818868 -0.4315928 0.1012125 1.821927 -0.4353199 0.1512125 1.821927 -0.4353199 0.1012125 1.8242 -0.4395721 0.1512125 1.8242 -0.4395721 0.1012125 1.8256 -0.444186 0.1512125 1.8256 -0.444186 0.1012125 0.2142123 -0.4489842 0.1512125 0.2142123 -0.4489842 0.1012125 0.2137396 -0.4537824 0.1512125 0.2137396 -0.4537824 0.1012125 0.2123401 -0.4583964 0.1512125 0.2123401 -0.4583964 0.1012125 0.2100673 -0.4626485 0.1512125 0.2100673 -0.4626485 0.1012125 0.2070086 -0.4663756 0.1512125 0.2070086 -0.4663756 0.1012125 0.2032815 -0.4694343 0.1512125 0.2032815 -0.4694343 0.1012125 0.1990294 -0.4717072 0.1512125 0.1990294 -0.4717072 0.1012125 0.1944155 -0.4731068 0.1512125 0.1944155 -0.4731068 0.1012125 0.1896172 -0.4735794 0.1512125 0.1896172 -0.4735794 0.1012125 0.1848189 -0.4731068 0.1512125 0.1848189 -0.4731068 0.1012125 0.180205 -0.4717072 0.1512125 0.180205 -0.4717072 0.1012125 0.1759529 -0.4694343 0.1512125 0.1759529 -0.4694343 0.1012125 0.1722258 -0.4663756 0.1512125 0.1722258 -0.4663756 0.1012125 0.1691671 -0.4626485 0.1512125 0.1691671 -0.4626485 0.1012125 0.1668943 -0.4583964 0.1512125 0.1668943 -0.4583964 0.1012125 0.1654947 -0.4537824 0.1512125 0.1654947 -0.4537824 0.1012125 0.165022 -0.4489842 0.1512125 0.165022 -0.4489842 0.1012125 0.1654947 -0.444186 0.1512125 0.1654947 -0.444186 0.1012125 0.1668943 -0.4395721 0.1512125 0.1668943 -0.4395721 0.1012125 0.1691671 -0.4353199 0.1512125 0.1691671 -0.4353199 0.1012125 0.1722258 -0.4315928 0.1512125 0.1722258 -0.4315928 0.1012125 0.1759529 -0.4285342 0.1512125 0.1759529 -0.4285342 0.1012125 0.180205 -0.4262613 0.1512125 0.180205 -0.4262613 0.1012125 0.1848189 -0.4248617 0.1512125 0.1848189 -0.4248617 0.1012125 0.1896172 -0.4243891 0.1512125 0.1896172 -0.4243891 0.1012125 0.1944155 -0.4248617 0.1512125 0.1944155 -0.4248617 0.1012125 0.1990294 -0.4262613 0.1512125 0.1990294 -0.4262613 0.1012125 0.2032815 -0.4285342 0.1512125 0.2032815 -0.4285342 0.1012125 0.2070086 -0.4315928 0.1512125 0.2070086 -0.4315928 0.1012125 0.2100673 -0.4353199 0.1512125 0.2100673 -0.4353199 0.1012125 0.2123401 -0.4395721 0.1512125 0.2123401 -0.4395721 0.1012125 0.2137396 -0.444186 0.1512125 0.2137396 -0.444186 -0.02735531 -0.8884626 -0.08781683 0.05264467 -0.8884626 -0.08781677 -0.02735531 -0.9282287 -0.1425504 0.05264467 -0.9282287 -0.1425504 -0.02735531 -0.9925719 -0.121644 0.05264467 -0.9925719 -0.121644 -0.02735531 -0.9925719 -0.05398958 0.05264467 -0.9925719 -0.05398958 -0.02735531 -0.9282287 -0.03308326 0.05264467 -0.9282287 -0.03308326 0.1206718 0.2130592 -0.4426404 0.1206849 0.201768 -0.457855 0.04446816 -0.9091334 -0.08430236 0.04450684 -0.962678 -0.1292745 -0.009966671 -0.9091334 -0.08434915 0.1022559 0.2130592 -0.4426563 0.1022689 0.201768 -0.4578709 -0.009928047 -0.962678 -0.1293213 0.04442548 1.32244 -0.05525612 0.04442548 -0.9432054 -0.05525612 0.04442548 -0.9432054 -0.119707 0.04442548 1.32244 -0.119707 -0.00989145 1.32244 -0.05525612 -0.00989145 -0.9432054 -0.05525612 -0.00989139 -0.9432054 -0.119707 -0.00989139 1.32244 -0.119707 0.1206716 0.1650645 -0.4426405 0.1206847 0.1763557 -0.4578551 0.04446804 1.31118 -0.08430236 0.04450666 1.364725 -0.1292746 -0.00996685 1.31118 -0.08434915 0.1022557 0.1650645 -0.4426563 0.1022688 0.1763557 -0.4578709 -0.009928166 1.364725 -0.1293213 0.1206718 1.812412 -0.4426404 0.1206849 1.801121 -0.457855 0.04446816 1.370759 -0.08430236 0.04450684 1.317215 -0.1292746 -0.009966671 1.370759 -0.08434915 0.1022559 1.812412 -0.4426563 0.1022689 1.801121 -0.4578709 -0.009928047 1.317215 -0.1293213 -0.009882986 0.1549082 0.158872 -0.009882986 0.1549082 -0.05525612 -0.009882986 0.2243262 0.158872 -0.009882986 0.2243262 -0.05525612 0.04370939 0.2243262 0.158872 0.04370939 0.1549082 0.158872 0.04370939 0.1549082 -0.05525612 0.04370939 0.2243262 -0.05525612 0.05264461 -1.402832 0.3010157 0.05264461 -1.442599 0.2462822 0.05264461 -1.506942 0.2671886 0.05264461 -1.506942 0.3348429 0.05264461 -1.442599 0.3557493 -0.1373553 -1.402832 0.3010157 -0.1373553 -1.442599 0.2462822 -0.1373553 -1.506942 0.2671886 -0.1373553 -1.506942 0.3348429 -0.1373553 -1.442599 0.3557493 0.1206716 -1.433178 -0.4426405 0.1206847 -1.421887 -0.4578551 0.04446804 -0.9915249 -0.0843023 0.04450666 -0.9379804 -0.1292746 -0.00996685 -0.9915249 -0.08434909 0.1022557 -1.433178 -0.4426563 0.1022688 -1.421887 -0.4578709 -0.009928166 -0.9379804 -0.1293213 -0.07937878 0.2061618 0.162483 -0.07937878 0.1807227 0.1428294 -0.01920181 0.2061618 0.162483 -0.01920181 0.1807227 0.1428294 -0.07937878 -0.0777924 0.4774461 -0.07937878 -0.05235314 0.4970996 -0.01920181 -0.0777924 0.4774461 -0.01920181 -0.05235314 0.4970996 -0.07937872 0.1761636 0.162483 -0.07937872 0.2016028 0.1428294 -0.01920181 0.1761636 0.162483 -0.01920181 0.2016028 0.1428294 -0.07937878 0.4601179 0.4774461 -0.07937878 0.4346787 0.4970996 -0.01920181 0.4601179 0.4774461 -0.01920181 0.4346787 0.4970996 0.05264461 0.2471674 0.1624926 0.05264461 0.2074012 0.1077591 0.05264461 0.1430581 0.1286654 0.05264461 0.1430581 0.1963198 0.05264461 0.2074012 0.2172262 -0.1373553 0.2471674 0.1624926 -0.1373553 0.2074012 0.1077591 -0.1373553 0.1430581 0.1286654 -0.1373553 0.1430581 0.1963198 -0.1373553 0.2074012 0.2172262 0.04292559 1.251243 0.332427 0.04292559 1.580486 0.08606868 -0.00975269 1.580486 0.08606868 -0.009752631 1.251243 0.332427 0.04292559 1.275447 0.3647744 0.04292553 1.60469 0.1184161 -0.009752631 1.275447 0.3647744 -0.00975269 1.60469 0.1184161 0.04292559 -1.475449 0.2804084 0.04292559 -0.9303067 -0.1274977 -0.00975269 -0.9303067 -0.1274977 -0.009752631 -1.475449 0.2804084 0.04292559 -1.445296 0.3207063 0.04292553 -0.9001538 -0.0871998 -0.009752631 -1.445296 0.3207063 -0.00975269 -0.9001538 -0.0871998 0.04292559 1.854686 0.2804084 0.04292559 1.309543 -0.1274977 -0.00975269 1.309543 -0.1274977 -0.009752631 1.854686 0.2804084 0.04292559 1.824533 0.3207063 0.04292553 1.27939 -0.0871998 -0.009752631 1.824533 0.3207063 -0.00975269 1.27939 -0.0871998 0.04292559 1.269836 0.3328124 -0.009752631 1.269836 0.3328124 0.04292559 1.229436 0.3328124 -0.009752631 1.229436 0.3328124 0.04292559 1.269836 0.4825801 -0.009752631 1.269836 0.4825801 -0.009752631 1.229436 0.4825801 0.04292559 1.229436 0.4825801 0.04292559 -0.8720118 0.3324267 0.04292553 -1.201255 0.08606839 -0.00975269 -1.201255 0.08606839 -0.009752631 -0.8720118 0.3324267 0.04292559 -0.8962159 0.3647741 0.04292553 -1.225459 0.1184158 -0.009752631 -0.8962159 0.3647741 -0.00975269 -1.225459 0.1184158 0.04292559 -0.8716423 0.3328124 -0.009752631 -0.8716423 0.3328124 0.04292559 -0.9120427 0.3328124 -0.009752631 -0.9120427 0.3328124 0.04292559 -0.8716423 0.4825801 -0.009752631 -0.8716423 0.4825801 -0.009752631 -0.9120427 0.4825801 0.04292559 -0.9120427 0.4825801</float_array>
          <technique_common>
            <accessor source="#Cylinder_007-mesh-positions-array" count="354" stride="3">
              <param name="X" type="float"/>
              <param name="Y" type="float"/>
              <param name="Z" type="float"/>
            </accessor>
          </technique_common>
        </source>
        <source id="Cylinder_007-mesh-normals">
          <float_array id="Cylinder_007-mesh-normals-array" count="1023">-0.5957124 -0.6498008 -0.4721078 0.5957118 0.2482159 -0.7638823 0.5957117 -0.6498011 -0.4721084 0.5957223 -0.6497946 0.4721038 -0.5957216 0.2482141 0.7638754 0.5957026 0.2481905 0.7638979 -0.5957121 0.803198 -1.41087e-5 0.5957022 0.8032054 1.37321e-5 -0.5957021 -0.6498066 0.4721127 -0.5957022 0.2481902 -0.7638982 0.5956739 0.8032265 0 -0.5956931 0.2482054 -0.7639005 -0.5957029 0.803205 -2.76719e-7 0.5956837 -0.6498181 -0.4721202 -0.5957017 -0.6498066 -0.4721133 -0.5956832 -0.6498265 0.4721092 0.5957023 0.248204 0.7638937 0.595702 -0.649798 0.4721246 -0.5956737 0.2482098 0.7639141 0.6856873 0.7278962 -6.73021e-7 -0.6856823 0.7139149 -0.142005 -0.6856915 0.7278923 2.17908e-7 0.6856964 0.7139017 -0.1420032 -0.6856977 0.6724773 -0.2785552 0.685669 0.6725093 -0.278549 -0.6856809 0.6052266 -0.4044038 0.6856945 0.605222 -0.4043878 -0.6857005 0.5146892 -0.5146941 0.6856935 0.5146865 -0.5147061 -0.6856933 0.4043938 -0.6052193 0.6856946 0.404392 -0.6052191 -0.685697 0.2785599 -0.6724761 0.6856731 0.278553 -0.6725034 -0.6856766 0.1420133 -0.7139186 0.6856999 0.1420001 -0.713899 -0.6856981 4.53162e-7 -0.7278861 0.6856955 -3.00903e-7 -0.7278885 -0.6856799 -0.142006 -0.713917 0.6856943 -0.1420042 -0.7139034 -0.6856973 -0.278553 -0.6724787 0.6856853 -0.2785544 -0.6724903 -0.6856831 -0.4044097 -0.6052203 0.685694 -0.4043826 -0.605226 -0.6856999 -0.5146985 -0.5146855 0.6856951 -0.5146883 -0.5147022 -0.6856928 -0.6052274 -0.4043825 0.6856928 -0.6052225 -0.4043899 -0.6856968 -0.6724849 -0.2785391 0.6856726 -0.6724991 -0.2785643 -0.6856899 -0.7139077 -0.1420046 0.6856967 -0.7139016 -0.1420024 -0.6856915 -0.7278923 -6.65215e-7 0.6856932 -0.7278908 2.11622e-7 -0.6856797 -0.7139171 0.1420063 0.6856679 -0.6725032 0.2785658 -0.6856998 -0.6724836 0.278535 -0.6856821 -0.6052356 0.4043885 0.6856937 -0.6052152 0.4043993 -0.6856949 -0.5147037 0.514687 0.6856951 -0.5146986 0.5146917 -0.6856921 -0.4043946 0.6052202 0.6857 -0.4043889 0.605215 -0.6856996 -0.2785437 0.6724802 0.6856696 -0.2785577 0.6725049 -0.6856767 -0.1420074 0.7139198 0.6857002 -0.1420065 0.7138974 -0.6856982 -4.49693e-7 0.7278861 0.6856955 3.00888e-7 0.7278887 -0.68568 0.1420058 0.7139168 0.6856945 0.1420041 0.7139034 -0.6856996 0.2785428 0.6724805 0.6856821 0.2785537 0.6724939 -0.6856812 0.4043989 0.6052296 0.6856999 0.4043897 0.6052146 -0.6856949 0.5147032 0.5146876 0.6856952 0.5146992 0.5146912 -0.6856935 0.6052152 0.4043996 0.6856946 0.6052254 0.4043826 -0.6856979 0.672473 0.2785651 0.6856717 0.6725069 0.2785477 -0.68569 0.7139052 0.1420167 0.6857029 0.7138958 0.1420016 -0.6856957 0.7139025 -0.1420026 -0.685695 0.6724797 -0.2785562 0.6856744 0.6725044 -0.2785473 -0.6856877 0.6052113 -0.4044154 0.6856973 0.6052228 -0.4043818 -0.6856998 0.5146788 -0.5147054 0.6856946 0.5146977 -0.5146935 -0.6856943 0.4044021 -0.6052126 0.6857048 0.404381 -0.6052148 -0.6856973 0.278563 -0.6724746 0.6856791 0.2785613 -0.6724938 -0.6856796 0.1420074 -0.713917 0.6856994 0.142011 -0.7138972 -0.6856986 2.50844e-6 -0.7278856 0.685696 -2.3616e-6 -0.7278881 -0.6856932 -0.1420016 -0.7139052 0.685694 -0.1420043 -0.7139038 -0.6856964 -0.2785631 -0.6724754 0.6856822 -0.2785561 -0.6724927 -0.6856749 -0.4044103 -0.605229 0.6856961 -0.404392 -0.6052175 -0.6857005 -0.5146892 -0.5146939 0.6856944 -0.5146989 -0.5146926 -0.6856918 -0.6052172 -0.4043995 0.6856937 -0.6052315 -0.404375 -0.6856977 -0.6724774 -0.2785549 0.6856716 -0.6725076 -0.2785464 -0.6856695 -0.7139266 -0.1420083 0.6856608 -0.6725167 0.2785509 -0.685683 -0.6052259 0.4044015 0.6856938 -0.6052311 0.4043755 -0.6856934 -0.5147033 0.5146895 0.6856957 -0.5146898 0.5147 -0.6856942 -0.4044039 0.6052116 0.6856938 -0.4043885 0.6052223 -0.6856982 -0.2785449 0.6724812 0.6856763 -0.2785649 0.672495 -0.6856743 -0.1420074 0.713922 0.6856942 -0.1420015 0.7139042 -0.6856987 -2.50844e-6 0.7278856 0.685696 1.14528e-6 0.7278881 -0.6856926 0.1420078 0.7139045 0.6856994 0.1420058 0.7138983 -0.6856987 0.2785488 0.6724789 0.685667 0.2785685 0.6725031 -0.6856852 0.4043973 0.6052262 0.6857008 0.404398 0.6052079 0.6856952 0.5146992 0.5146911 -0.6856963 0.6052131 0.4043982 0.6856964 0.6052136 0.4043971 -0.6856961 0.6724805 0.2785516 0.6856701 0.6725011 0.2785657 -0.6856699 0.7139267 0.142005 0.6856874 0.7278962 -6.73021e-7 -0.685695 0.7139026 -0.1420053 0.6856958 0.7139017 -0.1420059 -0.6856973 0.6724814 -0.2785463 0.6856603 0.6725125 -0.2785624 -0.6856831 0.6052274 -0.404399 0.6856932 0.605223 -0.4043884 -0.6857011 0.5146876 -0.5146948 0.6856949 0.5146933 -0.5146973 -0.685681 0.4044038 -0.6052266 0.6856952 0.4043949 -0.6052165 -0.6856968 0.2785587 -0.6724768 0.6856765 0.2785621 -0.6724961 -0.6856912 0.1420061 -0.7139061 0.6856933 0.1420044 -0.7139043 -0.6856988 1.81265e-7 -0.7278855 0.6856961 1.18266e-6 -0.7278881 -0.6856924 -0.1420046 -0.7139052 0.6856995 -0.1420074 -0.7138978 -0.685697 -0.2785571 -0.6724773 0.6856796 -0.2785621 -0.6724929 -0.6856858 -0.4043986 -0.6052247 0.6856955 -0.4043959 -0.6052155 -0.6857011 -0.5146858 -0.5146965 0.6856948 -0.5146952 -0.5146955 -0.6856923 -0.6052199 -0.4043948 0.6856933 -0.6052246 -0.4043859 -0.6856974 -0.67248 -0.2785493 0.685683 -0.672495 -0.278549 -0.6856698 -0.7139257 -0.1420108 0.685696 -0.7139021 -0.1420025 0.6856932 -0.7278907 2.11622e-7 -0.6856925 -0.7139042 0.142009 0.6856588 -0.6725146 0.2785611 -0.6857002 -0.6724783 0.2785466 -0.6856846 -0.6052274 0.4043964 0.6856942 -0.6052168 0.4043961 -0.6856954 -0.5147015 0.5146885 0.6856958 -0.5146936 0.5146958 -0.685693 -0.4043988 0.6052163 0.6857005 -0.4043909 0.6052131 -0.6856992 -0.2785497 0.672478 0.6856735 -0.2785608 0.6724997 -0.6856802 -0.142008 0.7139164 0.6856934 -0.1420049 0.7139042 -0.6856988 -1.64569e-7 0.7278855 0.685696 -9.12171e-7 0.7278881 -0.6856925 0.1420043 0.7139052 0.6856995 0.1420074 0.7138978 -0.6856993 0.2785471 0.6724791 0.6856767 0.2785613 0.6724961 -0.6856739 0.4044048 0.6052339 0.6857007 0.4043928 0.6052116 -0.6856955 0.5146998 0.5146901 0.6856957 0.5146957 0.514694 -0.6856942 0.6052177 0.4043947 0.6856943 0.6052185 0.4043935 -0.6856983 0.6724802 0.2785467 0.6856832 0.6724935 0.2785518 -0.6856509 0.7139433 0.1420139 0.6857023 0.7138957 0.1420044 0.5956932 0.8032121 -3.57878e-7 -0.5956737 0.248211 -0.7639138 -0.5956918 0.8032131 -4.07895e-7 0.5956739 -0.649824 -0.4721245 -0.5957024 -0.649807 -0.4721118 -0.5957023 -0.6498149 0.4721013 0.5956829 -0.6498101 0.4721321 -0.5956838 0.248209 0.7639066 0.5842127 -0.1696163 0.7936788 0.6229611 0.240876 -0.7442435 0.5797125 0.7730535 0.2575299 -0.5623291 0.2823312 -0.7772227 -0.6527566 -0.1258375 0.7470434 -0.5348803 0.8074964 0.2487016 -0.5762386 -0.7970758 -0.180608 0.5355805 -0.8268352 -0.1717475 0.577346 0.5773662 0.5773386 -0.5773411 0.5773686 -0.5773411 -0.5773534 0.577346 0.5773515 0.5773484 -0.5773484 0.577354 -0.577341 -0.5773686 0.5773413 0.5773462 -0.5773663 -0.5773385 -0.5773534 -0.5773462 -0.5773512 0.5773484 0.5773484 -0.577354 -0.5850685 -0.1717127 -0.7925969 -0.6229578 0.2430151 0.7435505 -0.5790877 0.7727633 -0.2597967 0.563248 0.2839609 0.7759626 0.6526622 -0.1284608 -0.7466793 0.5352157 0.8064567 -0.2513403 0.5756072 -0.7970796 0.1825945 -0.5357509 -0.8262473 0.1740296 0.5409297 -0.02757972 0.8406155 0.6213587 0.1096776 -0.775812 0.620727 0.7747803 0.120056 -0.5141768 0.1690934 -0.8408505 -0.6513162 0.02962845 0.7582278 -0.5148945 0.8534737 0.08041322 0.5262368 -0.8498638 -0.02839809 -0.6163516 -0.7847428 -0.06549471 -0.5773305 0.5773602 0.5773601 -0.5773379 -0.5773451 -0.5773678 -0.5773432 -0.5773432 0.5773646 0.5773233 -0.5773531 -0.5773745 0.5773308 0.577338 0.577382 0.5773578 -0.5773352 0.5773578 -0.5773507 0.5773282 -0.5773721 0.5773503 0.5773503 -0.5773502 -0.5957223 -0.6497948 -0.4721037 0.5957121 0.2482163 -0.7638821 0.5956929 -0.6498134 -0.4721149 0.595712 -0.6498001 0.4721093 -0.595712 0.2482162 0.7638823 0.5957127 0.2481887 0.7638906 0.5957213 0.8031914 1.31338e-5 -0.5957024 0.8032053 -1.45233e-5 -0.5957022 0.2481902 -0.7638981 -0.5957118 -0.6498013 0.4721078 -0.5409296 -0.02757853 -0.8406156 -0.6213699 0.1096503 0.7758069 -0.6207145 0.7747937 -0.1200348 0.5141658 0.1691061 0.8408548 0.6513162 0.02962899 -0.7582278 0.5149064 0.853465 -0.08042979 -0.5262359 -0.8498644 0.02840054 0.6163514 -0.7847429 0.06549465 -0.577357 0.1039066 0.8098533 -0.577357 -0.1039075 -0.8098531 -0.5773546 -0.8098561 0.1038986 0.5773507 -0.8098575 0.103909 0.5773608 0.1039162 0.8098493 0.5773504 0.8098576 -0.1039094 0.5773611 -0.103917 -0.8098491 -0.5773545 0.8098561 -0.1038993 0.5773566 0.1039076 -0.8098535 0.577357 -0.1039079 0.8098531 0.5773547 -0.8098559 -0.1038988 -0.5773509 -0.8098573 -0.1039092 -0.5773611 0.1039158 -0.8098492 0.577355 0.8098556 0.1039001 -0.5773611 -0.1039173 0.809849 -0.5773503 0.8098579 0.1039088 0.5957223 -0.6497947 -0.4721036 -0.5957319 0.2481974 -0.7638729 0.5956923 0.2482066 -0.7639006 -0.5957023 -0.6497977 0.4721248 0.5957217 -0.6498042 0.4720913 -0.5957125 0.2482019 0.7638864 0.5957021 0.2482042 0.7638939 0.5957125 0.8031978 0 -0.5773469 -0.8081651 -0.1163603 -0.5773549 0.8081577 0.1163724 -0.5773434 0.1163886 -0.8081637 0.577347 0.808165 0.1163601 0.5773497 0.1163722 -0.8081615 0.5773434 -0.1163884 0.8081636 0.5773549 -0.8081579 -0.1163722 -0.57735 -0.1163724 0.8081613 -0.5773462 -0.808167 -0.1163508 -0.5773568 0.8081561 0.1163735 -0.5773363 0.1163917 -0.8081683 0.5773429 0.8081682 0.1163585 0.5773501 0.1163741 -0.8081609 0.5773533 -0.8081578 -0.1163807 0.5773396 -0.1163966 0.8081651 -0.5773466 -0.1163656 0.8081645 0.5773528 -0.1163637 -0.8081604 0.5773428 0.1163896 0.808164 0.5773397 -0.8081717 0.1163511 -0.5773363 0.808173 -0.1163583 -0.5773559 0.1163706 0.8081572 -0.5773465 -0.8081624 0.1163815 -0.5773461 -0.1163957 -0.8081606 0.5773534 -0.5773232 0.5773742 -0.5773432 0.5773432 0.5773646 -0.5773335 -0.5773587 0.5773587 0.5773435 0.5773384 0.5773691 -0.5773373 0.5773314 -0.5773822 0.5773257 -0.5773516 -0.5773735 -0.5773609 -0.5773298 -0.5773602 0.5773474 -0.808165 0.1163598 0.5773482 0.8081645 -0.1163583 0.5773493 0.1163707 0.808162 -0.577343 0.1163873 0.8081641 -0.5773432 -0.1163881 -0.8081637 -0.577355 -0.8081576 0.1163726 -0.5773532 0.8081583 -0.1163762 0.5773496 -0.1163715 -0.8081617 0.5773534 -0.5773231 0.5773743 -0.5773432 0.5773432 0.5773644 -0.5773335 -0.5773587 0.5773587 0.5773437 0.5773385 0.5773688 -0.5773367 0.5773314 -0.5773827 0.5773263 -0.5773516 -0.577373 -0.5773603 -0.5773304 -0.5773602 0.5956925 0.2482066 -0.7639005 0.6857051 -0.7138937 0.1420017 0.6857044 -0.7138943 0.1420018 0.5957018 0.2482036 -0.7638942 0.5957019 0.2482043 0.763894 -0.5957021 -0.6498068 -0.4721125 -0.5957021 0.8032056 0 0.5773496 0.8081611 -0.1163744 0.5773497 0.5773503 -0.5773508 0.5773496 0.5773501 -0.5773512</float_array>
          <technique_common>
            <accessor source="#Cylinder_007-mesh-normals-array" count="341" stride="3">
              <param name="X" type="float"/>
              <param name="Y" type="float"/>
              <param name="Z" type="float"/>
            </accessor>
          </technique_common>
        </source>
        <source id="Cylinder_007-mesh-map-0">
          <float_array id="Cylinder_007-mesh-map-0-array" count="3720">0.6 0.5 0.8 1 0.6 1 0.4 1 0.6 0.5 0.6 1 0.2 0.5 0.4 1 0.2 1 0.02174639 0.3241641 0.1089315 0.0558359 0.3910685 0.0558359 0 0.5 0.2 1 0 1 0.8910685 0.0558359 0.6089316 0.0558359 0.5217465 0.3241641 0.8 0.5 1 1 0.8 1 1 1 0.8 0.5 1 0.5 0.8 0.5 0.6 1 0.6 0.5 0.6 1 0.4 0.5 0.6 0.5 0.25 0.49 0.02174639 0.3241641 0.1089315 0.0558359 0.4 1 0.2 0.5 0.4 0.5 0.2 0.5 0 1 0 0.5 0.9782536 0.3241641 0.6089316 0.0558359 0.5217465 0.3241641 1 1 0.96875 0.5 1 0.5 0.96875 1 0.9375 0.5 0.96875 0.5 0.9375 1 0.90625 0.5 0.9375 0.5 0.90625 1 0.875 0.5 0.90625 0.5 0.875 1 0.84375 0.5 0.875 0.5 0.84375 1 0.8125 0.5 0.84375 0.5 0.8125 1 0.78125 0.5 0.8125 0.5 0.78125 1 0.75 0.5 0.78125 0.5 0.75 1 0.71875 0.5 0.75 0.5 0.71875 1 0.6875 0.5 0.71875 0.5 0.6875 1 0.65625 0.5 0.6875 0.5 0.65625 1 0.625 0.5 0.65625 0.5 0.625 1 0.59375 0.5 0.625 0.5 0.59375 1 0.5625 0.5 0.59375 0.5 0.5625 1 0.53125 0.5 0.5625 0.5 0.53125 1 0.5 0.5 0.53125 0.5 0.5 1 0.46875 0.5 0.5 0.5 0.46875 0.5 0.4375 1 0.4375 0.5 0.4375 1 0.40625 0.5 0.4375 0.5 0.40625 1 0.375 0.5 0.40625 0.5 0.375 1 0.34375 0.5 0.375 0.5 0.34375 1 0.3125 0.5 0.34375 0.5 0.3125 1 0.28125 0.5 0.3125 0.5 0.28125 1 0.25 0.5 0.28125 0.5 0.25 1 0.21875 0.5 0.25 0.5 0.21875 1 0.1875 0.5 0.21875 0.5 0.1875 1 0.15625 0.5 0.1875 0.5 0.15625 1 0.125 0.5 0.15625 0.5 0.125 1 0.09375 0.5 0.125 0.5 0.09375 1 0.0625 0.5 0.09375 0.5 0.02826887 0.341844 0.1581559 0.02826887 0.4717311 0.1581559 0.0625 1 0.03125 0.5 0.0625 0.5 0.03125 1 0 0.5 0.03125 0.5 0.7968217 0.01461154 0.5146116 0.2031783 0.7031784 0.4853885 1 1 0.96875 0.5 1 0.5 0.96875 1 0.9375 0.5 0.96875 0.5 0.9375 1 0.90625 0.5 0.9375 0.5 0.90625 1 0.875 0.5 0.90625 0.5 0.875 1 0.84375 0.5 0.875 0.5 0.84375 1 0.8125 0.5 0.84375 0.5 0.8125 1 0.78125 0.5 0.8125 0.5 0.78125 1 0.75 0.5 0.78125 0.5 0.75 1 0.71875 0.5 0.75 0.5 0.71875 1 0.6875 0.5 0.71875 0.5 0.6875 1 0.65625 0.5 0.6875 0.5 0.65625 1 0.625 0.5 0.65625 0.5 0.625 1 0.59375 0.5 0.625 0.5 0.59375 1 0.5625 0.5 0.59375 0.5 0.5625 1 0.53125 0.5 0.5625 0.5 0.53125 1 0.5 0.5 0.53125 0.5 0.5 1 0.46875 0.5 0.5 0.5 0.46875 0.5 0.4375 1 0.4375 0.5 0.4375 1 0.40625 0.5 0.4375 0.5 0.40625 1 0.375 0.5 0.40625 0.5 0.375 1 0.34375 0.5 0.375 0.5 0.34375 1 0.3125 0.5 0.34375 0.5 0.3125 1 0.28125 0.5 0.3125 0.5 0.28125 1 0.25 0.5 0.28125 0.5 0.25 1 0.21875 0.5 0.25 0.5 0.21875 1 0.1875 0.5 0.21875 0.5 0.1875 1 0.15625 0.5 0.1875 0.5 0.15625 1 0.125 0.5 0.15625 0.5 0.125 1 0.09375 0.5 0.125 0.5 0.09375 1 0.0625 0.5 0.09375 0.5 0.341844 0.4717311 0.02826887 0.341844 0.1581559 0.02826887 0.0625 1 0.03125 0.5 0.0625 0.5 0.03125 1 0 0.5 0.03125 0.5 0.5504473 0.3833369 0.7031784 0.4853885 0.7968217 0.01461154 1 1 0.96875 0.5 1 0.5 0.96875 1 0.9375 0.5 0.96875 0.5 0.9375 1 0.90625 0.5 0.9375 0.5 0.90625 1 0.875 0.5 0.90625 0.5 0.875 1 0.84375 0.5 0.875 0.5 0.84375 1 0.8125 0.5 0.84375 0.5 0.8125 1 0.78125 0.5 0.8125 0.5 0.78125 1 0.75 0.5 0.78125 0.5 0.75 1 0.71875 0.5 0.75 0.5 0.71875 1 0.6875 0.5 0.71875 0.5 0.6875 1 0.65625 0.5 0.6875 0.5 0.65625 1 0.625 0.5 0.65625 0.5 0.625 1 0.59375 0.5 0.625 0.5 0.59375 1 0.5625 0.5 0.59375 0.5 0.5625 1 0.53125 0.5 0.5625 0.5 0.53125 1 0.5 0.5 0.53125 0.5 0.5 1 0.46875 0.5 0.5 0.5 0.46875 0.5 0.4375 1 0.4375 0.5 0.4375 1 0.40625 0.5 0.4375 0.5 0.40625 1 0.375 0.5 0.40625 0.5 0.375 1 0.34375 0.5 0.375 0.5 0.34375 1 0.3125 0.5 0.34375 0.5 0.3125 1 0.28125 0.5 0.3125 0.5 0.28125 1 0.25 0.5 0.28125 0.5 0.25 1 0.21875 0.5 0.25 0.5 0.21875 1 0.1875 0.5 0.21875 0.5 0.1875 1 0.15625 0.5 0.1875 0.5 0.15625 1 0.125 0.5 0.15625 0.5 0.125 1 0.09375 0.5 0.125 0.5 0.09375 1 0.0625 0.5 0.09375 0.5 0.4717311 0.1581559 0.4717311 0.341844 0.341844 0.4717311 0.0625 1 0.03125 0.5 0.0625 0.5 0.03125 1 0 0.5 0.03125 0.5 0.5146116 0.2031783 0.5504473 0.3833369 0.7031784 0.4853885 1 1 0.8 0.5 1 0.5 0.8 0.5 0.6 1 0.6 0.5 0.6 1 0.4 0.5 0.6 0.5 0.25 0.49 0.1089315 0.0558359 0.3910685 0.0558359 0.4 1 0.2 0.5 0.4 0.5 0.2 0.5 0 1 0 0.5 0.9782536 0.3241641 0.8910685 0.0558359 0.6089316 0.0558359 0 1 1 0 0 0 1 0 0 1 0 0 0 1 1 1 1 1 1 0 0 0 0 0 1 1 1 0 1 0 0 1 0 0 0 1 0 1 1 1 0 1 0 0 0 1 0 0 1 0 0 1 0 0 0 1 1 0 0 0 1 0 0 0 1 0 1 1 1 0 1 1 0 1 1 0 0 0 1 0 0 1 0 0 0 1 1 1 1 1 0 0 1 0 0 0 1 1 1 0 1 0 0 1 0 0 0 1 0 1 1 0 0 0 1 0 0 1 0 0 1 1 0 1 1 1 1 0 0 0 0 0 1 1 1 0 1 0 0 1 0 0 0 1 0 1 1 0 0 0 1 0 0 1 0 0 0 0 0 1 0 1 1 1 0 1 1 1 1 0 0 0 0 0 1 1 1 0 1 0 0.6 0.5 0.8 1 0.6 1 0.4 1 0.6 0.5 0.6 1 0.2 0.5 0.4 1 0.2 1 0.25 0.49 0.1089315 0.0558359 0.3910685 0.0558359 0 0.5 0.2 1 0 1 0.9782536 0.3241641 0.8910685 0.0558359 0.6089316 0.0558359 0.8 0.5 1 1 0.8 1 0 1 1 0 0 0 1 0 0 1 0 0 1 1 0 1 1 1 0 0 1 0 0 0 1 1 1 0 1 0 0 1 0 0 0 1 1 1 0 0 1 0 0 0 1 0 1 0 1 1 1 0 1 0 0 1 1 1 1 1 0 0 0 1 0 1 0 0 1 1 1 0 1 1 0 0 1 0 0 0 1 0 1 0 1 1 1 0 1 0 1 1 0 1 1 1 0 0 0 1 0 1 0 0 1 1 1 0 0.6 1 0.8 0.5 0.8 1 0.4 0.5 0.6 1 0.4 1 0.2 0.5 0.4 1 0.2 1 0.25 0.49 0.02174639 0.3241641 0.1089315 0.0558359 0 1 0.2 0.5 0.2 1 0.9782536 0.3241641 0.6089316 0.0558359 0.5217465 0.3241641 0.8 0.5 1 1 0.8 1 0 0 1 1 0 1 0 1 1 1 0 1 0 1 0 0 0 1 1 0 0 0 0 0 1 1 1 0 1 0 1 1 0 0 0 1 0 0 1 1 0 1 0 1 1 1 0 1 0 0 0 1 0 1 1 0 0 0 0 0 1 1 1 0 1 0 1 1 0 0 0 1 1 0 0 1 0 0 0 1 1 1 0 1 0 0 0 1 0 1 1 0 0 0 0 0 1 1 1 0 1 0 0 1 1 0 0 0 0 1 1 1 0 1 1 1 1 0 1 1 1 0 0 1 1 1 0 0 1 1 0 1 1 0 0 0 0 0 0 0 0 1 0 1 0 0 1 1 0 1 1 1 0 1 0 1 0 1 0 0 0 1 1 0 0 0 0 0 1 1 1 0 1 0 1 1 0 0 0 1 0 1 1 1 0 1 1 1 1 0 1 1 1 0 0 1 1 1 0 0 1 1 0 1 1 0 0 0 0 0 0 0 0 1 0 1 0.6 0.5 0.8 0.5 0.8 1 0.4 1 0.4 0.5 0.6 0.5 0.2 0.5 0.4 0.5 0.4 1 0.3910685 0.0558359 0.4782536 0.3241641 0.25 0.49 0.25 0.49 0.02174639 0.3241641 0.3910685 0.0558359 0 0.5 0.2 0.5 0.2 1 0.5217465 0.3241641 0.75 0.49 0.9782536 0.3241641 0.9782536 0.3241641 0.8910685 0.0558359 0.5217465 0.3241641 0.8 0.5 1 0.5 1 1 1 1 0.8 1 0.8 0.5 0.8 0.5 0.8 1 0.6 1 0.6 1 0.4 1 0.4 0.5 0.3910685 0.0558359 0.4782536 0.3241641 0.1089315 0.0558359 0.4782536 0.3241641 0.25 0.49 0.1089315 0.0558359 0.4 1 0.2 1 0.2 0.5 0.2 0.5 0.2 1 0 1 0.5217465 0.3241641 0.75 0.49 0.9782536 0.3241641 0.9782536 0.3241641 0.8910685 0.0558359 0.6089316 0.0558359 1 1 0.96875 1 0.96875 0.5 0.96875 1 0.9375 1 0.9375 0.5 0.9375 1 0.90625 1 0.90625 0.5 0.90625 1 0.875 1 0.875 0.5 0.875 1 0.84375 1 0.84375 0.5 0.84375 1 0.8125 1 0.8125 0.5 0.8125 1 0.78125 1 0.78125 0.5 0.78125 1 0.75 1 0.75 0.5 0.75 1 0.71875 1 0.71875 0.5 0.71875 1 0.6875 1 0.6875 0.5 0.6875 1 0.65625 1 0.65625 0.5 0.65625 1 0.625 1 0.625 0.5 0.625 1 0.59375 1 0.59375 0.5 0.59375 1 0.5625 1 0.5625 0.5 0.5625 1 0.53125 1 0.53125 0.5 0.53125 1 0.5 1 0.5 0.5 0.5 1 0.46875 1 0.46875 0.5 0.46875 0.5 0.46875 1 0.4375 1 0.4375 1 0.40625 1 0.40625 0.5 0.40625 1 0.375 1 0.375 0.5 0.375 1 0.34375 1 0.34375 0.5 0.34375 1 0.3125 1 0.3125 0.5 0.3125 1 0.28125 1 0.28125 0.5 0.28125 1 0.25 1 0.25 0.5 0.25 1 0.21875 1 0.21875 0.5 0.21875 1 0.1875 1 0.1875 0.5 0.1875 1 0.15625 1 0.15625 0.5 0.15625 1 0.125 1 0.125 0.5 0.125 1 0.09375 1 0.09375 0.5 0.09375 1 0.0625 1 0.0625 0.5 0.341844 0.4717311 0.2968217 0.4853885 0.1581559 0.4717311 0.2968217 0.4853885 0.25 0.49 0.1581559 0.4717311 0.25 0.49 0.2031783 0.4853885 0.1581559 0.4717311 0.1581559 0.4717311 0.1166631 0.4495527 0.02826887 0.341844 0.1166631 0.4495527 0.08029437 0.4197056 0.02826887 0.341844 0.08029437 0.4197056 0.05044728 0.3833369 0.02826887 0.341844 0.02826887 0.341844 0.01461154 0.2968217 0.02826887 0.1581559 0.01461154 0.2968217 0.00999999 0.25 0.02826887 0.1581559 0.00999999 0.25 0.01461154 0.2031783 0.02826887 0.1581559 0.02826887 0.1581559 0.05044728 0.1166631 0.08029437 0.08029437 0.08029437 0.08029437 0.1166631 0.05044728 0.02826887 0.1581559 0.1166631 0.05044728 0.1581559 0.02826887 0.02826887 0.1581559 0.1581559 0.02826887 0.2031783 0.01461154 0.25 0.00999999 0.25 0.00999999 0.2968217 0.01461154 0.1581559 0.02826887 0.2968217 0.01461154 0.341844 0.02826887 0.1581559 0.02826887 0.341844 0.02826887 0.3833369 0.05044728 0.4197056 0.08029437 0.4197056 0.08029437 0.4495527 0.1166631 0.341844 0.02826887 0.4495527 0.1166631 0.4717311 0.1581559 0.341844 0.02826887 0.4717311 0.1581559 0.4853885 0.2031783 0.4717311 0.341844 0.4853885 0.2031783 0.49 0.25 0.4717311 0.341844 0.49 0.25 0.4853885 0.2968217 0.4717311 0.341844 0.4717311 0.341844 0.4495527 0.3833369 0.341844 0.4717311 0.4495527 0.3833369 0.4197056 0.4197056 0.341844 0.4717311 0.4197056 0.4197056 0.3833369 0.4495527 0.341844 0.4717311 0.341844 0.4717311 0.1581559 0.4717311 0.02826887 0.341844 0.02826887 0.341844 0.02826887 0.1581559 0.1581559 0.02826887 0.1581559 0.02826887 0.341844 0.02826887 0.4717311 0.1581559 0.4717311 0.1581559 0.4717311 0.341844 0.341844 0.4717311 0.341844 0.4717311 0.02826887 0.341844 0.4717311 0.1581559 0.0625 1 0.03125 1 0.03125 0.5 0.03125 1 0 1 0 0.5 0.7031784 0.4853885 0.75 0.49 0.7968217 0.4853885 0.7968217 0.4853885 0.841844 0.4717311 0.8833369 0.4495527 0.8833369 0.4495527 0.9197056 0.4197056 0.9495527 0.3833369 0.9495527 0.3833369 0.9717311 0.341844 0.9853885 0.2968217 0.9853885 0.2968217 0.99 0.25 0.9853885 0.2031783 0.9853885 0.2031783 0.9717311 0.1581559 0.9495527 0.1166631 0.9495527 0.1166631 0.9197056 0.08029437 0.8833369 0.05044728 0.8833369 0.05044728 0.841844 0.02826887 0.7968217 0.01461154 0.7968217 0.01461154 0.75 0.00999999 0.7031784 0.01461154 0.7031784 0.01461154 0.658156 0.02826887 0.6166632 0.05044728 0.6166632 0.05044728 0.5802944 0.08029437 0.5504473 0.1166631 0.5504473 0.1166631 0.5282689 0.1581559 0.5146116 0.2031783 0.5146116 0.2031783 0.51 0.25 0.5146116 0.2968217 0.5146116 0.2968217 0.5282689 0.341844 0.5504473 0.3833369 0.5504473 0.3833369 0.5802944 0.4197056 0.6166632 0.4495527 0.6166632 0.4495527 0.658156 0.4717311 0.7031784 0.4853885 0.7031784 0.4853885 0.7968217 0.4853885 0.9853885 0.2968217 0.7968217 0.4853885 0.8833369 0.4495527 0.9853885 0.2968217 0.8833369 0.4495527 0.9495527 0.3833369 0.9853885 0.2968217 0.9853885 0.2968217 0.9853885 0.2031783 0.7968217 0.01461154 0.9853885 0.2031783 0.9495527 0.1166631 0.7968217 0.01461154 0.9495527 0.1166631 0.8833369 0.05044728 0.7968217 0.01461154 0.7968217 0.01461154 0.7031784 0.01461154 0.5146116 0.2031783 0.7031784 0.01461154 0.6166632 0.05044728 0.5146116 0.2031783 0.6166632 0.05044728 0.5504473 0.1166631 0.5146116 0.2031783 0.5146116 0.2031783 0.5146116 0.2968217 0.7031784 0.4853885 0.5146116 0.2968217 0.5504473 0.3833369 0.7031784 0.4853885 0.5504473 0.3833369 0.6166632 0.4495527 0.7031784 0.4853885 0.7031784 0.4853885 0.9853885 0.2968217 0.7968217 0.01461154 1 1 0.96875 1 0.96875 0.5 0.96875 1 0.9375 1 0.9375 0.5 0.9375 1 0.90625 1 0.90625 0.5 0.90625 1 0.875 1 0.875 0.5 0.875 1 0.84375 1 0.84375 0.5 0.84375 1 0.8125 1 0.8125 0.5 0.8125 1 0.78125 1 0.78125 0.5 0.78125 1 0.75 1 0.75 0.5 0.75 1 0.71875 1 0.71875 0.5 0.71875 1 0.6875 1 0.6875 0.5 0.6875 1 0.65625 1 0.65625 0.5 0.65625 1 0.625 1 0.625 0.5 0.625 1 0.59375 1 0.59375 0.5 0.59375 1 0.5625 1 0.5625 0.5 0.5625 1 0.53125 1 0.53125 0.5 0.53125 1 0.5 1 0.5 0.5 0.5 1 0.46875 1 0.46875 0.5 0.46875 0.5 0.46875 1 0.4375 1 0.4375 1 0.40625 1 0.40625 0.5 0.40625 1 0.375 1 0.375 0.5 0.375 1 0.34375 1 0.34375 0.5 0.34375 1 0.3125 1 0.3125 0.5 0.3125 1 0.28125 1 0.28125 0.5 0.28125 1 0.25 1 0.25 0.5 0.25 1 0.21875 1 0.21875 0.5 0.21875 1 0.1875 1 0.1875 0.5 0.1875 1 0.15625 1 0.15625 0.5 0.15625 1 0.125 1 0.125 0.5 0.125 1 0.09375 1 0.09375 0.5 0.09375 1 0.0625 1 0.0625 0.5 0.341844 0.4717311 0.2968217 0.4853885 0.1581559 0.4717311 0.2968217 0.4853885 0.25 0.49 0.1581559 0.4717311 0.25 0.49 0.2031783 0.4853885 0.1581559 0.4717311 0.1581559 0.4717311 0.1166631 0.4495527 0.02826887 0.341844 0.1166631 0.4495527 0.08029437 0.4197056 0.02826887 0.341844 0.08029437 0.4197056 0.05044728 0.3833369 0.02826887 0.341844 0.02826887 0.341844 0.01461154 0.2968217 0.00999999 0.25 0.00999999 0.25 0.01461154 0.2031783 0.02826887 0.341844 0.01461154 0.2031783 0.02826887 0.1581559 0.02826887 0.341844 0.02826887 0.1581559 0.05044728 0.1166631 0.1581559 0.02826887 0.05044728 0.1166631 0.08029437 0.08029437 0.1581559 0.02826887 0.08029437 0.08029437 0.1166631 0.05044728 0.1581559 0.02826887 0.1581559 0.02826887 0.2031783 0.01461154 0.25 0.00999999 0.25 0.00999999 0.2968217 0.01461154 0.1581559 0.02826887 0.2968217 0.01461154 0.341844 0.02826887 0.1581559 0.02826887 0.341844 0.02826887 0.3833369 0.05044728 0.4197056 0.08029437 0.4197056 0.08029437 0.4495527 0.1166631 0.341844 0.02826887 0.4495527 0.1166631 0.4717311 0.1581559 0.341844 0.02826887 0.4717311 0.1581559 0.4853885 0.2031783 0.4717311 0.341844 0.4853885 0.2031783 0.49 0.25 0.4717311 0.341844 0.49 0.25 0.4853885 0.2968217 0.4717311 0.341844 0.4717311 0.341844 0.4495527 0.3833369 0.4197056 0.4197056 0.4197056 0.4197056 0.3833369 0.4495527 0.4717311 0.341844 0.3833369 0.4495527 0.341844 0.4717311 0.4717311 0.341844 0.341844 0.4717311 0.1581559 0.4717311 0.02826887 0.341844 0.02826887 0.341844 0.02826887 0.1581559 0.1581559 0.02826887 0.1581559 0.02826887 0.341844 0.02826887 0.4717311 0.1581559 0.4717311 0.1581559 0.4717311 0.341844 0.1581559 0.02826887 0.4717311 0.341844 0.341844 0.4717311 0.1581559 0.02826887 0.0625 1 0.03125 1 0.03125 0.5 0.03125 1 0 1 0 0.5 0.7031784 0.4853885 0.75 0.49 0.7968217 0.4853885 0.7968217 0.4853885 0.841844 0.4717311 0.8833369 0.4495527 0.8833369 0.4495527 0.9197056 0.4197056 0.9495527 0.3833369 0.9495527 0.3833369 0.9717311 0.341844 0.9853885 0.2968217 0.9853885 0.2968217 0.99 0.25 0.9853885 0.2031783 0.9853885 0.2031783 0.9717311 0.1581559 0.9495527 0.1166631 0.9495527 0.1166631 0.9197056 0.08029437 0.8833369 0.05044728 0.8833369 0.05044728 0.841844 0.02826887 0.7968217 0.01461154 0.7968217 0.01461154 0.75 0.00999999 0.7031784 0.01461154 0.7031784 0.01461154 0.658156 0.02826887 0.6166632 0.05044728 0.6166632 0.05044728 0.5802944 0.08029437 0.5504473 0.1166631 0.5504473 0.1166631 0.5282689 0.1581559 0.5146116 0.2031783 0.5146116 0.2031783 0.51 0.25 0.5146116 0.2968217 0.5146116 0.2968217 0.5282689 0.341844 0.5504473 0.3833369 0.5504473 0.3833369 0.5802944 0.4197056 0.6166632 0.4495527 0.6166632 0.4495527 0.658156 0.4717311 0.7031784 0.4853885 0.7031784 0.4853885 0.7968217 0.4853885 0.8833369 0.4495527 0.8833369 0.4495527 0.9495527 0.3833369 0.9853885 0.2968217 0.9853885 0.2968217 0.9853885 0.2031783 0.9495527 0.1166631 0.9495527 0.1166631 0.8833369 0.05044728 0.7968217 0.01461154 0.7968217 0.01461154 0.7031784 0.01461154 0.5146116 0.2031783 0.7031784 0.01461154 0.6166632 0.05044728 0.5146116 0.2031783 0.6166632 0.05044728 0.5504473 0.1166631 0.5146116 0.2031783 0.5146116 0.2031783 0.5146116 0.2968217 0.5504473 0.3833369 0.5504473 0.3833369 0.6166632 0.4495527 0.7031784 0.4853885 0.7031784 0.4853885 0.8833369 0.4495527 0.7968217 0.01461154 0.8833369 0.4495527 0.9853885 0.2968217 0.7968217 0.01461154 0.9853885 0.2968217 0.9495527 0.1166631 0.7968217 0.01461154 0.5146116 0.2031783 0.5504473 0.3833369 0.7968217 0.01461154 1 1 0.96875 1 0.96875 0.5 0.96875 1 0.9375 1 0.9375 0.5 0.9375 1 0.90625 1 0.90625 0.5 0.90625 1 0.875 1 0.875 0.5 0.875 1 0.84375 1 0.84375 0.5 0.84375 1 0.8125 1 0.8125 0.5 0.8125 1 0.78125 1 0.78125 0.5 0.78125 1 0.75 1 0.75 0.5 0.75 1 0.71875 1 0.71875 0.5 0.71875 1 0.6875 1 0.6875 0.5 0.6875 1 0.65625 1 0.65625 0.5 0.65625 1 0.625 1 0.625 0.5 0.625 1 0.59375 1 0.59375 0.5 0.59375 1 0.5625 1 0.5625 0.5 0.5625 1 0.53125 1 0.53125 0.5 0.53125 1 0.5 1 0.5 0.5 0.5 1 0.46875 1 0.46875 0.5 0.46875 0.5 0.46875 1 0.4375 1 0.4375 1 0.40625 1 0.40625 0.5 0.40625 1 0.375 1 0.375 0.5 0.375 1 0.34375 1 0.34375 0.5 0.34375 1 0.3125 1 0.3125 0.5 0.3125 1 0.28125 1 0.28125 0.5 0.28125 1 0.25 1 0.25 0.5 0.25 1 0.21875 1 0.21875 0.5 0.21875 1 0.1875 1 0.1875 0.5 0.1875 1 0.15625 1 0.15625 0.5 0.15625 1 0.125 1 0.125 0.5 0.125 1 0.09375 1 0.09375 0.5 0.09375 1 0.0625 1 0.0625 0.5 0.341844 0.4717311 0.2968217 0.4853885 0.1581559 0.4717311 0.2968217 0.4853885 0.25 0.49 0.1581559 0.4717311 0.25 0.49 0.2031783 0.4853885 0.1581559 0.4717311 0.1581559 0.4717311 0.1166631 0.4495527 0.02826887 0.341844 0.1166631 0.4495527 0.08029437 0.4197056 0.02826887 0.341844 0.08029437 0.4197056 0.05044728 0.3833369 0.02826887 0.341844 0.02826887 0.341844 0.01461154 0.2968217 0.00999999 0.25 0.00999999 0.25 0.01461154 0.2031783 0.02826887 0.341844 0.01461154 0.2031783 0.02826887 0.1581559 0.02826887 0.341844 0.02826887 0.1581559 0.05044728 0.1166631 0.08029437 0.08029437 0.08029437 0.08029437 0.1166631 0.05044728 0.02826887 0.1581559 0.1166631 0.05044728 0.1581559 0.02826887 0.02826887 0.1581559 0.1581559 0.02826887 0.2031783 0.01461154 0.25 0.00999999 0.25 0.00999999 0.2968217 0.01461154 0.1581559 0.02826887 0.2968217 0.01461154 0.341844 0.02826887 0.1581559 0.02826887 0.341844 0.02826887 0.3833369 0.05044728 0.4197056 0.08029437 0.4197056 0.08029437 0.4495527 0.1166631 0.341844 0.02826887 0.4495527 0.1166631 0.4717311 0.1581559 0.341844 0.02826887 0.4717311 0.1581559 0.4853885 0.2031783 0.49 0.25 0.49 0.25 0.4853885 0.2968217 0.4717311 0.1581559 0.4853885 0.2968217 0.4717311 0.341844 0.4717311 0.1581559 0.4717311 0.341844 0.4495527 0.3833369 0.341844 0.4717311 0.4495527 0.3833369 0.4197056 0.4197056 0.341844 0.4717311 0.4197056 0.4197056 0.3833369 0.4495527 0.341844 0.4717311 0.341844 0.4717311 0.1581559 0.4717311 0.1581559 0.02826887 0.1581559 0.4717311 0.02826887 0.341844 0.1581559 0.02826887 0.02826887 0.341844 0.02826887 0.1581559 0.1581559 0.02826887 0.1581559 0.02826887 0.341844 0.02826887 0.341844 0.4717311 0.341844 0.02826887 0.4717311 0.1581559 0.341844 0.4717311 0.0625 1 0.03125 1 0.03125 0.5 0.03125 1 0 1 0 0.5 0.7031784 0.4853885 0.75 0.49 0.7968217 0.4853885 0.7968217 0.4853885 0.841844 0.4717311 0.8833369 0.4495527 0.8833369 0.4495527 0.9197056 0.4197056 0.9495527 0.3833369 0.9495527 0.3833369 0.9717311 0.341844 0.9853885 0.2968217 0.9853885 0.2968217 0.99 0.25 0.9853885 0.2031783 0.9853885 0.2031783 0.9717311 0.1581559 0.9495527 0.1166631 0.9495527 0.1166631 0.9197056 0.08029437 0.8833369 0.05044728 0.8833369 0.05044728 0.841844 0.02826887 0.7968217 0.01461154 0.7968217 0.01461154 0.75 0.00999999 0.7031784 0.01461154 0.7031784 0.01461154 0.658156 0.02826887 0.6166632 0.05044728 0.6166632 0.05044728 0.5802944 0.08029437 0.5504473 0.1166631 0.5504473 0.1166631 0.5282689 0.1581559 0.5146116 0.2031783 0.5146116 0.2031783 0.51 0.25 0.5146116 0.2968217 0.5146116 0.2968217 0.5282689 0.341844 0.5504473 0.3833369 0.5504473 0.3833369 0.5802944 0.4197056 0.6166632 0.4495527 0.6166632 0.4495527 0.658156 0.4717311 0.7031784 0.4853885 0.7031784 0.4853885 0.7968217 0.4853885 0.8833369 0.4495527 0.8833369 0.4495527 0.9495527 0.3833369 0.7031784 0.4853885 0.9495527 0.3833369 0.9853885 0.2968217 0.7031784 0.4853885 0.9853885 0.2968217 0.9853885 0.2031783 0.9495527 0.1166631 0.9495527 0.1166631 0.8833369 0.05044728 0.7968217 0.01461154 0.7968217 0.01461154 0.7031784 0.01461154 0.6166632 0.05044728 0.6166632 0.05044728 0.5504473 0.1166631 0.5146116 0.2031783 0.5146116 0.2031783 0.5146116 0.2968217 0.5504473 0.3833369 0.5504473 0.3833369 0.6166632 0.4495527 0.7031784 0.4853885 0.9853885 0.2968217 0.9495527 0.1166631 0.7031784 0.4853885 0.9495527 0.1166631 0.7968217 0.01461154 0.7031784 0.4853885 0.7968217 0.01461154 0.6166632 0.05044728 0.7031784 0.4853885 0.6166632 0.05044728 0.5146116 0.2031783 0.7031784 0.4853885 1 1 0.8 1 0.8 0.5 0.8 0.5 0.8 1 0.6 1 0.6 1 0.4 1 0.4 0.5 0.3910685 0.0558359 0.4782536 0.3241641 0.25 0.49 0.25 0.49 0.02174639 0.3241641 0.1089315 0.0558359 0.4 1 0.2 1 0.2 0.5 0.2 0.5 0.2 1 0 1 0.5217465 0.3241641 0.75 0.49 0.6089316 0.0558359 0.75 0.49 0.9782536 0.3241641 0.6089316 0.0558359 0 1 1 1 1 0 1 0 1 1 0 1 0 1 0 1 1 1 1 0 1 0 0 0 1 1 1 1 1 0 0 1 0 0 0 0 0 1 1 1 1 1 0 0 0 1 0 1 1 0 1 1 0 1 0 1 1 1 1 0 1 0 0 0 0 0 1 1 1 0 1 0 0 1 1 1 1 0 1 0 1 1 0 1 0 1 0 1 1 1 0 0 1 0 1 0 1 1 1 1 1 0 0 1 0 0 0 0 0 1 1 1 1 0 1 0 1 1 0 1 1 1 0 1 0 1 1 0 1 0 0 0 1 1 1 1 1 0 0 1 0 0 0 0 0 1 1 1 1 0 1 0 1 1 0 1 0 0 0 0 0 1 1 1 0 1 0 1 1 0 1 0 0 0 1 1 1 1 1 0 0.6 0.5 0.8 0.5 0.8 1 0.4 1 0.4 0.5 0.6 0.5 0.2 0.5 0.4 0.5 0.4 1 0.3910685 0.0558359 0.4782536 0.3241641 0.25 0.49 0.25 0.49 0.02174639 0.3241641 0.1089315 0.0558359 0 0.5 0.2 0.5 0.2 1 0.5217465 0.3241641 0.75 0.49 0.6089316 0.0558359 0.75 0.49 0.9782536 0.3241641 0.6089316 0.0558359 0.8 0.5 1 0.5 1 1 0 1 1 1 1 0 1 0 1 1 0 1 1 1 0 1 0 1 0 0 1 0 1 0 1 1 1 1 1 0 0 1 0 0 0 0 1 1 0 1 0 0 0 0 0 0 1 0 1 1 1 1 1 0 0 1 0 1 1 1 0 0 0 0 0 1 0 0 0 1 1 1 1 1 0 1 0 0 0 0 0 0 1 0 1 1 1 1 1 0 1 1 0 1 0 1 0 0 0 0 0 1 0 0 0 1 1 1 0.6 1 0.6 0.5 0.8 0.5 0.4 0.5 0.6 0.5 0.6 1 0.2 0.5 0.4 0.5 0.4 1 0.3910685 0.0558359 0.4782536 0.3241641 0.1089315 0.0558359 0.4782536 0.3241641 0.25 0.49 0.1089315 0.0558359 0 1 0 0.5 0.2 0.5 0.5217465 0.3241641 0.75 0.49 0.9782536 0.3241641 0.9782536 0.3241641 0.8910685 0.0558359 0.6089316 0.0558359 0.8 0.5 1 0.5 1 1 0 0 1 0 1 1 0 1 1 1 1 1 0 1 0 0 0 0 1 0 1 0 0 0 1 1 1 1 1 0 1 1 1 0 0 0 0 0 1 0 1 1 0 1 1 1 1 1 0 0 0 0 0 1 1 0 1 0 0 0 1 1 1 1 1 0 1 1 1 0 0 0 1 0 1 1 0 1 0 1 1 1 1 1 0 0 0 0 0 1 1 0 1 0 0 0 1 1 1 1 1 0 0 1 1 1 1 0 0 1 1 1 1 1 1 1 1 0 1 0 1 0 0 0 0 1 0 0 1 0 1 1 1 0 1 0 0 0 0 0 0 0 0 1 0 0 1 0 1 1 1 1 1 1 0 1 0 1 0 0 0 0 1 0 1 0 0 0 1 1 1 1 1 0 1 1 1 0 0 0 0 1 1 1 1 1 1 1 1 0 1 0 1 0 0 0 0 1 0 0 1 0 1 1 1 0 1 0 0 0 0 0 0 0 0 1</float_array>
          <technique_common>
            <accessor source="#Cylinder_007-mesh-map-0-array" count="1860" stride="2">
              <param name="S" type="float"/>
              <param name="T" type="float"/>
            </accessor>
          </technique_common>
        </source>
        <vertices id="Cylinder_007-mesh-vertices">
          <input semantic="POSITION" source="#Cylinder_007-mesh-positions"/>
        </vertices>
        <triangles material="Material-material" count="620">
          <input semantic="VERTEX" source="#Cylinder_007-mesh-vertices" offset="0"/>
          <input semantic="NORMAL" source="#Cylinder_007-mesh-normals" offset="1"/>
          <input semantic="TEXCOORD" source="#Cylinder_007-mesh-map-0" offset="2" set="0"/>
          <p>7 0 0 1 1 1 2 2 2 3 3 3 7 0 4 2 2 5 9 4 6 3 3 7 4 5 8 4 5 9 3 3 10 2 2 11 5 6 12 4 5 13 0 7 14 7 0 15 8 8 16 9 4 17 6 9 18 0 7 19 1 1 20 11 10 21 12 11 22 10 12 23 12 11 24 15 13 25 14 14 26 15 13 27 16 15 28 14 14 29 11 10 30 19 16 31 17 17 32 17 17 33 18 18 34 16 15 35 18 18 36 11 10 37 10 12 38 12 11 39 16 15 40 18 18 41 21 19 42 22 20 43 20 21 44 23 22 45 24 23 46 22 20 47 25 24 48 26 25 49 24 23 50 27 26 51 28 27 52 26 25 53 29 28 54 30 29 55 28 27 56 31 30 57 32 31 58 30 29 59 33 32 60 34 33 61 32 31 62 35 34 63 36 35 64 34 33 65 37 36 66 38 37 67 36 35 68 39 38 69 40 39 70 38 37 71 41 40 72 42 41 73 40 39 74 43 42 75 44 43 76 42 41 77 45 44 78 46 45 79 44 43 80 47 46 81 48 47 82 46 45 83 49 48 84 50 49 85 48 47 86 51 50 87 52 51 88 50 49 89 53 52 90 54 53 91 52 51 92 54 53 93 57 54 94 56 55 95 57 54 96 58 56 97 56 55 98 59 57 99 60 58 100 58 56 101 61 59 102 62 60 103 60 58 104 63 61 105 64 62 106 62 60 107 65 63 108 66 64 109 64 62 110 67 65 111 68 66 112 66 64 113 69 67 114 70 68 115 68 66 116 71 69 117 72 70 118 70 68 119 73 71 120 74 72 121 72 70 122 75 73 123 76 74 124 74 72 125 77 75 126 78 76 127 76 74 128 79 77 129 80 78 130 78 76 131 73 71 132 57 54 133 41 40 134 81 79 135 82 80 136 80 78 137 83 81 138 20 21 139 82 80 140 50 49 141 66 64 142 82 80 143 85 19 144 86 82 145 84 21 146 87 22 147 88 83 148 86 82 149 89 84 150 90 85 151 88 83 152 91 86 153 92 87 154 90 85 155 93 88 156 94 89 157 92 87 158 95 90 159 96 91 160 94 89 161 97 92 162 98 93 163 96 91 164 99 94 165 100 95 166 98 93 167 101 96 168 102 97 169 100 95 170 103 98 171 104 99 172 102 97 173 105 100 174 106 101 175 104 99 176 107 102 177 108 103 178 106 101 179 109 104 180 110 105 181 108 103 182 111 106 183 112 107 184 110 105 185 113 108 186 114 109 187 112 107 188 115 50 189 116 51 190 114 109 191 117 52 192 118 53 193 116 51 194 118 53 195 121 110 196 120 55 197 121 110 198 122 111 199 120 55 200 123 112 201 124 113 202 122 111 203 125 114 204 126 115 205 124 113 206 127 116 207 128 117 208 126 115 209 129 118 210 130 119 211 128 117 212 131 120 213 132 121 214 130 119 215 133 122 216 134 123 217 132 121 218 135 124 219 136 125 220 134 123 221 137 126 222 138 127 223 136 125 224 139 128 225 140 74 226 138 127 227 141 129 228 142 130 229 140 74 230 143 131 231 144 132 232 142 130 233 89 84 234 137 126 235 121 110 236 145 133 237 146 134 238 144 132 239 147 81 240 84 21 241 146 134 242 138 127 243 146 134 244 114 109 245 149 135 246 150 136 247 148 21 248 151 137 249 152 138 250 150 136 251 153 139 252 154 140 253 152 138 254 155 141 255 156 142 256 154 140 257 157 143 258 158 144 259 156 142 260 159 145 261 160 146 262 158 144 263 161 147 264 162 148 265 160 146 266 163 149 267 164 150 268 162 148 269 165 151 270 166 152 271 164 150 272 167 153 273 168 154 274 166 152 275 169 155 276 170 156 277 168 154 278 171 157 279 172 158 280 170 156 281 173 159 282 174 160 283 172 158 284 175 161 285 176 162 286 174 160 287 177 163 288 178 164 289 176 162 290 179 165 291 180 51 292 178 164 293 181 166 294 182 167 295 180 51 296 182 167 297 185 168 298 184 169 299 185 168 300 186 170 301 184 169 302 187 171 303 188 172 304 186 170 305 189 173 306 190 174 307 188 172 308 191 175 309 192 176 310 190 174 311 193 177 312 194 178 313 192 176 314 195 179 315 196 180 316 194 178 317 197 181 318 198 182 319 196 180 320 199 183 321 200 184 322 198 182 323 201 185 324 202 186 325 200 184 326 203 187 327 204 188 328 202 186 329 205 189 330 206 190 331 204 188 332 207 191 333 208 192 334 206 190 335 169 155 336 161 147 337 153 139 338 209 193 339 210 194 340 208 192 341 211 195 342 148 21 343 210 194 344 194 178 345 202 186 346 210 194 347 213 196 348 214 197 349 212 198 350 214 197 351 217 199 352 216 200 353 217 199 354 218 201 355 216 200 356 213 196 357 219 202 358 217 199 359 219 202 360 220 203 361 218 201 362 220 203 363 213 196 364 212 198 365 214 197 366 216 200 367 218 201 368 224 204 369 223 205 370 222 206 371 228 207 372 226 208 373 227 209 374 224 204 375 229 210 376 225 211 377 223 205 378 227 209 379 222 206 380 225 211 381 228 207 382 223 205 383 224 204 384 227 209 385 226 208 386 230 212 387 237 213 388 234 214 389 231 215 390 234 214 391 235 216 392 232 217 393 230 212 394 231 215 395 234 214 396 236 218 397 235 216 398 232 217 399 235 216 400 236 218 401 233 219 402 236 218 403 237 213 404 240 220 405 239 221 406 238 222 407 244 223 408 242 224 409 243 225 410 240 220 411 245 226 412 241 227 413 238 222 414 244 223 415 243 225 416 241 227 417 244 223 418 239 221 419 240 220 420 243 225 421 242 224 422 248 228 423 247 229 424 246 230 425 252 231 426 250 232 427 251 233 428 249 234 429 250 232 430 253 235 431 247 229 432 251 233 433 246 230 434 249 234 435 252 231 436 247 229 437 248 228 438 251 233 439 250 232 440 256 236 441 255 237 442 254 238 443 260 239 444 258 240 445 259 241 446 254 238 447 258 240 448 256 236 449 257 242 450 258 240 451 261 243 452 255 237 453 259 241 454 254 238 455 257 242 456 260 239 457 255 237 458 269 244 459 263 245 460 264 246 461 265 247 462 269 244 463 264 246 464 271 248 465 265 247 466 266 249 467 262 250 468 265 247 469 264 246 470 267 251 471 266 249 472 262 250 473 268 252 474 269 244 475 270 253 476 268 252 477 262 250 478 263 245 479 274 254 480 273 255 481 272 256 482 278 257 483 276 258 484 277 259 485 275 260 486 276 258 487 279 261 488 272 256 489 278 257 490 277 259 491 275 260 492 278 257 493 273 255 494 274 254 495 277 259 496 276 258 497 283 262 498 287 263 499 282 264 500 287 263 501 280 265 502 282 264 503 281 266 504 282 264 505 280 265 506 284 267 507 283 262 508 281 266 509 285 268 510 286 269 511 284 267 512 285 268 513 281 266 514 280 265 515 291 270 516 295 271 517 290 272 518 295 271 519 288 273 520 290 272 521 289 274 522 290 272 523 288 273 524 289 274 525 294 275 526 291 270 527 293 276 528 294 275 529 292 277 530 293 276 531 289 274 532 288 273 533 298 278 534 302 279 535 297 280 536 304 281 537 298 278 538 299 282 539 305 283 540 299 282 541 300 284 542 296 285 543 300 284 544 299 282 545 296 285 546 305 283 547 300 284 548 302 279 549 304 281 550 305 283 551 302 279 552 296 285 553 297 280 554 309 286 555 313 287 556 308 288 557 308 288 558 311 289 559 307 290 560 307 290 561 309 286 562 308 288 563 310 291 564 309 286 565 306 292 566 311 289 567 312 293 568 310 291 569 311 289 570 306 292 571 307 290 572 317 294 573 321 295 574 316 296 575 316 296 576 319 297 577 315 298 578 314 299 579 316 296 580 315 298 581 318 300 582 317 294 583 314 299 584 319 297 585 320 301 586 318 300 587 319 297 588 314 299 589 315 298 590 328 302 591 324 303 592 325 304 593 324 303 594 327 305 595 323 306 596 322 307 597 324 303 598 323 306 599 326 308 600 325 304 601 322 307 602 327 305 603 328 302 604 326 308 605 323 306 606 326 308 607 322 307 608 331 309 609 332 310 610 330 311 611 333 312 612 337 313 613 332 310 614 337 313 615 330 311 616 332 310 617 335 314 618 333 312 619 331 309 620 337 313 621 335 314 622 334 315 623 334 315 624 331 309 625 330 311 626 341 316 627 345 317 628 340 318 629 345 317 630 339 319 631 340 318 632 339 319 633 341 316 634 340 318 635 342 320 636 341 316 637 338 321 638 343 322 639 344 323 640 342 320 641 343 322 642 338 321 643 339 319 644 347 324 645 348 325 646 346 326 647 349 327 648 353 328 649 348 325 650 353 328 651 346 326 652 348 325 653 351 329 654 349 327 655 347 324 656 353 328 657 351 329 658 350 330 659 350 330 660 347 324 661 346 326 662 7 0 663 6 9 664 1 1 665 3 3 666 8 8 667 7 0 668 9 4 669 8 8 670 3 3 671 2 2 672 1 1 673 0 7 674 0 7 675 4 5 676 2 2 677 5 6 678 9 4 679 4 5 680 9 4 681 5 6 682 6 9 683 6 9 684 7 0 685 9 4 686 6 9 687 5 6 688 0 7 689 11 10 690 13 331 691 12 11 692 12 11 693 13 331 694 15 13 695 15 13 696 17 17 697 16 15 698 15 13 699 13 331 700 17 17 701 13 331 702 11 10 703 17 17 704 17 17 705 19 16 706 18 18 707 18 18 708 19 16 709 11 10 710 18 18 711 10 12 712 12 11 713 12 11 714 14 14 715 16 15 716 21 19 717 23 22 718 22 20 719 23 22 720 25 24 721 24 23 722 25 24 723 27 26 724 26 25 725 27 26 726 29 28 727 28 27 728 29 28 729 31 30 730 30 29 731 31 30 732 33 32 733 32 31 734 33 32 735 35 34 736 34 33 737 35 34 738 37 36 739 36 35 740 37 36 741 39 38 742 38 37 743 39 38 744 41 40 745 40 39 746 41 40 747 43 42 748 42 41 749 43 42 750 45 44 751 44 43 752 45 44 753 47 46 754 46 45 755 47 46 756 49 48 757 48 47 758 49 48 759 51 50 760 50 49 761 51 50 762 53 52 763 52 51 764 53 52 765 55 332 766 54 53 767 54 53 768 55 332 769 57 54 770 57 54 771 59 57 772 58 56 773 59 57 774 61 59 775 60 58 776 61 59 777 63 61 778 62 60 779 63 61 780 65 63 781 64 62 782 65 63 783 67 65 784 66 64 785 67 65 786 69 67 787 68 66 788 69 67 789 71 69 790 70 68 791 71 69 792 73 71 793 72 70 794 73 71 795 75 73 796 74 72 797 75 73 798 77 75 799 76 74 800 77 75 801 79 77 802 78 76 803 79 77 804 81 79 805 80 78 806 25 24 807 23 22 808 81 79 809 23 22 810 21 19 811 81 79 812 21 19 813 83 81 814 81 79 815 81 79 816 79 77 817 73 71 818 79 77 819 77 75 820 73 71 821 77 75 822 75 73 823 73 71 824 73 71 825 71 69 826 65 63 827 71 69 828 69 67 829 65 63 830 69 67 831 67 65 832 65 63 833 65 63 834 63 61 835 61 59 836 61 59 837 59 57 838 65 63 839 59 57 840 57 54 841 65 63 842 57 54 843 55 332 844 53 52 845 53 52 846 51 50 847 57 54 848 51 50 849 49 48 850 57 54 851 49 48 852 47 46 853 45 44 854 45 44 855 43 42 856 49 48 857 43 42 858 41 40 859 49 48 860 41 40 861 39 38 862 33 32 863 39 38 864 37 36 865 33 32 866 37 36 867 35 34 868 33 32 869 33 32 870 31 30 871 25 24 872 31 30 873 29 28 874 25 24 875 29 28 876 27 26 877 25 24 878 25 24 879 81 79 880 73 71 881 73 71 882 65 63 883 57 54 884 57 54 885 49 48 886 41 40 887 41 40 888 33 32 889 25 24 890 25 24 891 73 71 892 41 40 893 81 79 894 83 81 895 82 80 896 83 81 897 21 19 898 20 21 899 82 80 900 20 21 901 22 20 902 22 20 903 24 23 904 26 25 905 26 25 906 28 27 907 30 29 908 30 29 909 32 31 910 34 33 911 34 33 912 36 35 913 38 37 914 38 37 915 40 39 916 42 41 917 42 41 918 44 43 919 46 45 920 46 45 921 48 47 922 50 49 923 50 49 924 52 51 925 54 53 926 54 53 927 56 55 928 58 56 929 58 56 930 60 58 931 62 60 932 62 60 933 64 62 934 66 64 935 66 64 936 68 66 937 70 68 938 70 68 939 72 70 940 74 72 941 74 72 942 76 74 943 78 76 944 78 76 945 80 78 946 82 80 947 82 80 948 22 20 949 34 33 950 22 20 951 26 25 952 34 33 953 26 25 954 30 29 955 34 33 956 34 33 957 38 37 958 50 49 959 38 37 960 42 41 961 50 49 962 42 41 963 46 45 964 50 49 965 50 49 966 54 53 967 66 64 968 54 53 969 58 56 970 66 64 971 58 56 972 62 60 973 66 64 974 66 64 975 70 68 976 82 80 977 70 68 978 74 72 979 82 80 980 74 72 981 78 76 982 82 80 983 82 80 984 34 33 985 50 49 986 85 19 987 87 22 988 86 82 989 87 22 990 89 84 991 88 83 992 89 84 993 91 86 994 90 85 995 91 86 996 93 88 997 92 87 998 93 88 999 95 90 1000 94 89 1001 95 90 1002 97 92 1003 96 91 1004 97 92 1005 99 94 1006 98 93 1007 99 94 1008 101 96 1009 100 95 1010 101 96 1011 103 98 1012 102 97 1013 103 98 1014 105 100 1015 104 99 1016 105 100 1017 107 102 1018 106 101 1019 107 102 1020 109 104 1021 108 103 1022 109 104 1023 111 106 1024 110 105 1025 111 106 1026 113 108 1027 112 107 1028 113 108 1029 115 50 1030 114 109 1031 115 50 1032 117 52 1033 116 51 1034 117 52 1035 119 332 1036 118 53 1037 118 53 1038 119 332 1039 121 110 1040 121 110 1041 123 112 1042 122 111 1043 123 112 1044 125 114 1045 124 113 1046 125 114 1047 127 116 1048 126 115 1049 127 116 1050 129 118 1051 128 117 1052 129 118 1053 131 120 1054 130 119 1055 131 120 1056 133 122 1057 132 121 1058 133 122 1059 135 124 1060 134 123 1061 135 124 1062 137 126 1063 136 125 1064 137 126 1065 139 128 1066 138 127 1067 139 128 1068 141 129 1069 140 74 1070 141 129 1071 143 131 1072 142 130 1073 143 131 1074 145 133 1075 144 132 1076 89 84 1077 87 22 1078 145 133 1079 87 22 1080 85 19 1081 145 133 1082 85 19 1083 147 81 1084 145 133 1085 145 133 1086 143 131 1087 137 126 1088 143 131 1089 141 129 1090 137 126 1091 141 129 1092 139 128 1093 137 126 1094 137 126 1095 135 124 1096 133 122 1097 133 122 1098 131 120 1099 137 126 1100 131 120 1101 129 118 1102 137 126 1103 129 118 1104 127 116 1105 121 110 1106 127 116 1107 125 114 1108 121 110 1109 125 114 1110 123 112 1111 121 110 1112 121 110 1113 119 332 1114 117 52 1115 117 52 1116 115 50 1117 121 110 1118 115 50 1119 113 108 1120 121 110 1121 113 108 1122 111 106 1123 109 104 1124 109 104 1125 107 102 1126 113 108 1127 107 102 1128 105 100 1129 113 108 1130 105 100 1131 103 98 1132 97 92 1133 103 98 1134 101 96 1135 97 92 1136 101 96 1137 99 94 1138 97 92 1139 97 92 1140 95 90 1141 93 88 1142 93 88 1143 91 86 1144 97 92 1145 91 86 1146 89 84 1147 97 92 1148 89 84 1149 145 133 1150 137 126 1151 137 126 1152 129 118 1153 121 110 1154 121 110 1155 113 108 1156 105 100 1157 105 100 1158 97 92 1159 121 110 1160 97 92 1161 89 84 1162 121 110 1163 145 133 1164 147 81 1165 146 134 1166 147 81 1167 85 19 1168 84 21 1169 146 134 1170 84 21 1171 86 82 1172 86 82 1173 88 83 1174 90 85 1175 90 85 1176 92 87 1177 94 89 1178 94 89 1179 96 91 1180 98 93 1181 98 93 1182 100 95 1183 102 97 1184 102 97 1185 104 99 1186 106 101 1187 106 101 1188 108 103 1189 110 105 1190 110 105 1191 112 107 1192 114 109 1193 114 109 1194 116 51 1195 118 53 1196 118 53 1197 120 55 1198 122 111 1199 122 111 1200 124 113 1201 126 115 1202 126 115 1203 128 117 1204 130 119 1205 130 119 1206 132 121 1207 134 123 1208 134 123 1209 136 125 1210 138 127 1211 138 127 1212 140 74 1213 142 130 1214 142 130 1215 144 132 1216 146 134 1217 146 134 1218 86 82 1219 90 85 1220 90 85 1221 94 89 1222 98 93 1223 98 93 1224 102 97 1225 106 101 1226 106 101 1227 110 105 1228 114 109 1229 114 109 1230 118 53 1231 130 119 1232 118 53 1233 122 111 1234 130 119 1235 122 111 1236 126 115 1237 130 119 1238 130 119 1239 134 123 1240 138 127 1241 138 127 1242 142 130 1243 146 134 1244 146 134 1245 90 85 1246 114 109 1247 90 85 1248 98 93 1249 114 109 1250 98 93 1251 106 101 1252 114 109 1253 130 119 1254 138 127 1255 114 109 1256 149 135 1257 151 137 1258 150 136 1259 151 137 1260 153 139 1261 152 138 1262 153 139 1263 155 141 1264 154 140 1265 155 141 1266 157 143 1267 156 142 1268 157 143 1269 159 145 1270 158 144 1271 159 145 1272 161 147 1273 160 146 1274 161 147 1275 163 149 1276 162 148 1277 163 149 1278 165 151 1279 164 150 1280 165 151 1281 167 153 1282 166 152 1283 167 153 1284 169 155 1285 168 154 1286 169 155 1287 171 157 1288 170 156 1289 171 157 1290 173 159 1291 172 158 1292 173 159 1293 175 161 1294 174 160 1295 175 161 1296 177 163 1297 176 162 1298 177 163 1299 179 165 1300 178 164 1301 179 165 1302 181 166 1303 180 51 1304 181 166 1305 183 333 1306 182 167 1307 182 167 1308 183 333 1309 185 168 1310 185 168 1311 187 171 1312 186 170 1313 187 171 1314 189 173 1315 188 172 1316 189 173 1317 191 175 1318 190 174 1319 191 175 1320 193 177 1321 192 176 1322 193 177 1323 195 179 1324 194 178 1325 195 179 1326 197 181 1327 196 180 1328 197 181 1329 199 183 1330 198 182 1331 199 183 1332 201 185 1333 200 184 1334 201 185 1335 203 187 1336 202 186 1337 203 187 1338 205 189 1339 204 188 1340 205 189 1341 207 191 1342 206 190 1343 207 191 1344 209 193 1345 208 192 1346 153 139 1347 151 137 1348 209 193 1349 151 137 1350 149 135 1351 209 193 1352 149 135 1353 211 195 1354 209 193 1355 209 193 1356 207 191 1357 201 185 1358 207 191 1359 205 189 1360 201 185 1361 205 189 1362 203 187 1363 201 185 1364 201 185 1365 199 183 1366 197 181 1367 197 181 1368 195 179 1369 201 185 1370 195 179 1371 193 177 1372 201 185 1373 193 177 1374 191 175 1375 189 173 1376 189 173 1377 187 171 1378 193 177 1379 187 171 1380 185 168 1381 193 177 1382 185 168 1383 183 333 1384 181 166 1385 181 166 1386 179 165 1387 185 168 1388 179 165 1389 177 163 1390 185 168 1391 177 163 1392 175 161 1393 173 159 1394 173 159 1395 171 157 1396 177 163 1397 171 157 1398 169 155 1399 177 163 1400 169 155 1401 167 153 1402 165 151 1403 165 151 1404 163 149 1405 169 155 1406 163 149 1407 161 147 1408 169 155 1409 161 147 1410 159 145 1411 153 139 1412 159 145 1413 157 143 1414 153 139 1415 157 143 1416 155 141 1417 153 139 1418 153 139 1419 209 193 1420 185 168 1421 209 193 1422 201 185 1423 185 168 1424 201 185 1425 193 177 1426 185 168 1427 185 168 1428 177 163 1429 153 139 1430 177 163 1431 169 155 1432 153 139 1433 209 193 1434 211 195 1435 210 194 1436 211 195 1437 149 135 1438 148 21 1439 210 194 1440 148 21 1441 150 136 1442 150 136 1443 152 138 1444 154 140 1445 154 140 1446 156 142 1447 158 144 1448 158 144 1449 160 146 1450 162 148 1451 162 148 1452 164 150 1453 166 152 1454 166 152 1455 168 154 1456 170 156 1457 170 156 1458 172 158 1459 174 160 1460 174 160 1461 176 162 1462 178 164 1463 178 164 1464 180 51 1465 182 167 1466 182 167 1467 184 169 1468 186 170 1469 186 170 1470 188 172 1471 190 174 1472 190 174 1473 192 176 1474 194 178 1475 194 178 1476 196 180 1477 198 182 1478 198 182 1479 200 184 1480 202 186 1481 202 186 1482 204 188 1483 206 190 1484 206 190 1485 208 192 1486 210 194 1487 210 194 1488 150 136 1489 154 140 1490 154 140 1491 158 144 1492 210 194 1493 158 144 1494 162 148 1495 210 194 1496 162 148 1497 166 152 1498 170 156 1499 170 156 1500 174 160 1501 178 164 1502 178 164 1503 182 167 1504 186 170 1505 186 170 1506 190 174 1507 194 178 1508 194 178 1509 198 182 1510 202 186 1511 202 186 1512 206 190 1513 210 194 1514 162 148 1515 170 156 1516 210 194 1517 170 156 1518 178 164 1519 210 194 1520 178 164 1521 186 170 1522 210 194 1523 186 170 1524 194 178 1525 210 194 1526 213 196 1527 215 334 1528 214 197 1529 214 197 1530 215 334 1531 217 199 1532 217 199 1533 219 202 1534 218 201 1535 217 199 1536 215 334 1537 213 196 1538 213 196 1539 221 335 1540 219 202 1541 219 202 1542 221 335 1543 220 203 1544 220 203 1545 221 335 1546 213 196 1547 220 203 1548 212 198 1549 218 201 1550 212 198 1551 214 197 1552 218 201 1553 224 204 1554 225 211 1555 223 205 1556 228 207 1557 229 210 1558 226 208 1559 224 204 1560 226 208 1561 229 210 1562 223 205 1563 228 207 1564 227 209 1565 225 211 1566 229 210 1567 228 207 1568 224 204 1569 222 206 1570 227 209 1571 230 212 1572 233 219 1573 237 213 1574 231 215 1575 230 212 1576 234 214 1577 232 217 1578 233 219 1579 230 212 1580 234 214 1581 237 213 1582 236 218 1583 232 217 1584 231 215 1585 235 216 1586 233 219 1587 232 217 1588 236 218 1589 240 220 1590 241 227 1591 239 221 1592 244 223 1593 245 226 1594 242 224 1595 240 220 1596 242 224 1597 245 226 1598 238 222 1599 239 221 1600 244 223 1601 241 227 1602 245 226 1603 244 223 1604 240 220 1605 238 222 1606 243 225 1607 248 228 1608 249 234 1609 247 229 1610 252 231 1611 253 235 1612 250 232 1613 249 234 1614 248 228 1615 250 232 1616 247 229 1617 252 231 1618 251 233 1619 249 234 1620 253 235 1621 252 231 1622 248 228 1623 246 230 1624 251 233 1625 256 236 1626 257 242 1627 255 237 1628 260 239 1629 261 243 1630 258 240 1631 254 238 1632 259 241 1633 258 240 1634 257 242 1635 256 236 1636 258 240 1637 255 237 1638 260 239 1639 259 241 1640 257 242 1641 261 243 1642 260 239 1643 269 244 1644 268 252 1645 263 245 1646 265 247 1647 270 253 1648 269 244 1649 271 248 1650 270 253 1651 265 247 1652 264 246 1653 263 245 1654 262 250 1655 262 250 1656 266 249 1657 265 247 1658 267 251 1659 271 248 1660 266 249 1661 271 248 1662 267 251 1663 270 253 1664 267 251 1665 268 252 1666 270 253 1667 268 252 1668 267 251 1669 262 250 1670 274 254 1671 275 260 1672 273 255 1673 278 257 1674 279 261 1675 276 258 1676 275 260 1677 274 254 1678 276 258 1679 272 256 1680 273 255 1681 278 257 1682 275 260 1683 279 261 1684 278 257 1685 274 254 1686 272 256 1687 277 259 1688 283 262 1689 286 269 1690 287 263 1691 287 263 1692 285 268 1693 280 265 1694 281 266 1695 283 262 1696 282 264 1697 284 267 1698 286 269 1699 283 262 1700 285 268 1701 287 263 1702 286 269 1703 285 268 1704 284 267 1705 281 266 1706 291 270 1707 294 275 1708 295 271 1709 295 271 1710 293 276 1711 288 273 1712 289 274 1713 291 270 1714 290 272 1715 289 274 1716 292 277 1717 294 275 1718 293 276 1719 295 271 1720 294 275 1721 293 276 1722 292 277 1723 289 274 1724 298 278 1725 303 336 1726 302 279 1727 304 281 1728 303 336 1729 298 278 1730 305 283 1731 304 281 1732 299 282 1733 298 278 1734 297 280 1735 299 282 1736 297 280 1737 296 285 1738 299 282 1739 296 285 1740 301 337 1741 305 283 1742 305 283 1743 301 337 1744 302 279 1745 302 279 1746 303 336 1747 304 281 1748 302 279 1749 301 337 1750 296 285 1751 309 286 1752 312 293 1753 313 287 1754 308 288 1755 313 287 1756 311 289 1757 307 290 1758 306 292 1759 309 286 1760 310 291 1761 312 293 1762 309 286 1763 311 289 1764 313 287 1765 312 293 1766 311 289 1767 310 291 1768 306 292 1769 317 294 1770 320 301 1771 321 295 1772 316 296 1773 321 295 1774 319 297 1775 314 299 1776 317 294 1777 316 296 1778 318 300 1779 320 301 1780 317 294 1781 319 297 1782 321 295 1783 320 301 1784 319 297 1785 318 300 1786 314 299 1787 328 302 1788 329 338 1789 324 303 1790 324 303 1791 329 338 1792 327 305 1793 322 307 1794 325 304 1795 324 303 1796 326 308 1797 328 302 1798 325 304 1799 327 305 1800 329 338 1801 328 302 1802 323 306 1803 327 305 1804 326 308 1805 331 309 1806 333 312 1807 332 310 1808 333 312 1809 336 339 1810 337 313 1811 337 313 1812 334 315 1813 330 311 1814 335 314 1815 336 339 1816 333 312 1817 337 313 1818 336 339 1819 335 314 1820 334 315 1821 335 314 1822 331 309 1823 341 316 1824 344 323 1825 345 317 1826 345 317 1827 343 322 1828 339 319 1829 339 319 1830 338 321 1831 341 316 1832 342 320 1833 344 323 1834 341 316 1835 343 322 1836 345 317 1837 344 323 1838 343 322 1839 342 320 1840 338 321 1841 347 324 1842 349 327 1843 348 325 1844 349 327 1845 352 340 1846 353 328 1847 353 328 1848 350 330 1849 346 326 1850 351 329 1851 352 340 1852 349 327 1853 353 328 1854 352 340 1855 351 329 1856 350 330 1857 351 329 1858 347 324 1859</p>
        </triangles>
      </mesh>
    </geometry>
  </library_geometries>
  <library_visual_scenes>
    <visual_scene id="Scene" name="Scene">
      <node id="tmp_export_Cylinder_007" name="tmp_export_Cylinder.007" type="NODE">
        <matrix sid="transform">1 0 0 0 0 1 0 0 0 0 1 0 0 0 0 1</matrix>
        <instance_geometry url="#Cylinder_007-mesh" name="tmp_export_Cylinder.007">
          <bind_material>
            <technique_common>
              <instance_material symbol="Material-material" target="#Material-material">
                <bind_vertex_input semantic="UVMap" input_semantic="TEXCOORD" input_set="0"/>
              </instance_material>
            </technique_common>
          </bind_material>
        </instance_geometry>
      </node>
    </visual_scene>
  </library_visual_scenes>
  <scene>
    <instance_visual_scene url="#Scene"/>
  </scene>
</COLLADA>