<?xml version="1.0" encoding="utf-8"?>
<COLLADA xmlns="http://www.collada.org/2005/11/COLLADASchema" version="1.4.1" xmlns:xsi="http://www.w3.org/2001/XMLSchema-instance">
  <asset>
    <contributor>
      <author>Blender User</author>
      <authoring_tool>Blender 4.2.18 LTS commit date:2026-02-16, commit time:13:37, hash:d71e3422e438</authoring_tool>
    </contributor>
    <created>2026-04-03T18:41:27</created>
    <modified>2026-04-03T18:41:27</modified>
    <unit name="meter" meter="1"/>
    <up_axis>Z_UP</up_axis>
  </asset>
  <library_effects>
    <effect id="Material_001-effect">
      <profile_COMMON>
        <technique sid="common">
          <lambert>
            <emission>
              <color sid="emission">0 0 0 1</color>
            </emission>
            <diffuse>
              <color sid="diffuse">0.198068 0.1980695 0.1980694 1</color>
            </diffuse>
            <index_of_refraction>
              <float sid="ior">1.5</float>
            </index_of_refraction>
          </lambert>
        </technique>
      </profile_COMMON>
    </effect>
  </library_effects>
  <library_images/>
  <library_materials>
    <material id="Material_001-material" name="Material.001">
      <instance_effect url="#Material_001-effect"/>
    </material>
  </library_materials>
  <library_geometries>
    <geometry id="Cylinder_013-mesh" name="Cylinder.013">
      <mesh>
        <source id="Cylinder_013-mesh-positions">
          <float_array id="Cylinder_013-mesh-positions-array" count="1062">-0.1012125 -1.82607 -0.4489845 -0.1512125 -1.82607 -0.4489845 -0.1012125 -1.825598 -0.4537827 -0.1512125 -1.825598 -0.4537827 -0.1012125 -1.824198 -0.4583966 -0.1512125 -1.824198 -0.4583966 -0.1012125 -1.821925 -0.4626488 -0.1512125 -1.821925 -0.4626488 -0.1012125 -1.818867 -0.4663758 -0.1512125 -1.818867 -0.4663758 -0.1012125 -1.81514 -0.4694346 -0.1512125 -1.81514 -0.4694346 -0.1012125 -1.810887 -0.4717074 -0.1512125 -1.810887 -0.4717074 -0.1012125 -1.806273 -0.473107 -0.1512125 -1.806273 -0.473107 -0.1012125 -1.801475 -0.4735795 -0.1512125 -1.801475 -0.4735795 -0.1012125 -1.796677 -0.473107 -0.1512125 -1.796677 -0.473107 -0.1012125 -1.792063 -0.4717074 -0.1512125 -1.792063 -0.4717074 -0.1012125 -1.787811 -0.4694346 -0.1512125 -1.787811 -0.4694346 -0.1012125 -1.784084 -0.4663758 -0.1512125 -1.784084 -0.4663758 -0.1012125 -1.781025 -0.4626488 -0.1512125 -1.781025 -0.4626488 -0.1012125 -1.778752 -0.4583966 -0.1512125 -1.778752 -0.4583966 -0.1012125 -1.777353 -0.4537827 -0.1512125 -1.777353 -0.4537827 -0.1012125 -1.77688 -0.4489845 -0.1512125 -1.77688 -0.4489845 -0.1012125 -1.777353 -0.4441862 -0.1512125 -1.777353 -0.4441862 -0.1012125 -1.778752 -0.4395723 -0.1512125 -1.778752 -0.4395723 -0.1012125 -1.781025 -0.4353201 -0.1512125 -1.781025 -0.4353201 -0.1012125 -1.784084 -0.431593 -0.1512125 -1.784084 -0.431593 -0.1012125 -1.787811 -0.4285343 -0.1512125 -1.787811 -0.4285343 -0.1012125 -1.792063 -0.4262615 -0.1512125 -1.792063 -0.4262615 -0.1012125 -1.796677 -0.4248619 -0.1512125 -1.796677 -0.4248619 -0.1012125 -1.801475 -0.4243893 -0.1512125 -1.801475 -0.4243893 -0.1012125 -1.806273 -0.4248619 -0.1512125 -1.806273 -0.4248619 -0.1012125 -1.810887 -0.4262615 -0.1512125 -1.810887 -0.4262615 -0.1012125 -1.81514 -0.4285343 -0.1512125 -1.81514 -0.4285343 -0.1012125 -1.818867 -0.431593 -0.1512125 -1.818867 -0.431593 -0.1012125 -1.821925 -0.4353201 -0.1512125 -1.821925 -0.4353201 -0.1012125 -1.824198 -0.4395723 -0.1512125 -1.824198 -0.4395723 -0.1012125 -1.825598 -0.4441862 -0.1512125 -1.825598 -0.4441862 -0.04292583 0.871644 0.3328121 0.009752392 0.871644 0.3328121 -0.04292583 0.9120444 0.3328121 0.009752392 0.9120444 0.3328121 -0.04292583 0.871644 0.4825798 0.009752392 0.871644 0.4825798 0.009752392 0.9120446 0.4825798 -0.04292583 0.9120446 0.4825798 -0.04292583 0.8720135 0.3324264 -0.04292583 1.201257 0.08606821 0.009752392 1.201257 0.08606821 0.009752392 0.8720135 0.3324264 -0.04292583 0.8962176 0.3647738 -0.04292577 1.225461 0.1184156 0.009752392 0.8962176 0.3647738 0.009752452 1.225461 0.1184156 -0.04292553 -1.269834 0.3328121 0.00975269 -1.269834 0.3328121 -0.04292553 -1.229434 0.3328121 0.00975269 -1.229434 0.3328121 -0.04292553 -1.269834 0.4825798 0.00975269 -1.269834 0.4825798 0.00975269 -1.229434 0.4825798 -0.04292553 -1.229434 0.4825798 -0.04292553 -1.854684 0.2804082 -0.04292553 -1.309541 -0.1274979 0.00975269 -1.309541 -0.1274979 0.00975269 -1.854684 0.2804082 -0.04292553 -1.824531 0.3207061 -0.04292553 -1.279388 -0.08720004 0.00975269 -1.824531 0.3207061 0.00975269 -1.279388 -0.08720004 -0.04292583 1.475451 0.2804082 -0.04292577 0.9303085 -0.1274979 0.009752452 0.9303085 -0.1274979 0.009752392 1.475451 0.2804082 -0.04292583 1.445298 0.3207061 -0.04292577 0.9001553 -0.08720004 0.009752392 1.445298 0.3207061 0.009752511 0.9001553 -0.08720004 -0.04292553 -1.251241 0.3324267 -0.04292547 -1.580485 0.08606845 0.00975275 -1.580485 0.08606845 0.00975269 -1.251241 0.3324267 -0.04292553 -1.275445 0.3647742 -0.04292547 -1.604689 0.1184159 0.00975269 -1.275445 0.3647742 0.00975275 -1.604689 0.1184159 0.07937872 -0.176162 0.1624827 0.07937872 -0.2016011 0.1428292 0.01920175 -0.176162 0.1624828 0.01920175 -0.2016011 0.1428292 0.07937872 -0.4601161 0.4774459 0.07937878 -0.4346769 0.4970995 0.01920181 -0.4601162 0.4774459 0.01920181 -0.4346769 0.4970995 -0.1206719 1.433179 -0.4426407 -0.1206849 1.421888 -0.4578552 -0.04446804 0.9915267 -0.08430254 -0.04450666 0.9379823 -0.1292747 0.00996679 0.9915267 -0.08434933 -0.102256 1.433179 -0.4426565 -0.1022691 1.421888 -0.4578711 0.009928166 0.9379823 -0.1293215 0.009883046 -0.1549064 0.1588718 0.009883046 -0.1549064 -0.0552563 0.009883105 -0.2243245 0.1588718 0.009883105 -0.2243245 -0.0552563 -0.04370933 -0.2243245 0.1588718 -0.04370933 -0.1549064 0.1588718 -0.04370933 -0.1549064 -0.0552563 -0.04370927 -0.2243245 -0.0552563 -0.1206717 -1.812411 -0.4426406 -0.1206848 -1.801119 -0.4578552 -0.0444681 -1.370758 -0.08430254 -0.04450678 -1.317213 -0.1292747 0.009966731 -1.370758 -0.08434933 -0.1022558 -1.812411 -0.4426565 -0.1022689 -1.801119 -0.457871 0.009928047 -1.317213 -0.1293216 -0.1206718 -0.1650627 -0.4426407 -0.1206849 -0.1763542 -0.4578552 -0.04446768 -1.311178 -0.08430254 -0.04450631 -1.364723 -0.1292748 0.009967148 -1.311178 -0.08434933 -0.102256 -0.1650627 -0.4426565 -0.102269 -0.1763541 -0.4578711 0.009928524 -1.364723 -0.1293216 -0.0444253 -1.322438 -0.05525636 -0.04442602 0.9432071 -0.05525636 -0.04442602 0.9432071 -0.1197072 -0.0444253 -1.322438 -0.1197072 0.009891629 -1.322438 -0.05525636 0.009890854 0.9432071 -0.05525636 0.009890913 0.9432071 -0.1197072 0.009891629 -1.322438 -0.1197072 -0.1206719 -0.2130575 -0.4426406 -0.1206851 -0.2017663 -0.4578552 -0.04446846 0.9091351 -0.08430254 -0.04450714 0.9626797 -0.1292747 0.009966373 0.9091351 -0.08434933 -0.1022561 -0.2130575 -0.4426565 -0.1022692 -0.2017663 -0.457871 0.00992769 0.9626797 -0.1293215 0.07937878 -0.2061601 0.1624827 0.07937872 -0.180721 0.1428292 0.01920181 -0.2061602 0.1624828 0.01920181 -0.180721 0.1428292 0.07937878 0.07779389 0.4774459 0.07937872 0.05235469 0.4970995 0.01920181 0.07779407 0.4774459 0.01920181 0.05235469 0.4970995 -0.05264443 -1.897166 0.3010155 -0.05264449 -1.857399 0.2462819 -0.05264449 -1.793056 0.2671883 -0.05264449 -1.793056 0.3348426 -0.05264449 -1.857399 0.355749 0.1373554 -1.897166 0.3010155 0.1373554 -1.857399 0.2462819 0.1373554 -1.793056 0.2671883 0.1373554 -1.793056 0.3348426 0.1373554 -1.857399 0.355749 -0.05264455 -0.2471657 0.1624924 -0.05264455 -0.2073994 0.1077588 -0.05264461 -0.1430563 0.1286652 -0.05264461 -0.1430563 0.1963195 -0.05264455 -0.2073994 0.2172259 0.1373553 -0.2471656 0.1624924 0.1373553 -0.2073993 0.1077588 0.1373553 -0.1430563 0.1286652 0.1373553 -0.1430563 0.1963196 0.1373553 -0.2073993 0.2172259 -0.05264472 1.402834 0.3010155 -0.05264472 1.4426 0.2462819 -0.05264472 1.506943 0.2671883 -0.05264472 1.506943 0.3348426 -0.05264472 1.4426 0.355749 0.1373552 1.402834 0.3010155 0.1373552 1.4426 0.2462819 0.1373552 1.506943 0.2671883 0.1373551 1.506943 0.3348426 0.1373552 1.4426 0.355749 0.02735525 0.888464 -0.08781701 -0.05264467 0.888464 -0.08781701 0.02735525 0.9282304 -0.1425505 -0.05264467 0.9282304 -0.1425505 0.02735525 0.9925734 -0.1216442 -0.05264467 0.9925734 -0.1216442 0.02735525 0.9925734 -0.05398982 -0.05264472 0.9925734 -0.05398982 0.02735525 0.9282304 -0.03308343 -0.05264467 0.9282304 -0.03308343 -0.1012126 -0.2142106 -0.4489845 -0.1512126 -0.2142106 -0.4489845 -0.1012126 -0.2137379 -0.4537827 -0.1512126 -0.2137379 -0.4537827 -0.1012126 -0.2123385 -0.4583966 -0.1512126 -0.2123385 -0.4583966 -0.1012126 -0.2100655 -0.4626488 -0.1512126 -0.2100655 -0.4626488 -0.1012126 -0.2070069 -0.4663758 -0.1512126 -0.2070069 -0.4663758 -0.1012126 -0.2032799 -0.4694346 -0.1512126 -0.2032799 -0.4694346 -0.1012126 -0.1990276 -0.4717074 -0.1512126 -0.1990276 -0.4717074 -0.1012126 -0.1944137 -0.473107 -0.1512126 -0.1944138 -0.473107 -0.1012126 -0.1896154 -0.4735795 -0.1512126 -0.1896155 -0.4735795 -0.1012126 -0.1848171 -0.473107 -0.1512126 -0.1848172 -0.473107 -0.1012126 -0.1802033 -0.4717074 -0.1512126 -0.1802033 -0.4717074 -0.1012126 -0.1759511 -0.4694346 -0.1512126 -0.1759511 -0.4694346 -0.1012126 -0.1722241 -0.4663758 -0.1512126 -0.1722241 -0.4663758 -0.1012126 -0.1691654 -0.4626488 -0.1512126 -0.1691654 -0.4626488 -0.1012126 -0.1668925 -0.4583966 -0.1512126 -0.1668925 -0.4583966 -0.1012126 -0.165493 -0.4537827 -0.1512126 -0.165493 -0.4537827 -0.1012126 -0.1650204 -0.4489845 -0.1512126 -0.1650204 -0.4489845 -0.1012126 -0.165493 -0.4441862 -0.1512126 -0.165493 -0.4441862 -0.1012126 -0.1668925 -0.4395723 -0.1512126 -0.1668925 -0.4395723 -0.1012126 -0.1691654 -0.4353201 -0.1512126 -0.1691654 -0.4353201 -0.1012126 -0.1722241 -0.431593 -0.1512126 -0.1722241 -0.431593 -0.1012126 -0.1759511 -0.4285343 -0.1512126 -0.1759511 -0.4285343 -0.1012126 -0.1802033 -0.4262615 -0.1512126 -0.1802033 -0.4262615 -0.1012126 -0.1848171 -0.4248619 -0.1512126 -0.1848172 -0.4248619 -0.1012126 -0.1896154 -0.4243893 -0.1512126 -0.1896155 -0.4243893 -0.1012126 -0.1944137 -0.4248619 -0.1512126 -0.1944138 -0.4248619 -0.1012126 -0.1990276 -0.4262615 -0.1512126 -0.1990276 -0.4262615 -0.1012126 -0.2032799 -0.4285343 -0.1512126 -0.2032799 -0.4285343 -0.1012126 -0.2070069 -0.431593 -0.1512126 -0.2070069 -0.431593 -0.1012126 -0.2100655 -0.4353201 -0.1512126 -0.2100655 -0.4353201 -0.1012126 -0.2123385 -0.4395723 -0.1512126 -0.2123385 -0.4395723 -0.1012126 -0.2137379 -0.4441862 -0.1512126 -0.2137379 -0.4441862 -0.1012126 1.402289 -0.4489845 -0.1512126 1.402289 -0.4489845 -0.1012126 1.402762 -0.4537827 -0.1512126 1.402762 -0.4537827 -0.1012126 1.404162 -0.4583966 -0.1512126 1.404162 -0.4583966 -0.1012126 1.406434 -0.4626488 -0.1512126 1.406434 -0.4626488 -0.1012126 1.409493 -0.4663758 -0.1512126 1.409493 -0.4663758 -0.1012126 1.41322 -0.4694346 -0.1512126 1.41322 -0.4694346 -0.1012126 1.417472 -0.4717074 -0.1512126 1.417472 -0.4717074 -0.1012126 1.422086 -0.473107 -0.1512126 1.422086 -0.473107 -0.1012126 1.426884 -0.4735795 -0.1512126 1.426884 -0.4735795 -0.1012126 1.431682 -0.473107 -0.1512126 1.431682 -0.473107 -0.1012126 1.436297 -0.4717074 -0.1512126 1.436297 -0.4717074 -0.1012126 1.440549 -0.4694346 -0.1512126 1.440549 -0.4694346 -0.1012126 1.444276 -0.4663758 -0.1512126 1.444276 -0.4663758 -0.1012126 1.447334 -0.4626488 -0.1512126 1.447334 -0.4626488 -0.1012126 1.449607 -0.4583966 -0.1512126 1.449607 -0.4583966 -0.1012126 1.451007 -0.4537827 -0.1512126 1.451007 -0.4537827 -0.1012126 1.45148 -0.4489845 -0.1512126 1.45148 -0.4489845 -0.1012126 1.451007 -0.4441862 -0.1512126 1.451007 -0.4441862 -0.1012126 1.449607 -0.4395723 -0.1512126 1.449607 -0.4395723 -0.1012126 1.447334 -0.4353201 -0.1512126 1.447334 -0.4353201 -0.1012126 1.444276 -0.431593 -0.1512126 1.444276 -0.431593 -0.1012126 1.440549 -0.4285343 -0.1512126 1.440549 -0.4285343 -0.1012126 1.436297 -0.4262615 -0.1512126 1.436297 -0.4262615 -0.1012126 1.431682 -0.4248619 -0.1512126 1.431682 -0.4248619 -0.1012126 1.426884 -0.4243893 -0.1512126 1.426884 -0.4243893 -0.1012126 1.422086 -0.4248619 -0.1512126 1.422086 -0.4248619 -0.1012126 1.417472 -0.4262615 -0.1512126 1.417472 -0.4262615 -0.1012126 1.41322 -0.4285343 -0.1512126 1.41322 -0.4285343 -0.1012126 1.409493 -0.431593 -0.1512126 1.409493 -0.431593 -0.1012126 1.406434 -0.4353201 -0.1512126 1.406434 -0.4353201 -0.1012126 1.404162 -0.4395723 -0.1512126 1.404162 -0.4395723 -0.1012126 1.402762 -0.4441862 -0.1512126 1.402762 -0.4441862 0.02735549 -1.382796 -0.08781701 -0.05264443 -1.382796 -0.08781701 0.02735549 -1.343029 -0.1425505 -0.05264449 -1.343029 -0.1425505 0.02735549 -1.278686 -0.1216442 -0.05264449 -1.278686 -0.1216442 0.02735543 -1.278686 -0.05398982 -0.05264449 -1.278686 -0.05398982 0.02735549 -1.343029 -0.03308343 -0.05264449 -1.343029 -0.03308343</float_array>
          <technique_common>
            <accessor source="#Cylinder_013-mesh-positions-array" count="354" stride="3">
              <param name="X" type="float"/>
              <param name="Y" type="float"/>
              <param name="Z" type="float"/>
            </accessor>
          </technique_common>
        </source>
        <source id="Cylinder_013-mesh-normals">
          <float_array id="Cylinder_013-mesh-normals-array" count="1284">-0.6857044 -0.7278801 -4.33658e-7 0.685694 -0.7139037 -0.142004 0.6856962 -0.7278879 4.34517e-7 -0.6856938 -0.7139045 -0.142002 0.6857002 -0.672474 -0.2785571 -0.6856622 -0.672508 -0.2785688 0.6856861 -0.6052317 -0.4043877 -0.6856984 -0.6052034 -0.4044091 0.6856973 -0.5147088 -0.5146787 -0.6856926 -0.5146882 -0.5147055 0.6856975 -0.4043866 -0.6052193 -0.6856964 -0.4043965 -0.605214 0.6856936 -0.2785535 -0.6724821 -0.6856802 -0.2785522 -0.6724964 0.6856786 -0.1420086 -0.7139177 -0.6856992 -0.1419958 -0.7139004 0.6856943 4.76863e-6 -0.7278897 -0.6856791 -1.43628e-6 -0.727904 0.6856942 0.1420019 -0.7139041 -0.6856995 0.1420028 -0.7138988 0.6857002 0.278545 -0.672479 -0.685691 0.2785454 -0.6724882 0.6856794 0.4044116 -0.6052232 -0.685705 0.4043655 -0.605225 0.6856958 0.5147072 -0.5146823 -0.6856962 0.5147014 -0.5146876 0.6856831 0.6052222 -0.4044067 -0.6856947 0.6052271 -0.4043799 0.6856959 0.6724765 -0.2785617 -0.6856708 0.6725009 -0.2785646 0.6856749 0.7139214 -0.1420087 -0.6856939 0.7139046 -0.1420011 0.6856962 0.7278879 -4.3365e-7 -0.685693 0.7278909 4.4059e-7 0.6856942 0.7139038 0.1420034 -0.6856963 0.7139016 0.1420041 0.6856957 0.6724789 0.2785562 -0.6856721 0.6724992 0.2785654 0.6856865 0.6052315 0.4043869 -0.6856982 0.6052129 0.4043951 0.6856921 0.5147195 0.5146749 -0.6856966 0.404379 0.6052255 0.6857002 0.4043999 0.6052075 0.6856943 0.2785478 0.6724838 -0.6856749 0.2785598 0.6724987 0.6856727 0.1420083 0.7139235 -0.6856899 -7.52353e-6 0.7278938 0.6857011 0 0.7278833 0.6856929 -0.1420094 0.7139038 -0.6856772 -0.2785542 0.6724987 0.6856961 -0.2785528 0.6724799 0.6856834 -0.4043961 0.605229 -0.6856969 -0.4043955 0.605214 0.6856948 -0.5146867 0.5147043 -0.6856935 -0.5147112 0.5146815 0.6856849 -0.6052142 0.4044157 -0.6856974 -0.6052229 0.4043815 0.6856997 -0.6724739 0.2785586 -0.6856738 -0.6724982 0.2785637 0.6856754 -0.7139209 0.1420081 -0.685697 -0.713901 0.1420035 0 0 1 0 -1 1.88873e-6 1 0 0 -1 0 0 0 0 -1 0 1 -5.80721e-7 -1 0 0 -3.47156e-6 -0.8006696 0.5991062 2.9207e-6 0.5991058 0.8006699 0 0.8006696 -0.5991063 0 -0.5991058 -0.8006699 1 0 -1.36804e-7 0 -1 0 1 0 0 -1 0 0 0 1 -1.79898e-7 -1 0 0 0 -0.800669 0.5991071 0 0.5991057 0.80067 0 0.8006663 -0.5991107 0 -0.599106 -0.8006698 1 -1.63067e-7 0 1 2.24217e-7 0 0 -0.8006702 -0.5991055 0 0.599106 -0.8006698 0 0.8006718 0.5991035 0 -0.5991057 0.80067 -1 0 0 1 2.10224e-7 0 0 -0.8006747 -0.5990994 0 0.5991057 -0.80067 0 0.8006666 0.5991101 0 -0.5991057 0.80067 -1 -3.36358e-7 0 -1 3.08314e-7 3.9494e-7 -5.8561e-7 0.7913451 0.6113698 -6.73473e-7 0.6113709 -0.7913443 2.51041e-7 -0.791345 -0.6113699 0 -0.6113682 0.7913463 1 2.74058e-7 0 0.9911301 0.1063094 -0.07974636 -0.9810534 -0.1551734 0.1159975 -6.57688e-4 0.6431503 -0.7657398 5.12484e-4 -0.8030256 0.5959443 7.13762e-4 0.5618306 0.827252 -6.66574e-4 -0.6301273 -0.7764916 1 3.13274e-7 0 -1 -3.75928e-7 0 2.29334e-7 0 1 2.78046e-7 -1 0 -2.78046e-7 1 0 2.50336e-7 0 -1 -0.9911302 0.1063084 0.07974767 0.9810531 -0.1551718 -0.1160027 6.58419e-4 0.6431481 0.7657416 -5.12486e-4 -0.8030316 -0.5959364 -7.13764e-4 0.5618304 -0.8272522 6.67536e-4 -0.6301272 0.7764917 0.9977331 0.05362653 -0.04065626 -0.9951143 -0.07887119 0.05938851 -6.57931e-4 0.643149 -0.7657408 5.12039e-4 -0.8030174 0.5959555 8.31531e-4 0.2665471 0.9638217 -8.19737e-4 -0.2984588 -0.9544222 0 -1 -4.25653e-6 -2.42171e-7 0 1 -1 -3.28463e-7 0 1 3.26071e-7 0 0 1 -8.82827e-7 -0.9976552 0.05454617 0.04133838 0.9949467 -0.08021628 -0.06038719 6.58176e-4 0.6431486 0.7657412 -5.09811e-4 -0.8030219 -0.5959493 -8.24516e-4 0.2716226 -0.9624035 8.18879e-4 -0.3042381 0.9525958 1 -1.45593e-7 1.69583e-7 -7.90614e-7 0.7913451 -0.6113699 0 0.6113716 0.7913437 8.36651e-7 -0.7913451 0.6113697 -1.92571e-6 -0.6113677 -0.7913468 -1 -5.48115e-7 1.69583e-7 0 0.3090181 -0.9510561 0 1 -1.03929e-6 0 0.3090176 0.9510564 -1 -2.64451e-7 0 0 -0.8090183 0.5877837 1 0 0 2.89808e-7 -0.809017 -0.5877853 0 0.3090178 -0.9510563 -3.13709e-7 1 0 -1.44904e-7 0.3090177 0.9510564 -1 -2.13945e-7 0 2.17356e-7 -0.8090167 0.5877858 1 0 1.36125e-7 2.17356e-7 -0.8090165 -0.587786 0 0.3090174 -0.9510565 0 1 -2.89004e-6 0 0.3090162 0.9510568 -1 -3.20919e-7 0 0 -0.809016 0.5877867 1 1.39065e-6 2.20255e-7 2.89807e-7 -0.809015 -0.5877881 0 -0.8090174 -0.5877848 0 0.3090176 -0.9510563 0 1 0 -1 -3.30563e-7 0 -2.5811e-7 0.3090171 0.9510565 0 -0.8090164 0.5877863 1 3.20918e-7 0 -0.6856932 -0.7278907 -4.37121e-7 0.6856974 -0.7139011 -0.1420017 0.6856957 -0.7278885 4.37987e-7 -0.685712 -0.7138863 -0.1420052 0.6856954 -0.6724833 -0.2785464 -0.6856682 -0.6725048 -0.2785617 0.6856831 -0.6052266 -0.4044001 -0.6856959 -0.5147015 -0.5146879 0.6856986 -0.5146989 -0.5146867 -0.6856951 -0.4043935 -0.6052176 0.6856999 -0.4043865 -0.6052168 0.685692 -0.2785475 -0.6724863 -0.6856988 -0.1420036 -0.7138993 0.6856745 -0.1420068 -0.713922 -0.685689 0 -0.7278946 0.6857023 2.91412e-7 -0.7278821 0.6856939 0.1420034 -0.7139042 -0.6856793 0.278555 -0.6724961 0.6856982 0.2785483 -0.6724798 0.6856794 0.4044018 -0.6052297 -0.6856961 0.514698 -0.5146911 0.6857015 0.5146917 -0.5146902 -0.6856942 0.6052185 -0.4043935 0.6856821 0.6052265 -0.404402 -0.685669 0.672505 -0.2785589 0.6856947 0.6724839 -0.2785467 -0.6857107 0.7138882 -0.1420023 0.6856788 0.7139186 -0.1420024 0.6856952 0.7278889 -4.3712e-7 -0.6856873 0.7278962 4.40586e-7 0.6856966 0.7139025 0.1419979 -0.6856977 0.7139009 0.142001 0.6856901 0.6724891 0.2785457 -0.6856706 0.6725034 0.278559 0.6856861 0.6052238 0.4043993 -0.6856971 0.6052147 0.4043941 0.6856976 0.5146985 0.5146887 -0.6856952 0.5146984 0.5146919 0.6856952 0.4043922 0.6052182 -0.6856978 0.4043898 0.6052169 0.6856943 0.2785487 0.6724835 -0.685676 0.2785562 0.6724989 0.6856726 0.1420094 0.7139233 -0.6856957 -2.3764e-7 0.7278884 0.6857039 2.56721e-7 0.7278807 0.6856955 -0.142006 0.713902 -0.6856783 -0.2785535 0.6724978 0.6856973 -0.278548 0.6724807 0.6856818 -0.4043982 0.6052295 -0.6857003 -0.4043812 0.6052199 0.685694 -0.5147014 0.5146905 -0.6856966 -0.6052149 0.4043951 0.6856846 -0.6052258 0.404399 0.6856949 -0.6724814 0.2785524 -0.6856737 -0.6725021 0.2785548 0.6856767 -0.7139197 0.1420078 -0.6856973 -0.7139014 0.1420006 -0.6856979 -0.7278863 -2.14706e-5 0.6856869 -0.7139102 -0.1420062 0.685707 -0.7278777 2.14605e-5 -0.6856973 -0.7138957 -0.1420291 0.6857029 -0.6724646 -0.278573 -0.6856614 -0.6725147 -0.2785541 0.6856723 -0.605234 -0.4044074 -0.6856917 -0.6052356 -0.4043723 0.6857012 -0.5147002 -0.5146821 -0.6856933 -0.5146867 -0.5147061 0.6856952 -0.4044021 -0.6052116 -0.6856958 -0.4043997 -0.6052126 0.6856947 -0.2785481 -0.6724833 -0.68568 -0.2785565 -0.6724948 0.685695 -0.1420001 -0.7139037 -0.6857009 -0.1419977 -0.7138984 0.6856964 3.68834e-6 -0.7278877 -0.6856789 4.96106e-7 -0.7279042 0.6856806 0.1420003 -0.7139173 -0.6857016 0.1419964 -0.7138981 0.6856969 0.2785496 -0.6724804 -0.6856878 0.2785444 -0.6724919 0.6856785 0.4044073 -0.6052271 -0.685699 0.404401 -0.605208 0.6857021 0.5146914 -0.5146898 -0.6856918 0.5147127 -0.5146821 0.6856983 0.6052041 -0.4044081 -0.6856907 0.6052444 -0.4043605 0.6856995 0.6724606 -0.2785912 -0.6856913 0.6724894 -0.2785417 0.6856592 0.7139319 -0.1420304 -0.6857003 0.7138933 -0.1420264 0.6857012 0.7278832 2.05721e-5 -0.6856919 0.7278919 -2.05723e-5 0.6856892 0.7139044 0.1420244 -0.685694 0.7138999 0.1420236 0.6856978 0.6724843 0.2785378 -0.6856624 0.672492 0.2786065 0.6856767 0.6052506 0.4043752 -0.685697 0.6052132 0.4043967 0.6856933 0.5147002 0.5146927 -0.6856932 0.5147072 0.5146858 0.6856926 0.4043999 0.6052161 -0.685675 0.2785509 0.6725023 0.6857026 0.278546 0.6724761 0.6856942 0.1419977 0.7139048 -0.685702 0.1420018 0.7138966 0.685698 5.68947e-7 0.7278862 -0.6856773 2.17871e-6 0.7279057 0.6856813 -0.1419992 0.713917 -0.6857017 -0.1420007 0.7138971 0.6856899 -0.2785544 0.6724855 -0.6856942 -0.4043998 0.6052144 0.6856848 -0.4044037 0.6052224 0.685698 -0.5146967 0.5146899 -0.6857005 -0.5146912 0.5146921 0.685692 -0.6052185 0.4043971 -0.6856878 -0.6724904 0.2785478 0.6857047 -0.6724627 0.2785733 0.6856549 -0.7139356 0.1420329 -0.6856899 -0.7139076 0.142005 0 -0.8090194 -0.5877821 0 0.3090167 -0.9510567 -1 -3.30563e-7 0 -1.72074e-7 0.3090179 0.9510563 0 -0.8090189 0.5877826 1 3.20917e-7 0 -0.6856958 0.5146883 0.5147011 -0.6856968 0.1420063 0.7139006 -0.6857017 -0.1420024 0.7138968 0 -1 2.49187e-7 1 3.0784e-7 0 -1 0 0 0 1 9.44366e-7 -1 2.55772e-7 2.31264e-7 0 -0.8006689 0.5991072 0 0.5991062 0.8006697 0 0.8006719 -0.5991031 0 -0.5991059 -0.8006699 1 0 0 0 -1 -2.94357e-7 1 4.6176e-7 0 -1 0 0 0 1 -1.88873e-6 -1 0 0 -1.75634e-6 -0.8006688 0.5991072 0 0.5991059 0.8006698 0 0.8006696 -0.5991063 -1.41058e-6 -0.599106 -0.8006697 1 0 0 1 1.90246e-7 0 -3.51268e-7 -0.8006674 -0.5991092 0 0.5991061 -0.8006698 0 0.8006736 0.5991008 4.15462e-7 -0.5991059 0.8006699 -1 -2.92163e-7 0 1 3.64388e-7 -2.52174e-7 0 -0.8006667 -0.5991102 0 0.5991059 -0.8006698 0 0.8006729 0.5991018 0 -0.5991059 0.8006698 -1 -2.94313e-7 1.34647e-7 -1 -1.37028e-7 0 5.92404e-7 0.7913451 0.6113698 -4.81429e-7 0.6113709 -0.7913442 5.8561e-7 -0.791345 -0.6113699 8.73488e-7 -0.6113694 0.7913454 1 -1.71285e-7 -3.94939e-7 0.9909437 0.08594107 -0.1031737 -0.980673 -0.1254194 0.1501677 -6.57687e-4 0.6431499 -0.7657402 5.15153e-4 -0.8030309 0.5959374 7.10381e-4 0.56183 0.8272525 -6.65777e-4 -0.6301271 -0.7764918 1 3.13274e-7 0 -1 -2.50619e-7 0 2.78046e-7 -1 0 -2.78046e-7 1 0 0 0 -1 -0.9909438 0.08594059 0.1031733 0.9806731 -0.1254187 -0.150168 6.58177e-4 0.64315 0.76574 -5.0981e-4 -0.8030217 -0.5959495 -7.11316e-4 0.5618299 -0.8272525 6.65777e-4 -0.6301261 0.7764926 0.9971719 0.04791247 -0.05790191 -0.993915 -0.07042181 0.08469891 -6.58664e-4 0.6431483 -0.7657414 5.17814e-4 -0.8030192 0.5959529 8.27683e-4 0.2665469 0.9638216 -8.18761e-4 -0.2984585 -0.9544222 0 -1 2.8145e-6 0 0 1 -1 -3.22085e-7 0 1 3.25274e-7 0 0 1 2.12826e-6 -0.9970855 0.04864448 0.05877411 0.9937294 -0.07149082 -0.0859723 6.57931e-4 0.6431486 0.7657411 -5.1074e-4 -0.8030217 -0.5959495 -8.27155e-4 0.2716228 -0.9624035 8.16599e-4 -0.3042379 0.9525958 1 0 0 0 0.7913451 -0.6113698 -1.72799e-7 0.6113703 0.7913447 -2.34244e-6 -0.7913449 0.6113702 0 -0.6113707 -0.7913445 -1 6.50887e-7 -2.97336e-7 0 0.3090184 -0.9510561 0 0.3090161 0.9510568 -1 -3.20918e-7 0 -1 -3.20918e-7 0 0 -0.8090181 0.5877839 1 4.27891e-7 0 1 7.93352e-7 0 0 -0.8090186 -0.5877832 0 0.3090178 -0.9510563 -3.13709e-7 1 0 0 0.3090177 0.9510564 -1 -3.20918e-7 0 -1 -2.64451e-7 0 2.03222e-7 -0.8090168 0.5877856 1 8.55779e-7 1.36125e-7 1 4.27891e-7 0 3.477e-7 -0.809017 -0.5877854 0 0.3090198 -0.9510557 0 0.3090183 0.9510561 -1 -3.20918e-7 0 -1 -2.64451e-7 0 0 -0.8090167 0.5877858 1 2.13945e-7 0 1 -2.64451e-7 0 0 -0.8090162 -0.5877863 0 -0.8090162 -0.5877864 0 0.3090174 -0.9510564 0 1 2.73273e-6 -1 -3.20918e-7 0 -1 -3.20918e-7 0 0 0.3090191 0.951056 0 -0.809018 0.587784 1 2.40688e-7 0 1 3.30563e-7 0 -0.685698 -0.6052139 -0.404394 -0.685675 -0.2785558 -0.6725001 -0.6857068 0.1420003 -0.7138923 -0.6856996 0.4043896 -0.605215 -0.6856963 0.142006 0.7139012 -0.6857072 -0.1420057 0.7138908 -0.6856974 -0.5146985 0.5146888 -0.6857017 0.4043984 0.6052067 -0.685692 -0.2785524 0.6724843 -0.6857106 -0.6052206 0.4043626 0 -0.809015 -0.5877882 0 0.3090167 -0.9510567 0 1 9.92953e-7 -1 -2.13945e-7 0 -1 -3.74403e-7 0 0 0.3090161 0.9510569 0 -0.8090158 0.587787 1 2.94174e-7 0 1 2.64451e-7 0</float_array>
          <technique_common>
            <accessor source="#Cylinder_013-mesh-normals-array" count="428" stride="3">
              <param name="X" type="float"/>
              <param name="Y" type="float"/>
              <param name="Z" type="float"/>
            </accessor>
          </technique_common>
        </source>
        <source id="Cylinder_013-mesh-map-0">
          <float_array id="Cylinder_013-mesh-map-0-array" count="3720">1 1 0.96875 0.5 1 0.5 0.96875 1 0.9375 0.5 0.96875 0.5 0.9375 1 0.90625 0.5 0.9375 0.5 0.90625 1 0.875 0.5 0.90625 0.5 0.875 1 0.84375 0.5 0.875 0.5 0.84375 1 0.8125 0.5 0.84375 0.5 0.8125 1 0.78125 0.5 0.8125 0.5 0.78125 1 0.75 0.5 0.78125 0.5 0.75 1 0.71875 0.5 0.75 0.5 0.71875 1 0.6875 0.5 0.71875 0.5 0.6875 1 0.65625 0.5 0.6875 0.5 0.65625 1 0.625 0.5 0.65625 0.5 0.625 1 0.59375 0.5 0.625 0.5 0.59375 1 0.5625 0.5 0.59375 0.5 0.5625 1 0.53125 0.5 0.5625 0.5 0.53125 1 0.5 0.5 0.53125 0.5 0.5 1 0.46875 0.5 0.5 0.5 0.46875 1 0.4375 0.5 0.46875 0.5 0.4375 1 0.40625 0.5 0.4375 0.5 0.40625 1 0.375 0.5 0.40625 0.5 0.375 0.5 0.34375 1 0.34375 0.5 0.34375 1 0.3125 0.5 0.34375 0.5 0.3125 1 0.28125 0.5 0.3125 0.5 0.28125 0.5 0.25 1 0.25 0.5 0.25 1 0.21875 0.5 0.25 0.5 0.21875 0.5 0.1875 1 0.1875 0.5 0.1875 1 0.15625 0.5 0.1875 0.5 0.15625 1 0.125 0.5 0.15625 0.5 0.125 1 0.09375 0.5 0.125 0.5 0.09375 1 0.0625 0.5 0.09375 0.5 0.02826887 0.341844 0.1581559 0.02826887 0.4717311 0.1581559 0.0625 1 0.03125 0.5 0.0625 0.5 0.03125 1 0 0.5 0.03125 0.5 0.6166632 0.05044728 0.5146116 0.2031783 0.7031784 0.4853885 1 1 0 1 0 1 1 0 1 1 1 1 1 1 0 0 0 1 0 0 1 1 0 1 0 0 1 0 0 0 0 1 0 0 0 1 1 0 0 1 0 0 1 1 0 1 0 1 0 0 0 1 0 1 1 0 0 0 0 0 1 1 1 0 1 0 1 1 0 0 0 1 1 1 0 1 0 1 1 0 1 1 1 1 1 1 0 0 0 1 0 0 1 1 0 1 0 0 1 0 0 0 0 1 0 0 0 1 0 0 1 1 0 1 1 1 0 1 0 1 0 0 0 1 0 1 1 0 0 0 0 0 1 0 1 1 1 0 0 1 1 0 0 0 0 0 1 1 0 1 1 1 0 1 0 1 0 0 0 1 0 1 1 0 0 0 0 0 1 1 1 0 1 0 1 1 0 0 0 1 0 0 1 1 0 1 0 1 1 1 0 1 0 0 0 1 0 1 1 0 0 0 0 0 1 1 1 0 1 0 1 1 0 0 0 1 0 1 1 0 1 1 1 0 0 0 1 0 1 1 1 0 1 0 0 1 1 1 1 1 0 1 0 0 0 1 1 0 0 1 1 1 0 1 1 0 0 0 1 0 0 1 0 0 1 1 0 1 1 1 1 0 0 0 0 0 1 1 1 0 1 0 0 1 0 0 0 1 0 1 1 0 0 0 1 0 0 1 0 0 0 0 0 1 0 1 1 1 0 1 1 1 1 0 0 0 0 0 1 0 1 1 1 0 0 1 1 0 0 0 1 0 0 1 0 0 1 1 0 1 1 1 0 0 1 0 0 0 1 1 1 0 1 0 0 1 0 0 0 1 0 1 1 0 0 0 1 0 0 1 0 0 1 1 0 1 1 1 1 0 0 0 0 0 1 1 1 0 1 0 0 1 0 0 0 1 0 1 1 1 1 1 0 0 0 1 0 0 1 0 0 1 0 0 0 1 1 0 0 0 1 0 0 0 1 0 1 1 1 0 1 1 0 1 1 0 0 0 1 0 0 1 0 0 0 1 1 1 1 1 0 0 1 0 0 0 1 1 1 0 1 0 0 1 0 0 0 1 0 1 1 0 1 1 0 0 1 0 1 0 1 0 1 1 1 0 0 1 1 1 1 1 0 1 0 0 0 1 1 0 0 1 1 1 0.6 0.5 0.8 1 0.6 1 0.4 0.5 0.6 1 0.4 1 0.2 1 0.4 0.5 0.4 1 0.25 0.49 0.1089315 0.0558359 0.3910685 0.0558359 0 1 0.2 0.5 0.2 1 0.9782536 0.3241641 0.8910685 0.0558359 0.6089316 0.0558359 0.8 0.5 1 1 0.8 1 0.6 0.5 0.8 1 0.6 1 0.4 1 0.6 0.5 0.6 1 0.2 0.5 0.4 1 0.2 1 0.02174639 0.3241641 0.1089315 0.0558359 0.3910685 0.0558359 0 0.5 0.2 1 0 1 0.9782536 0.3241641 0.6089316 0.0558359 0.5217465 0.3241641 0.8 0.5 1 1 0.8 1 0.6 0.5 0.8 1 0.6 1 0.4 0.5 0.6 1 0.4 1 0.2 1 0.4 0.5 0.4 1 0.02174639 0.3241641 0.1089315 0.0558359 0.3910685 0.0558359 0 1 0.2 0.5 0.2 1 0.8910685 0.0558359 0.6089316 0.0558359 0.5217465 0.3241641 0.8 0.5 1 1 0.8 1 1 1 0.8 0.5 1 0.5 0.8 1 0.6 0.5 0.8 0.5 0.6 0.5 0.4 1 0.4 0.5 0.25 0.49 0.1089315 0.0558359 0.3910685 0.0558359 0.4 0.5 0.2 1 0.2 0.5 0.2 0.5 0 1 0 0.5 0.9782536 0.3241641 0.8910685 0.0558359 0.6089316 0.0558359 1 1 0.96875 0.5 1 0.5 0.96875 1 0.9375 0.5 0.96875 0.5 0.9375 1 0.90625 0.5 0.9375 0.5 0.90625 0.5 0.875 1 0.875 0.5 0.875 0.5 0.84375 1 0.84375 0.5 0.84375 1 0.8125 0.5 0.84375 0.5 0.8125 0.5 0.78125 1 0.78125 0.5 0.78125 0.5 0.75 1 0.75 0.5 0.75 1 0.71875 0.5 0.75 0.5 0.71875 0.5 0.6875 1 0.6875 0.5 0.6875 1 0.65625 0.5 0.6875 0.5 0.65625 0.5 0.625 1 0.625 0.5 0.625 0.5 0.59375 1 0.59375 0.5 0.59375 0.5 0.5625 1 0.5625 0.5 0.5625 0.5 0.53125 1 0.53125 0.5 0.53125 1 0.5 0.5 0.53125 0.5 0.5 1 0.46875 0.5 0.5 0.5 0.46875 1 0.4375 0.5 0.46875 0.5 0.4375 1 0.40625 0.5 0.4375 0.5 0.40625 1 0.375 0.5 0.40625 0.5 0.375 1 0.34375 0.5 0.375 0.5 0.34375 1 0.3125 0.5 0.34375 0.5 0.3125 1 0.28125 0.5 0.3125 0.5 0.28125 0.5 0.25 1 0.25 0.5 0.25 1 0.21875 0.5 0.25 0.5 0.21875 0.5 0.1875 1 0.1875 0.5 0.1875 1 0.15625 0.5 0.1875 0.5 0.15625 1 0.125 0.5 0.15625 0.5 0.125 0.5 0.09375 1 0.09375 0.5 0.09375 1 0.0625 0.5 0.09375 0.5 0.02826887 0.341844 0.1581559 0.02826887 0.4717311 0.1581559 0.0625 1 0.03125 0.5 0.0625 0.5 0.03125 1 0 0.5 0.03125 0.5 0.6166632 0.05044728 0.5146116 0.2031783 0.7031784 0.4853885 1 1 0.96875 0.5 1 0.5 0.96875 1 0.9375 0.5 0.96875 0.5 0.9375 1 0.90625 0.5 0.9375 0.5 0.90625 1 0.875 0.5 0.90625 0.5 0.875 1 0.84375 0.5 0.875 0.5 0.84375 1 0.8125 0.5 0.84375 0.5 0.8125 1 0.78125 0.5 0.8125 0.5 0.78125 1 0.75 0.5 0.78125 0.5 0.75 1 0.71875 0.5 0.75 0.5 0.71875 1 0.6875 0.5 0.71875 0.5 0.6875 1 0.65625 0.5 0.6875 0.5 0.65625 1 0.625 0.5 0.65625 0.5 0.625 1 0.59375 0.5 0.625 0.5 0.59375 1 0.5625 0.5 0.59375 0.5 0.5625 1 0.53125 0.5 0.5625 0.5 0.53125 1 0.5 0.5 0.53125 0.5 0.5 1 0.46875 0.5 0.5 0.5 0.46875 1 0.4375 0.5 0.46875 0.5 0.4375 1 0.40625 0.5 0.4375 0.5 0.40625 1 0.375 0.5 0.40625 0.5 0.375 1 0.34375 0.5 0.375 0.5 0.34375 0.5 0.3125 1 0.3125 0.5 0.3125 1 0.28125 0.5 0.3125 0.5 0.28125 1 0.25 0.5 0.28125 0.5 0.25 1 0.21875 0.5 0.25 0.5 0.21875 1 0.1875 0.5 0.21875 0.5 0.1875 0.5 0.15625 1 0.15625 0.5 0.15625 1 0.125 0.5 0.15625 0.5 0.125 1 0.09375 0.5 0.125 0.5 0.09375 0.5 0.0625 1 0.0625 0.5 0.341844 0.02826887 0.4717311 0.1581559 0.341844 0.4717311 0.0625 1 0.03125 0.5 0.0625 0.5 0.03125 1 0 0.5 0.03125 0.5 0.9853885 0.2968217 0.7968217 0.01461154 0.5146116 0.2031783 1 1 0.8 0.5 1 0.5 0.8 1 0.6 0.5 0.8 0.5 0.6 0.5 0.4 1 0.4 0.5 0.25 0.49 0.1089315 0.0558359 0.3910685 0.0558359 0.4 0.5 0.2 1 0.2 0.5 0.2 0.5 0 1 0 0.5 0.9782536 0.3241641 0.8910685 0.0558359 0.6089316 0.0558359 1 1 0.96875 1 0.96875 0.5 0.96875 1 0.9375 1 0.9375 0.5 0.9375 1 0.90625 1 0.90625 0.5 0.90625 1 0.875 1 0.875 0.5 0.875 1 0.84375 1 0.84375 0.5 0.84375 1 0.8125 1 0.8125 0.5 0.8125 1 0.78125 1 0.78125 0.5 0.78125 1 0.75 1 0.75 0.5 0.75 1 0.71875 1 0.71875 0.5 0.71875 1 0.6875 1 0.6875 0.5 0.6875 1 0.65625 1 0.65625 0.5 0.65625 1 0.625 1 0.625 0.5 0.625 1 0.59375 1 0.59375 0.5 0.59375 1 0.5625 1 0.5625 0.5 0.5625 1 0.53125 1 0.53125 0.5 0.53125 1 0.5 1 0.5 0.5 0.5 1 0.46875 1 0.46875 0.5 0.46875 1 0.4375 1 0.4375 0.5 0.4375 1 0.40625 1 0.40625 0.5 0.40625 1 0.375 1 0.375 0.5 0.375 0.5 0.375 1 0.34375 1 0.34375 1 0.3125 1 0.3125 0.5 0.3125 1 0.28125 1 0.28125 0.5 0.28125 0.5 0.28125 1 0.25 1 0.25 1 0.21875 1 0.21875 0.5 0.21875 0.5 0.21875 1 0.1875 1 0.1875 1 0.15625 1 0.15625 0.5 0.15625 1 0.125 1 0.125 0.5 0.125 1 0.09375 1 0.09375 0.5 0.09375 1 0.0625 1 0.0625 0.5 0.341844 0.4717311 0.2968217 0.4853885 0.25 0.49 0.25 0.49 0.2031783 0.4853885 0.341844 0.4717311 0.2031783 0.4853885 0.1581559 0.4717311 0.341844 0.4717311 0.1581559 0.4717311 0.1166631 0.4495527 0.02826887 0.341844 0.1166631 0.4495527 0.08029437 0.4197056 0.02826887 0.341844 0.08029437 0.4197056 0.05044728 0.3833369 0.02826887 0.341844 0.02826887 0.341844 0.01461154 0.2968217 0.00999999 0.25 0.00999999 0.25 0.01461154 0.2031783 0.02826887 0.341844 0.01461154 0.2031783 0.02826887 0.1581559 0.02826887 0.341844 0.02826887 0.1581559 0.05044728 0.1166631 0.08029437 0.08029437 0.08029437 0.08029437 0.1166631 0.05044728 0.02826887 0.1581559 0.1166631 0.05044728 0.1581559 0.02826887 0.02826887 0.1581559 0.1581559 0.02826887 0.2031783 0.01461154 0.341844 0.02826887 0.2031783 0.01461154 0.25 0.00999999 0.341844 0.02826887 0.25 0.00999999 0.2968217 0.01461154 0.341844 0.02826887 0.341844 0.02826887 0.3833369 0.05044728 0.4717311 0.1581559 0.3833369 0.05044728 0.4197056 0.08029437 0.4717311 0.1581559 0.4197056 0.08029437 0.4495527 0.1166631 0.4717311 0.1581559 0.4717311 0.1581559 0.4853885 0.2031783 0.49 0.25 0.49 0.25 0.4853885 0.2968217 0.4717311 0.341844 0.4717311 0.341844 0.4495527 0.3833369 0.4197056 0.4197056 0.4197056 0.4197056 0.3833369 0.4495527 0.4717311 0.341844 0.3833369 0.4495527 0.341844 0.4717311 0.4717311 0.341844 0.4717311 0.1581559 0.49 0.25 0.341844 0.4717311 0.49 0.25 0.4717311 0.341844 0.341844 0.4717311 0.341844 0.4717311 0.1581559 0.4717311 0.02826887 0.341844 0.02826887 0.341844 0.02826887 0.1581559 0.1581559 0.02826887 0.1581559 0.02826887 0.341844 0.02826887 0.4717311 0.1581559 0.341844 0.4717311 0.02826887 0.341844 0.4717311 0.1581559 0.0625 1 0.03125 1 0.03125 0.5 0.03125 1 0 1 0 0.5 0.7031784 0.4853885 0.75 0.49 0.7968217 0.4853885 0.7968217 0.4853885 0.841844 0.4717311 0.8833369 0.4495527 0.8833369 0.4495527 0.9197056 0.4197056 0.9495527 0.3833369 0.9495527 0.3833369 0.9717311 0.341844 0.8833369 0.4495527 0.9717311 0.341844 0.9853885 0.2968217 0.8833369 0.4495527 0.9853885 0.2968217 0.99 0.25 0.9495527 0.1166631 0.99 0.25 0.9853885 0.2031783 0.9495527 0.1166631 0.9853885 0.2031783 0.9717311 0.1581559 0.9495527 0.1166631 0.9495527 0.1166631 0.9197056 0.08029437 0.8833369 0.05044728 0.8833369 0.05044728 0.841844 0.02826887 0.7968217 0.01461154 0.7968217 0.01461154 0.75 0.00999999 0.7031784 0.01461154 0.7031784 0.01461154 0.658156 0.02826887 0.6166632 0.05044728 0.6166632 0.05044728 0.5802944 0.08029437 0.5504473 0.1166631 0.5504473 0.1166631 0.5282689 0.1581559 0.6166632 0.05044728 0.5282689 0.1581559 0.5146116 0.2031783 0.6166632 0.05044728 0.5146116 0.2031783 0.51 0.25 0.5146116 0.2968217 0.5146116 0.2968217 0.5282689 0.341844 0.5146116 0.2031783 0.5282689 0.341844 0.5504473 0.3833369 0.5146116 0.2031783 0.5504473 0.3833369 0.5802944 0.4197056 0.6166632 0.4495527 0.6166632 0.4495527 0.658156 0.4717311 0.7031784 0.4853885 0.7031784 0.4853885 0.7968217 0.4853885 0.8833369 0.4495527 0.9495527 0.1166631 0.8833369 0.05044728 0.9853885 0.2968217 0.8833369 0.05044728 0.7968217 0.01461154 0.9853885 0.2968217 0.7968217 0.01461154 0.7031784 0.01461154 0.6166632 0.05044728 0.5504473 0.3833369 0.6166632 0.4495527 0.5146116 0.2031783 0.6166632 0.4495527 0.7031784 0.4853885 0.5146116 0.2031783 0.7031784 0.4853885 0.8833369 0.4495527 0.7968217 0.01461154 0.8833369 0.4495527 0.9853885 0.2968217 0.7968217 0.01461154 0.7968217 0.01461154 0.6166632 0.05044728 0.7031784 0.4853885 1 1 1 1 0 1 1 0 1 0 1 1 1 1 1 0 0 0 0 0 1 0 1 1 0 0 1 0 1 0 0 1 0 0 0 0 1 0 1 1 0 1 1 1 1 1 0 1 0 0 0 0 0 1 1 0 1 0 0 0 1 1 1 1 1 0 1 1 1 0 0 0 1 1 1 1 0 1 1 0 1 0 1 1 1 1 1 0 0 0 0 0 1 0 1 1 0 0 1 0 1 0 0 1 0 0 0 0 0 0 1 0 1 1 1 1 1 1 0 1 0 0 0 0 0 1 1 0 1 0 0 0 1 0 1 1 1 1 0 1 1 1 1 0 0 0 1 0 1 1 1 1 1 1 0 1 0 0 0 0 0 1 1 0 1 0 0 0 1 1 1 1 1 0 1 1 1 0 0 0 0 0 1 0 1 1 0 1 1 1 1 1 0 0 0 0 0 1 1 0 1 0 0 0 1 1 1 1 1 0 1 1 1 0 0 0 0 1 0 0 1 0 1 0 0 0 0 0 1 1 1 1 1 0 0 1 0 1 1 1 0 1 0 0 0 0 1 0 0 0 0 1 0 1 1 1 1 0 1 0 1 1 0 1 1 1 0 1 0 1 1 0 1 0 0 0 1 1 1 1 1 0 0 1 0 0 0 0 0 1 1 1 1 0 1 0 1 1 0 1 0 0 0 0 0 1 1 1 0 1 0 1 1 0 1 0 0 0 1 0 1 1 1 1 0 1 1 1 1 0 1 0 1 1 0 1 1 1 0 1 0 1 0 0 1 0 1 0 1 1 1 1 1 0 0 1 0 0 0 0 0 1 1 1 1 0 1 0 1 1 0 1 1 1 0 1 0 1 1 0 1 0 0 0 1 1 1 1 1 0 0 1 0 0 0 0 0 1 0 1 1 1 0 0 0 1 0 1 1 0 1 1 0 1 0 1 1 1 1 0 1 0 0 0 0 0 1 1 1 0 1 0 0 1 1 1 1 0 1 0 1 1 0 1 0 1 0 1 1 1 0 0 1 0 1 0 1 1 1 1 1 0 0 1 0 0 0 0 0 1 0 0 1 0 0 0 0 0 1 0 1 0 1 1 1 1 0 1 0 1 1 1 0 1 0 0 0 0 1 0 0 0 0 1 0.6 0.5 0.8 0.5 0.8 1 0.4 0.5 0.6 0.5 0.6 1 0.2 1 0.2 0.5 0.4 0.5 0.3910685 0.0558359 0.4782536 0.3241641 0.25 0.49 0.25 0.49 0.02174639 0.3241641 0.1089315 0.0558359 0 1 0 0.5 0.2 0.5 0.5217465 0.3241641 0.75 0.49 0.6089316 0.0558359 0.75 0.49 0.9782536 0.3241641 0.6089316 0.0558359 0.8 0.5 1 0.5 1 1 0.6 0.5 0.8 0.5 0.8 1 0.4 1 0.4 0.5 0.6 0.5 0.2 0.5 0.4 0.5 0.4 1 0.3910685 0.0558359 0.4782536 0.3241641 0.25 0.49 0.25 0.49 0.02174639 0.3241641 0.3910685 0.0558359 0 0.5 0.2 0.5 0.2 1 0.5217465 0.3241641 0.75 0.49 0.9782536 0.3241641 0.9782536 0.3241641 0.8910685 0.0558359 0.6089316 0.0558359 0.8 0.5 1 0.5 1 1 0.6 0.5 0.8 0.5 0.8 1 0.4 0.5 0.6 0.5 0.6 1 0.2 1 0.2 0.5 0.4 0.5 0.3910685 0.0558359 0.4782536 0.3241641 0.25 0.49 0.25 0.49 0.02174639 0.3241641 0.3910685 0.0558359 0 1 0 0.5 0.2 0.5 0.5217465 0.3241641 0.75 0.49 0.9782536 0.3241641 0.9782536 0.3241641 0.8910685 0.0558359 0.5217465 0.3241641 0.8 0.5 1 0.5 1 1 1 1 0.8 1 0.8 0.5 0.8 1 0.6 1 0.6 0.5 0.6 0.5 0.6 1 0.4 1 0.3910685 0.0558359 0.4782536 0.3241641 0.25 0.49 0.25 0.49 0.02174639 0.3241641 0.1089315 0.0558359 0.4 0.5 0.4 1 0.2 1 0.2 0.5 0.2 1 0 1 0.5217465 0.3241641 0.75 0.49 0.6089316 0.0558359 0.75 0.49 0.9782536 0.3241641 0.6089316 0.0558359 1 1 0.96875 1 0.96875 0.5 0.96875 1 0.9375 1 0.9375 0.5 0.9375 1 0.90625 1 0.90625 0.5 0.90625 0.5 0.90625 1 0.875 1 0.875 0.5 0.875 1 0.84375 1 0.84375 1 0.8125 1 0.8125 0.5 0.8125 0.5 0.8125 1 0.78125 1 0.78125 0.5 0.78125 1 0.75 1 0.75 1 0.71875 1 0.71875 0.5 0.71875 0.5 0.71875 1 0.6875 1 0.6875 1 0.65625 1 0.65625 0.5 0.65625 0.5 0.65625 1 0.625 1 0.625 0.5 0.625 1 0.59375 1 0.59375 0.5 0.59375 1 0.5625 1 0.5625 0.5 0.5625 1 0.53125 1 0.53125 1 0.5 1 0.5 0.5 0.5 1 0.46875 1 0.46875 0.5 0.46875 1 0.4375 1 0.4375 0.5 0.4375 1 0.40625 1 0.40625 0.5 0.40625 1 0.375 1 0.375 0.5 0.375 1 0.34375 1 0.34375 0.5 0.34375 1 0.3125 1 0.3125 0.5 0.3125 1 0.28125 1 0.28125 0.5 0.28125 0.5 0.28125 1 0.25 1 0.25 1 0.21875 1 0.21875 0.5 0.21875 0.5 0.21875 1 0.1875 1 0.1875 1 0.15625 1 0.15625 0.5 0.15625 1 0.125 1 0.125 0.5 0.125 0.5 0.125 1 0.09375 1 0.09375 1 0.0625 1 0.0625 0.5 0.341844 0.4717311 0.2968217 0.4853885 0.25 0.49 0.25 0.49 0.2031783 0.4853885 0.341844 0.4717311 0.2031783 0.4853885 0.1581559 0.4717311 0.341844 0.4717311 0.1581559 0.4717311 0.1166631 0.4495527 0.02826887 0.341844 0.1166631 0.4495527 0.08029437 0.4197056 0.02826887 0.341844 0.08029437 0.4197056 0.05044728 0.3833369 0.02826887 0.341844 0.02826887 0.341844 0.01461154 0.2968217 0.00999999 0.25 0.00999999 0.25 0.01461154 0.2031783 0.02826887 0.341844 0.01461154 0.2031783 0.02826887 0.1581559 0.02826887 0.341844 0.02826887 0.1581559 0.05044728 0.1166631 0.08029437 0.08029437 0.08029437 0.08029437 0.1166631 0.05044728 0.02826887 0.1581559 0.1166631 0.05044728 0.1581559 0.02826887 0.02826887 0.1581559 0.1581559 0.02826887 0.2031783 0.01461154 0.341844 0.02826887 0.2031783 0.01461154 0.25 0.00999999 0.341844 0.02826887 0.25 0.00999999 0.2968217 0.01461154 0.341844 0.02826887 0.341844 0.02826887 0.3833369 0.05044728 0.4717311 0.1581559 0.3833369 0.05044728 0.4197056 0.08029437 0.4717311 0.1581559 0.4197056 0.08029437 0.4495527 0.1166631 0.4717311 0.1581559 0.4717311 0.1581559 0.4853885 0.2031783 0.49 0.25 0.49 0.25 0.4853885 0.2968217 0.4717311 0.341844 0.4717311 0.341844 0.4495527 0.3833369 0.4197056 0.4197056 0.4197056 0.4197056 0.3833369 0.4495527 0.4717311 0.341844 0.3833369 0.4495527 0.341844 0.4717311 0.4717311 0.341844 0.4717311 0.1581559 0.49 0.25 0.4717311 0.341844 0.341844 0.4717311 0.1581559 0.4717311 0.02826887 0.341844 0.02826887 0.341844 0.02826887 0.1581559 0.1581559 0.02826887 0.1581559 0.02826887 0.341844 0.02826887 0.4717311 0.1581559 0.4717311 0.1581559 0.4717311 0.341844 0.341844 0.4717311 0.341844 0.4717311 0.02826887 0.341844 0.4717311 0.1581559 0.0625 1 0.03125 1 0.03125 0.5 0.03125 1 0 1 0 0.5 0.7031784 0.4853885 0.75 0.49 0.7968217 0.4853885 0.7968217 0.4853885 0.841844 0.4717311 0.8833369 0.4495527 0.8833369 0.4495527 0.9197056 0.4197056 0.9495527 0.3833369 0.9495527 0.3833369 0.9717311 0.341844 0.8833369 0.4495527 0.9717311 0.341844 0.9853885 0.2968217 0.8833369 0.4495527 0.9853885 0.2968217 0.99 0.25 0.9853885 0.2031783 0.9853885 0.2031783 0.9717311 0.1581559 0.9853885 0.2968217 0.9717311 0.1581559 0.9495527 0.1166631 0.9853885 0.2968217 0.9495527 0.1166631 0.9197056 0.08029437 0.8833369 0.05044728 0.8833369 0.05044728 0.841844 0.02826887 0.7968217 0.01461154 0.7968217 0.01461154 0.75 0.00999999 0.7031784 0.01461154 0.7031784 0.01461154 0.658156 0.02826887 0.6166632 0.05044728 0.6166632 0.05044728 0.5802944 0.08029437 0.5504473 0.1166631 0.5504473 0.1166631 0.5282689 0.1581559 0.6166632 0.05044728 0.5282689 0.1581559 0.5146116 0.2031783 0.6166632 0.05044728 0.5146116 0.2031783 0.51 0.25 0.5146116 0.2968217 0.5146116 0.2968217 0.5282689 0.341844 0.5146116 0.2031783 0.5282689 0.341844 0.5504473 0.3833369 0.5146116 0.2031783 0.5504473 0.3833369 0.5802944 0.4197056 0.6166632 0.4495527 0.6166632 0.4495527 0.658156 0.4717311 0.7031784 0.4853885 0.7031784 0.4853885 0.7968217 0.4853885 0.8833369 0.4495527 0.9495527 0.1166631 0.8833369 0.05044728 0.9853885 0.2968217 0.8833369 0.05044728 0.7968217 0.01461154 0.9853885 0.2968217 0.7968217 0.01461154 0.7031784 0.01461154 0.6166632 0.05044728 0.5504473 0.3833369 0.6166632 0.4495527 0.5146116 0.2031783 0.6166632 0.4495527 0.7031784 0.4853885 0.5146116 0.2031783 0.7031784 0.4853885 0.8833369 0.4495527 0.7968217 0.01461154 0.8833369 0.4495527 0.9853885 0.2968217 0.7968217 0.01461154 0.7968217 0.01461154 0.6166632 0.05044728 0.7031784 0.4853885 1 1 0.96875 1 0.96875 0.5 0.96875 1 0.9375 1 0.9375 0.5 0.9375 1 0.90625 1 0.90625 0.5 0.90625 1 0.875 1 0.875 0.5 0.875 1 0.84375 1 0.84375 0.5 0.84375 1 0.8125 1 0.8125 0.5 0.8125 1 0.78125 1 0.78125 0.5 0.78125 1 0.75 1 0.75 0.5 0.75 1 0.71875 1 0.71875 0.5 0.71875 1 0.6875 1 0.6875 0.5 0.6875 1 0.65625 1 0.65625 0.5 0.65625 1 0.625 1 0.625 0.5 0.625 1 0.59375 1 0.59375 0.5 0.59375 1 0.5625 1 0.5625 0.5 0.5625 1 0.53125 1 0.53125 0.5 0.53125 1 0.5 1 0.5 0.5 0.5 1 0.46875 1 0.46875 0.5 0.46875 1 0.4375 1 0.4375 0.5 0.4375 1 0.40625 1 0.40625 0.5 0.40625 1 0.375 1 0.375 0.5 0.375 1 0.34375 1 0.34375 0.5 0.34375 0.5 0.34375 1 0.3125 1 0.3125 1 0.28125 1 0.28125 0.5 0.28125 1 0.25 1 0.25 0.5 0.25 1 0.21875 1 0.21875 0.5 0.21875 1 0.1875 1 0.1875 0.5 0.1875 0.5 0.1875 1 0.15625 1 0.15625 1 0.125 1 0.125 0.5 0.125 1 0.09375 1 0.09375 0.5 0.09375 0.5 0.09375 1 0.0625 1 0.341844 0.4717311 0.2968217 0.4853885 0.25 0.49 0.25 0.49 0.2031783 0.4853885 0.1581559 0.4717311 0.1581559 0.4717311 0.1166631 0.4495527 0.08029437 0.4197056 0.08029437 0.4197056 0.05044728 0.3833369 0.1581559 0.4717311 0.05044728 0.3833369 0.02826887 0.341844 0.1581559 0.4717311 0.02826887 0.341844 0.01461154 0.2968217 0.00999999 0.25 0.00999999 0.25 0.01461154 0.2031783 0.02826887 0.1581559 0.02826887 0.1581559 0.05044728 0.1166631 0.08029437 0.08029437 0.08029437 0.08029437 0.1166631 0.05044728 0.1581559 0.02826887 0.1581559 0.02826887 0.2031783 0.01461154 0.25 0.00999999 0.25 0.00999999 0.2968217 0.01461154 0.341844 0.02826887 0.341844 0.02826887 0.3833369 0.05044728 0.4197056 0.08029437 0.4197056 0.08029437 0.4495527 0.1166631 0.4717311 0.1581559 0.4717311 0.1581559 0.4853885 0.2031783 0.49 0.25 0.49 0.25 0.4853885 0.2968217 0.4717311 0.341844 0.4717311 0.341844 0.4495527 0.3833369 0.341844 0.4717311 0.4495527 0.3833369 0.4197056 0.4197056 0.341844 0.4717311 0.4197056 0.4197056 0.3833369 0.4495527 0.341844 0.4717311 0.341844 0.4717311 0.25 0.49 0.1581559 0.4717311 0.02826887 0.341844 0.00999999 0.25 0.1581559 0.02826887 0.00999999 0.25 0.02826887 0.1581559 0.1581559 0.02826887 0.02826887 0.1581559 0.08029437 0.08029437 0.1581559 0.02826887 0.1581559 0.02826887 0.25 0.00999999 0.341844 0.02826887 0.341844 0.02826887 0.4197056 0.08029437 0.4717311 0.1581559 0.4717311 0.1581559 0.49 0.25 0.341844 0.4717311 0.49 0.25 0.4717311 0.341844 0.341844 0.4717311 0.341844 0.4717311 0.1581559 0.4717311 0.1581559 0.02826887 0.1581559 0.4717311 0.02826887 0.341844 0.1581559 0.02826887 0.1581559 0.02826887 0.341844 0.02826887 0.341844 0.4717311 0.0625 1 0.03125 1 0.03125 0.5 0.03125 1 0 1 0 0.5 0.7031784 0.4853885 0.75 0.49 0.7968217 0.4853885 0.7968217 0.4853885 0.841844 0.4717311 0.7031784 0.4853885 0.841844 0.4717311 0.8833369 0.4495527 0.7031784 0.4853885 0.8833369 0.4495527 0.9197056 0.4197056 0.9495527 0.3833369 0.9495527 0.3833369 0.9717311 0.341844 0.9853885 0.2968217 0.9853885 0.2968217 0.99 0.25 0.9853885 0.2031783 0.9853885 0.2031783 0.9717311 0.1581559 0.9495527 0.1166631 0.9495527 0.1166631 0.9197056 0.08029437 0.8833369 0.05044728 0.8833369 0.05044728 0.841844 0.02826887 0.9495527 0.1166631 0.841844 0.02826887 0.7968217 0.01461154 0.9495527 0.1166631 0.7968217 0.01461154 0.75 0.00999999 0.7031784 0.01461154 0.7031784 0.01461154 0.658156 0.02826887 0.7968217 0.01461154 0.658156 0.02826887 0.6166632 0.05044728 0.7968217 0.01461154 0.6166632 0.05044728 0.5802944 0.08029437 0.5146116 0.2031783 0.5802944 0.08029437 0.5504473 0.1166631 0.5146116 0.2031783 0.5504473 0.1166631 0.5282689 0.1581559 0.5146116 0.2031783 0.5146116 0.2031783 0.51 0.25 0.5146116 0.2968217 0.5146116 0.2968217 0.5282689 0.341844 0.5504473 0.3833369 0.5504473 0.3833369 0.5802944 0.4197056 0.6166632 0.4495527 0.6166632 0.4495527 0.658156 0.4717311 0.5504473 0.3833369 0.658156 0.4717311 0.7031784 0.4853885 0.5504473 0.3833369 0.8833369 0.4495527 0.9495527 0.3833369 0.9853885 0.2968217 0.9853885 0.2968217 0.9853885 0.2031783 0.7968217 0.01461154 0.9853885 0.2031783 0.9495527 0.1166631 0.7968217 0.01461154 0.5146116 0.2031783 0.5146116 0.2968217 0.7031784 0.4853885 0.5146116 0.2968217 0.5504473 0.3833369 0.7031784 0.4853885 0.7031784 0.4853885 0.8833369 0.4495527 0.9853885 0.2968217 0.7968217 0.01461154 0.6166632 0.05044728 0.5146116 0.2031783 0.7031784 0.4853885 0.9853885 0.2968217 0.5146116 0.2031783 1 1 0.8 1 0.8 0.5 0.8 1 0.6 1 0.6 0.5 0.6 0.5 0.6 1 0.4 1 0.3910685 0.0558359 0.4782536 0.3241641 0.25 0.49 0.25 0.49 0.02174639 0.3241641 0.1089315 0.0558359 0.4 0.5 0.4 1 0.2 1 0.2 0.5 0.2 1 0 1 0.5217465 0.3241641 0.75 0.49 0.6089316 0.0558359 0.75 0.49 0.9782536 0.3241641 0.6089316 0.0558359</float_array>
          <technique_common>
            <accessor source="#Cylinder_013-mesh-map-0-array" count="1860" stride="2">
              <param name="S" type="float"/>
              <param name="T" type="float"/>
            </accessor>
          </technique_common>
        </source>
        <vertices id="Cylinder_013-mesh-vertices">
          <input semantic="POSITION" source="#Cylinder_013-mesh-positions"/>
        </vertices>
        <triangles material="Material_001-material" count="620">
          <input semantic="VERTEX" source="#Cylinder_013-mesh-vertices" offset="0"/>
          <input semantic="NORMAL" source="#Cylinder_013-mesh-normals" offset="1"/>
          <input semantic="TEXCOORD" source="#Cylinder_013-mesh-map-0" offset="2" set="0"/>
          <p>1 0 0 2 1 1 0 2 2 3 3 3 4 4 4 2 1 5 5 5 6 6 6 7 4 4 8 7 7 9 8 8 10 6 6 11 9 9 12 10 10 13 8 8 14 11 11 15 12 12 16 10 10 17 13 13 18 14 14 19 12 12 20 15 15 21 16 16 22 14 14 23 17 17 24 18 18 25 16 16 26 19 19 27 20 20 28 18 18 29 21 21 30 22 22 31 20 20 32 23 23 33 24 24 34 22 22 35 25 25 36 26 26 37 24 24 38 27 27 39 28 28 40 26 26 41 29 29 42 30 30 43 28 28 44 31 31 45 32 32 46 30 30 47 33 33 48 34 34 49 32 32 50 35 35 51 36 36 52 34 34 53 37 37 54 38 38 55 36 36 56 39 39 57 40 40 58 38 38 59 40 40 60 43 41 61 42 42 62 43 41 63 44 43 64 42 42 65 45 44 66 46 45 67 44 43 68 46 45 69 49 46 70 48 47 71 49 46 72 50 48 73 48 47 74 50 48 75 53 49 76 52 50 77 53 49 78 54 51 79 52 50 80 55 52 81 56 53 82 54 51 83 57 54 84 58 55 85 56 53 86 59 56 87 60 57 88 58 55 89 53 49 90 37 37 91 21 21 92 61 58 93 62 59 94 60 57 95 63 60 96 0 2 97 62 59 98 38 38 99 46 45 100 62 59 101 67 61 102 64 61 103 65 61 104 70 62 105 66 62 106 67 62 107 66 63 108 68 63 109 64 63 110 69 64 111 67 64 112 65 64 113 68 65 114 70 65 115 69 65 116 64 66 117 69 66 118 65 66 119 78 67 120 74 67 121 75 67 122 79 68 123 73 68 124 74 68 125 72 69 126 74 69 127 73 69 128 76 70 129 75 70 130 72 70 131 77 71 132 78 71 133 76 71 134 77 72 135 72 72 136 73 72 137 83 61 138 80 61 139 81 61 140 86 73 141 82 73 142 83 73 143 82 74 144 84 74 145 80 74 146 85 75 147 83 75 148 81 75 149 84 65 150 86 65 151 85 65 152 80 76 153 85 76 154 81 76 155 91 77 156 95 77 157 90 77 158 95 78 159 89 78 160 90 78 161 88 79 162 90 79 163 89 79 164 92 80 165 91 80 166 88 80 167 92 81 168 95 81 169 94 81 170 89 82 171 92 82 172 88 82 173 99 83 174 103 83 175 98 83 176 103 84 177 97 84 178 98 84 179 96 85 180 98 85 181 97 85 182 100 86 183 99 86 184 96 86 185 101 87 186 102 87 187 100 87 188 101 88 189 96 88 190 97 88 191 107 89 192 111 89 193 106 89 194 106 90 195 109 90 196 105 90 197 104 91 198 106 91 199 105 91 200 108 92 201 107 92 202 104 92 203 109 93 204 110 93 205 108 93 206 109 94 207 104 94 208 105 94 209 118 95 210 114 95 211 115 95 212 114 96 213 117 96 214 112 96 215 113 97 216 114 97 217 112 97 218 116 98 219 115 98 220 113 98 221 116 99 222 119 99 223 118 99 224 112 100 225 116 100 226 113 100 227 122 101 228 121 101 229 120 101 230 126 102 231 124 102 232 125 102 233 123 103 234 124 103 235 127 103 236 121 104 237 125 104 238 120 104 239 123 105 240 126 105 241 121 105 242 122 106 243 125 106 244 124 106 245 130 107 246 129 107 247 128 107 248 134 108 249 132 108 250 133 108 251 128 109 252 132 109 253 130 109 254 131 110 255 132 110 256 135 110 257 129 111 258 133 111 259 128 111 260 129 112 261 135 112 262 134 112 263 138 113 264 137 113 265 136 113 266 142 114 267 140 114 268 141 114 269 139 115 270 140 115 271 143 115 272 136 116 273 142 116 274 141 116 275 139 117 276 142 117 277 137 117 278 138 118 279 141 118 280 140 118 281 146 119 282 145 119 283 144 119 284 150 120 285 148 120 286 149 120 287 147 121 288 148 121 289 151 121 290 145 122 291 149 122 292 144 122 293 147 123 294 150 123 295 145 123 296 146 124 297 149 124 298 148 124 299 156 125 300 155 125 301 159 125 302 153 126 303 156 126 304 157 126 305 154 127 306 152 127 307 153 127 308 156 128 309 158 128 310 157 128 311 154 129 312 157 129 313 158 129 314 155 65 315 158 65 316 159 65 317 162 130 318 161 130 319 160 130 320 166 131 321 164 131 322 165 131 323 162 132 324 167 132 325 163 132 326 160 133 327 166 133 328 165 133 329 163 134 330 166 134 331 161 134 332 162 135 333 165 135 334 164 135 335 174 136 336 170 136 337 171 136 338 175 137 339 168 137 340 170 137 341 168 138 342 171 138 343 170 138 344 172 139 345 171 139 346 169 139 347 172 140 348 175 140 349 174 140 350 168 141 351 172 141 352 169 141 353 183 142 354 177 142 355 178 142 356 184 143 357 178 143 358 179 143 359 180 144 360 184 144 361 179 144 362 176 145 363 179 145 364 178 145 365 176 146 366 185 146 367 180 146 368 182 147 369 183 147 370 184 147 371 182 148 372 176 148 373 177 148 374 193 149 375 187 149 376 188 149 377 189 150 378 193 150 379 188 150 380 195 151 381 189 151 382 190 151 383 190 152 384 189 152 385 188 152 386 191 153 387 190 153 388 186 153 389 192 154 390 194 154 391 195 154 392 192 155 393 186 155 394 187 155 395 203 156 396 197 156 397 198 156 398 204 157 399 198 157 400 199 157 401 200 158 402 204 158 403 199 158 404 200 159 405 199 159 406 198 159 407 196 160 408 205 160 409 200 160 410 203 161 411 204 161 412 205 161 413 202 162 414 196 162 415 197 162 416 207 163 417 208 163 418 206 163 419 209 164 420 210 164 421 208 164 422 210 165 423 213 165 424 212 165 425 207 166 426 213 166 427 211 166 428 212 167 429 215 167 430 214 167 431 214 168 432 207 168 433 206 168 434 208 169 435 210 169 436 212 169 437 217 170 438 218 171 439 216 172 440 219 173 441 220 174 442 218 171 443 221 175 444 222 176 445 220 174 446 222 176 447 225 177 448 224 178 449 224 178 450 227 179 451 226 180 452 227 179 453 228 181 454 226 180 455 228 181 456 231 182 457 230 183 458 230 183 459 233 184 460 232 185 461 233 184 462 234 186 463 232 185 464 234 186 465 237 187 466 236 188 467 237 187 468 238 189 469 236 188 470 238 189 471 241 190 472 240 191 473 240 191 474 243 192 475 242 193 476 242 193 477 245 194 478 244 195 479 244 195 480 247 196 481 246 197 482 247 196 483 248 198 484 246 197 485 249 199 486 250 200 487 248 198 488 251 201 489 252 202 490 250 200 491 253 203 492 254 204 493 252 202 494 255 205 495 256 206 496 254 204 497 257 207 498 258 208 499 256 206 500 259 209 501 260 210 502 258 208 503 261 211 504 262 212 505 260 210 506 262 212 507 265 213 508 264 214 509 265 213 510 266 215 511 264 214 512 266 215 513 269 216 514 268 217 515 269 216 516 270 218 517 268 217 518 271 219 519 272 220 520 270 218 521 272 220 522 275 221 523 274 222 524 275 221 525 276 223 526 274 222 527 269 216 528 253 203 529 237 187 530 277 224 531 278 225 532 276 223 533 279 226 534 216 172 535 278 225 536 254 204 537 262 212 538 278 225 539 281 227 540 282 228 541 280 229 542 283 230 543 284 231 544 282 228 545 285 232 546 286 233 547 284 231 548 287 234 549 288 235 550 286 233 551 289 236 552 290 237 553 288 235 554 291 238 555 292 239 556 290 237 557 293 240 558 294 241 559 292 239 560 295 242 561 296 243 562 294 241 563 297 244 564 298 245 565 296 243 566 299 246 567 300 247 568 298 245 569 301 248 570 302 249 571 300 247 572 303 250 573 304 251 574 302 249 575 305 252 576 306 253 577 304 251 578 307 254 579 308 255 580 306 253 581 309 256 582 310 257 583 308 255 584 311 258 585 312 259 586 310 257 587 313 260 588 314 261 589 312 259 590 315 262 591 316 263 592 314 261 593 317 264 594 318 265 595 316 263 596 319 266 597 320 267 598 318 265 599 321 268 600 322 269 601 320 267 602 322 269 603 325 270 604 324 271 605 325 270 606 326 272 607 324 271 608 327 273 609 328 274 610 326 272 611 329 275 612 330 276 613 328 274 614 331 277 615 332 278 616 330 276 617 332 278 618 335 279 619 334 280 620 335 279 621 336 281 622 334 280 623 337 282 624 338 283 625 336 281 626 338 283 627 341 284 628 340 285 629 309 256 630 301 248 631 285 232 632 341 284 633 342 286 634 340 285 635 343 287 636 280 229 637 342 286 638 294 241 639 310 257 640 326 272 641 345 288 642 346 288 643 344 288 644 347 289 645 348 289 646 346 289 647 348 165 648 351 165 649 350 165 650 345 290 651 351 290 652 349 290 653 350 291 654 353 291 655 352 291 656 352 292 657 345 292 658 344 292 659 346 293 660 348 293 661 350 293 662 1 0 663 3 3 664 2 1 665 3 3 666 5 5 667 4 4 668 5 5 669 7 7 670 6 6 671 7 7 672 9 9 673 8 8 674 9 9 675 11 11 676 10 10 677 11 11 678 13 13 679 12 12 680 13 13 681 15 15 682 14 14 683 15 15 684 17 17 685 16 16 686 17 17 687 19 19 688 18 18 689 19 19 690 21 21 691 20 20 692 21 21 693 23 23 694 22 22 695 23 23 696 25 25 697 24 24 698 25 25 699 27 27 700 26 26 701 27 27 702 29 29 703 28 28 704 29 29 705 31 31 706 30 30 707 31 31 708 33 33 709 32 32 710 33 33 711 35 35 712 34 34 713 35 35 714 37 37 715 36 36 716 37 37 717 39 39 718 38 38 719 39 39 720 41 294 721 40 40 722 40 40 723 41 294 724 43 41 725 43 41 726 45 44 727 44 43 728 45 44 729 47 295 730 46 45 731 46 45 732 47 295 733 49 46 734 49 46 735 51 296 736 50 48 737 50 48 738 51 296 739 53 49 740 53 49 741 55 52 742 54 51 743 55 52 744 57 54 745 56 53 746 57 54 747 59 56 748 58 55 749 59 56 750 61 58 751 60 57 752 5 5 753 3 3 754 1 0 755 1 0 756 63 60 757 5 5 758 63 60 759 61 58 760 5 5 761 61 58 762 59 56 763 53 49 764 59 56 765 57 54 766 53 49 767 57 54 768 55 52 769 53 49 770 53 49 771 51 296 772 49 46 773 49 46 774 47 295 775 53 49 776 47 295 777 45 44 778 53 49 779 45 44 780 43 41 781 41 294 782 41 294 783 39 39 784 45 44 785 39 39 786 37 37 787 45 44 788 37 37 789 35 35 790 29 29 791 35 35 792 33 33 793 29 29 794 33 33 795 31 31 796 29 29 797 29 29 798 27 27 799 21 21 800 27 27 801 25 25 802 21 21 803 25 25 804 23 23 805 21 21 806 21 21 807 19 19 808 17 17 809 17 17 810 15 15 811 13 13 812 13 13 813 11 11 814 9 9 815 9 9 816 7 7 817 13 13 818 7 7 819 5 5 820 13 13 821 21 21 822 17 17 823 5 5 824 17 17 825 13 13 826 5 5 827 5 5 828 61 58 829 53 49 830 53 49 831 45 44 832 37 37 833 37 37 834 29 29 835 21 21 836 5 5 837 53 49 838 21 21 839 61 58 840 63 60 841 62 59 842 63 60 843 1 0 844 0 2 845 62 59 846 0 2 847 2 1 848 2 1 849 4 4 850 6 6 851 6 6 852 8 8 853 10 10 854 10 10 855 12 12 856 6 6 857 12 12 858 14 14 859 6 6 860 14 14 861 16 16 862 22 22 863 16 16 864 18 18 865 22 22 866 18 18 867 20 20 868 22 22 869 22 22 870 24 24 871 26 26 872 26 26 873 28 28 874 30 30 875 30 30 876 32 32 877 34 34 878 34 34 879 36 36 880 38 38 881 38 38 882 40 40 883 42 42 884 42 42 885 44 43 886 38 38 887 44 43 888 46 45 889 38 38 890 46 45 891 48 47 892 50 48 893 50 48 894 52 50 895 46 45 896 52 50 897 54 51 898 46 45 899 54 51 900 56 53 901 58 55 902 58 55 903 60 57 904 62 59 905 62 59 906 2 1 907 6 6 908 22 22 909 26 26 910 14 14 911 26 26 912 30 30 913 14 14 914 30 30 915 34 34 916 38 38 917 54 51 918 58 55 919 46 45 920 58 55 921 62 59 922 46 45 923 62 59 924 6 6 925 30 30 926 6 6 927 14 14 928 30 30 929 30 30 930 38 38 931 62 59 932 67 61 933 66 61 934 64 61 935 70 297 936 71 297 937 66 297 938 66 298 939 71 298 940 68 298 941 69 299 942 70 299 943 67 299 944 68 65 945 71 65 946 70 65 947 64 300 948 68 300 949 69 300 950 78 301 951 79 301 952 74 301 953 79 302 954 77 302 955 73 302 956 72 303 957 75 303 958 74 303 959 76 304 960 78 304 961 75 304 962 77 305 963 79 305 964 78 305 965 77 306 966 76 306 967 72 306 968 83 61 969 82 61 970 80 61 971 86 307 972 87 307 973 82 307 974 82 308 975 87 308 976 84 308 977 85 309 978 86 309 979 83 309 980 84 65 981 87 65 982 86 65 983 80 310 984 84 310 985 85 310 986 91 311 987 94 311 988 95 311 989 95 312 990 93 312 991 89 312 992 88 313 993 91 313 994 90 313 995 92 314 996 94 314 997 91 314 998 92 315 999 93 315 1000 95 315 1001 89 316 1002 93 316 1003 92 316 1004 99 317 1005 102 317 1006 103 317 1007 103 318 1008 101 318 1009 97 318 1010 96 319 1011 99 319 1012 98 319 1013 100 320 1014 102 320 1015 99 320 1016 101 321 1017 103 321 1018 102 321 1019 101 322 1020 100 322 1021 96 322 1022 107 323 1023 110 323 1024 111 323 1025 106 324 1026 111 324 1027 109 324 1028 104 325 1029 107 325 1030 106 325 1031 108 326 1032 110 326 1033 107 326 1034 109 327 1035 111 327 1036 110 327 1037 109 328 1038 108 328 1039 104 328 1040 118 329 1041 119 329 1042 114 329 1043 114 330 1044 119 330 1045 117 330 1046 113 331 1047 115 331 1048 114 331 1049 116 332 1050 118 332 1051 115 332 1052 116 333 1053 117 333 1054 119 333 1055 112 334 1056 117 334 1057 116 334 1058 122 335 1059 123 335 1060 121 335 1061 126 336 1062 127 336 1063 124 336 1064 123 337 1065 122 337 1066 124 337 1067 121 338 1068 126 338 1069 125 338 1070 123 339 1071 127 339 1072 126 339 1073 122 340 1074 120 340 1075 125 340 1076 130 341 1077 131 341 1078 129 341 1079 134 342 1080 135 342 1081 132 342 1082 128 61 1083 133 61 1084 132 61 1085 131 343 1086 130 343 1087 132 343 1088 129 344 1089 134 344 1090 133 344 1091 129 345 1092 131 345 1093 135 345 1094 138 346 1095 139 346 1096 137 346 1097 142 347 1098 143 347 1099 140 347 1100 139 348 1101 138 348 1102 140 348 1103 136 349 1104 137 349 1105 142 349 1106 139 350 1107 143 350 1108 142 350 1109 138 351 1110 136 351 1111 141 351 1112 146 352 1113 147 352 1114 145 352 1115 150 353 1116 151 353 1117 148 353 1118 147 354 1119 146 354 1120 148 354 1121 145 355 1122 150 355 1123 149 355 1124 147 356 1125 151 356 1126 150 356 1127 146 357 1128 144 357 1129 149 357 1130 156 358 1131 152 358 1132 155 358 1133 153 359 1134 152 359 1135 156 359 1136 154 360 1137 155 360 1138 152 360 1139 156 361 1140 159 361 1141 158 361 1142 154 362 1143 153 362 1144 157 362 1145 155 65 1146 154 65 1147 158 65 1148 162 363 1149 163 363 1150 161 363 1151 166 364 1152 167 364 1153 164 364 1154 162 365 1155 164 365 1156 167 365 1157 160 366 1158 161 366 1159 166 366 1160 163 367 1161 167 367 1162 166 367 1163 162 368 1164 160 368 1165 165 368 1166 174 369 1167 175 369 1168 170 369 1169 175 370 1170 173 370 1171 168 370 1172 168 371 1173 169 371 1174 171 371 1175 172 372 1176 174 372 1177 171 372 1178 172 373 1179 173 373 1180 175 373 1181 168 374 1182 173 374 1183 172 374 1184 183 375 1185 182 375 1186 177 375 1187 184 165 1188 183 165 1189 178 165 1190 180 376 1191 185 376 1192 184 376 1193 178 377 1194 177 377 1195 176 377 1196 176 378 1197 180 378 1198 179 378 1199 176 379 1200 181 379 1201 185 379 1202 185 380 1203 181 380 1204 184 380 1205 181 381 1206 182 381 1207 184 381 1208 182 382 1209 181 382 1210 176 382 1211 193 383 1212 192 383 1213 187 383 1214 189 384 1215 194 384 1216 193 384 1217 195 385 1218 194 385 1219 189 385 1220 188 386 1221 187 386 1222 186 386 1223 186 387 1224 190 387 1225 188 387 1226 191 388 1227 195 388 1228 190 388 1229 195 389 1230 191 389 1231 192 389 1232 192 390 1233 193 390 1234 194 390 1235 192 391 1236 191 391 1237 186 391 1238 203 392 1239 202 392 1240 197 392 1241 204 165 1242 203 165 1243 198 165 1244 200 393 1245 205 393 1246 204 393 1247 198 394 1248 197 394 1249 196 394 1250 196 395 1251 200 395 1252 198 395 1253 196 396 1254 201 396 1255 205 396 1256 205 397 1257 201 397 1258 202 397 1259 202 398 1260 203 398 1261 205 398 1262 202 399 1263 201 399 1264 196 399 1265 207 400 1266 209 400 1267 208 400 1268 209 401 1269 211 401 1270 210 401 1271 210 402 1272 211 402 1273 213 402 1274 211 403 1275 209 403 1276 207 403 1277 207 404 1278 215 404 1279 213 404 1280 212 405 1281 213 405 1282 215 405 1283 214 406 1284 215 406 1285 207 406 1286 214 407 1287 206 407 1288 212 407 1289 206 408 1290 208 408 1291 212 408 1292 217 170 1293 219 173 1294 218 171 1295 219 173 1296 221 175 1297 220 174 1298 221 175 1299 223 409 1300 222 176 1301 222 176 1302 223 409 1303 225 177 1304 224 178 1305 225 177 1306 227 179 1307 227 179 1308 229 410 1309 228 181 1310 228 181 1311 229 410 1312 231 182 1313 230 183 1314 231 182 1315 233 184 1316 233 184 1317 235 411 1318 234 186 1319 234 186 1320 235 411 1321 237 187 1322 237 187 1323 239 412 1324 238 189 1325 238 189 1326 239 412 1327 241 190 1328 240 191 1329 241 190 1330 243 192 1331 242 193 1332 243 192 1333 245 194 1334 244 195 1335 245 194 1336 247 196 1337 247 196 1338 249 199 1339 248 198 1340 249 199 1341 251 201 1342 250 200 1343 251 201 1344 253 203 1345 252 202 1346 253 203 1347 255 205 1348 254 204 1349 255 205 1350 257 207 1351 256 206 1352 257 207 1353 259 209 1354 258 208 1355 259 209 1356 261 211 1357 260 210 1358 261 211 1359 263 413 1360 262 212 1361 262 212 1362 263 413 1363 265 213 1364 265 213 1365 267 414 1366 266 215 1367 266 215 1368 267 414 1369 269 216 1370 269 216 1371 271 219 1372 270 218 1373 271 219 1374 273 415 1375 272 220 1376 272 220 1377 273 415 1378 275 221 1379 275 221 1380 277 224 1381 276 223 1382 221 175 1383 219 173 1384 217 170 1385 217 170 1386 279 226 1387 221 175 1388 279 226 1389 277 224 1390 221 175 1391 277 224 1392 275 221 1393 269 216 1394 275 221 1395 273 415 1396 269 216 1397 273 415 1398 271 219 1399 269 216 1400 269 216 1401 267 414 1402 265 213 1403 265 213 1404 263 413 1405 269 216 1406 263 413 1407 261 211 1408 269 216 1409 261 211 1410 259 209 1411 257 207 1412 257 207 1413 255 205 1414 261 211 1415 255 205 1416 253 203 1417 261 211 1418 253 203 1419 251 201 1420 245 194 1421 251 201 1422 249 199 1423 245 194 1424 249 199 1425 247 196 1426 245 194 1427 245 194 1428 243 192 1429 237 187 1430 243 192 1431 241 190 1432 237 187 1433 241 190 1434 239 412 1435 237 187 1436 237 187 1437 235 411 1438 233 184 1439 233 184 1440 231 182 1441 229 410 1442 229 410 1443 227 179 1444 225 177 1445 225 177 1446 223 409 1447 229 410 1448 223 409 1449 221 175 1450 229 410 1451 237 187 1452 233 184 1453 229 410 1454 221 175 1455 277 224 1456 269 216 1457 269 216 1458 261 211 1459 253 203 1460 253 203 1461 245 194 1462 237 187 1463 237 187 1464 229 410 1465 221 175 1466 221 175 1467 269 216 1468 237 187 1469 277 224 1470 279 226 1471 278 225 1472 279 226 1473 217 170 1474 216 172 1475 278 225 1476 216 172 1477 218 171 1478 218 171 1479 220 174 1480 222 176 1481 222 176 1482 224 178 1483 226 180 1484 226 180 1485 228 181 1486 222 176 1487 228 181 1488 230 183 1489 222 176 1490 230 183 1491 232 185 1492 234 186 1493 234 186 1494 236 188 1495 230 183 1496 236 188 1497 238 189 1498 230 183 1499 238 189 1500 240 191 1501 242 193 1502 242 193 1503 244 195 1504 246 197 1505 246 197 1506 248 198 1507 250 200 1508 250 200 1509 252 202 1510 254 204 1511 254 204 1512 256 206 1513 258 208 1514 258 208 1515 260 210 1516 254 204 1517 260 210 1518 262 212 1519 254 204 1520 262 212 1521 264 214 1522 266 215 1523 266 215 1524 268 217 1525 262 212 1526 268 217 1527 270 218 1528 262 212 1529 270 218 1530 272 220 1531 274 222 1532 274 222 1533 276 223 1534 278 225 1535 278 225 1536 218 171 1537 222 176 1538 238 189 1539 242 193 1540 230 183 1541 242 193 1542 246 197 1543 230 183 1544 246 197 1545 250 200 1546 254 204 1547 270 218 1548 274 222 1549 262 212 1550 274 222 1551 278 225 1552 262 212 1553 278 225 1554 222 176 1555 246 197 1556 222 176 1557 230 183 1558 246 197 1559 246 197 1560 254 204 1561 278 225 1562 281 227 1563 283 230 1564 282 228 1565 283 230 1566 285 232 1567 284 231 1568 285 232 1569 287 234 1570 286 233 1571 287 234 1572 289 236 1573 288 235 1574 289 236 1575 291 238 1576 290 237 1577 291 238 1578 293 240 1579 292 239 1580 293 240 1581 295 242 1582 294 241 1583 295 242 1584 297 244 1585 296 243 1586 297 244 1587 299 246 1588 298 245 1589 299 246 1590 301 248 1591 300 247 1592 301 248 1593 303 250 1594 302 249 1595 303 250 1596 305 252 1597 304 251 1598 305 252 1599 307 254 1600 306 253 1601 307 254 1602 309 256 1603 308 255 1604 309 256 1605 311 258 1606 310 257 1607 311 258 1608 313 260 1609 312 259 1610 313 260 1611 315 262 1612 314 261 1613 315 262 1614 317 264 1615 316 263 1616 317 264 1617 319 266 1618 318 265 1619 319 266 1620 321 268 1621 320 267 1622 321 268 1623 323 416 1624 322 269 1625 322 269 1626 323 416 1627 325 270 1628 325 270 1629 327 273 1630 326 272 1631 327 273 1632 329 275 1633 328 274 1634 329 275 1635 331 277 1636 330 276 1637 331 277 1638 333 417 1639 332 278 1640 332 278 1641 333 417 1642 335 279 1643 335 279 1644 337 282 1645 336 281 1646 337 282 1647 339 418 1648 338 283 1649 338 283 1650 339 418 1651 341 284 1652 285 232 1653 283 230 1654 281 227 1655 281 227 1656 343 287 1657 341 284 1658 341 284 1659 339 418 1660 337 282 1661 337 282 1662 335 279 1663 341 284 1664 335 279 1665 333 417 1666 341 284 1667 333 417 1668 331 277 1669 329 275 1670 329 275 1671 327 273 1672 325 270 1673 325 270 1674 323 416 1675 321 268 1676 321 268 1677 319 266 1678 317 264 1679 317 264 1680 315 262 1681 313 260 1682 313 260 1683 311 258 1684 309 256 1685 309 256 1686 307 254 1687 305 252 1688 305 252 1689 303 250 1690 301 248 1691 301 248 1692 299 246 1693 297 244 1694 297 244 1695 295 242 1696 293 240 1697 293 240 1698 291 238 1699 285 232 1700 291 238 1701 289 236 1702 285 232 1703 289 236 1704 287 234 1705 285 232 1706 285 232 1707 281 227 1708 341 284 1709 333 417 1710 329 275 1711 317 264 1712 329 275 1713 325 270 1714 317 264 1715 325 270 1716 321 268 1717 317 264 1718 317 264 1719 313 260 1720 309 256 1721 309 256 1722 305 252 1723 301 248 1724 301 248 1725 297 244 1726 285 232 1727 297 244 1728 293 240 1729 285 232 1730 285 232 1731 341 284 1732 317 264 1733 341 284 1734 333 417 1735 317 264 1736 317 264 1737 309 256 1738 285 232 1739 341 284 1740 343 287 1741 342 286 1742 343 287 1743 281 227 1744 280 229 1745 342 286 1746 280 229 1747 282 228 1748 282 228 1749 284 231 1750 342 286 1751 284 231 1752 286 233 1753 342 286 1754 286 233 1755 288 235 1756 290 237 1757 290 237 1758 292 239 1759 294 241 1760 294 241 1761 296 243 1762 298 245 1763 298 245 1764 300 247 1765 302 249 1766 302 249 1767 304 251 1768 306 253 1769 306 253 1770 308 255 1771 302 249 1772 308 255 1773 310 257 1774 302 249 1775 310 257 1776 312 259 1777 314 261 1778 314 261 1779 316 263 1780 310 257 1781 316 263 1782 318 265 1783 310 257 1784 318 265 1785 320 267 1786 326 272 1787 320 267 1788 322 269 1789 326 272 1790 322 269 1791 324 271 1792 326 272 1793 326 272 1794 328 274 1795 330 276 1796 330 276 1797 332 278 1798 334 280 1799 334 280 1800 336 281 1801 338 283 1802 338 283 1803 340 285 1804 334 280 1805 340 285 1806 342 286 1807 334 280 1808 286 233 1809 290 237 1810 294 241 1811 294 241 1812 298 245 1813 310 257 1814 298 245 1815 302 249 1816 310 257 1817 326 272 1818 330 276 1819 342 286 1820 330 276 1821 334 280 1822 342 286 1823 342 286 1824 286 233 1825 294 241 1826 310 257 1827 318 265 1828 326 272 1829 342 286 1830 294 241 1831 326 272 1832 345 419 1833 347 419 1834 346 419 1835 347 420 1836 349 420 1837 348 420 1838 348 421 1839 349 421 1840 351 421 1841 349 422 1842 347 422 1843 345 422 1844 345 423 1845 353 423 1846 351 423 1847 350 424 1848 351 424 1849 353 424 1850 352 425 1851 353 425 1852 345 425 1853 352 426 1854 344 426 1855 350 426 1856 344 427 1857 346 427 1858 350 427 1859</p>
        </triangles>
      </mesh>
    </geometry>
  </library_geometries>
  <library_visual_scenes>
    <visual_scene id="Scene" name="Scene">
      <node id="tmp_export_Cylinder_013" name="tmp_export_Cylinder.013" type="NODE">
        <matrix sid="transform">1 0 0 0 0 1 0 0 0 0 1 0 0 0 0 1</matrix>
        <instance_geometry url="#Cylinder_013-mesh" name="tmp_export_Cylinder.013">
          <bind_material>
            <technique_common>
              <instance_material symbol="Material_001-material" target="#Material_001-material">
                <bind_vertex_input semantic="UVMap" input_semantic="TEXCOORD" input_set="0"/>
              </instance_material>
            </technique_common>
          </bind_material>
        </instance_geometry>
      </node>
    </visual_scene>
  </library_visual_scenes>
  <scene>
    <instance_visual_scene url="#Scene"/>
  </scene>
</COLLADA>